<?xml version="1.0" encoding="UTF-8" standalone="no"?>
<!-- Created with Inkscape (http://www.inkscape.org/) -->

<svg
   width="39.827759mm"
   height="47.473511mm"
   viewBox="0 0 39.827759 47.473511"
   version="1.1"
   id="svg1"
   inkscape:version="1.3 (1:1.3+202307231459+0e150ed6c4)"
   sodipodi:docname="difusor.svg"
   xmlns:inkscape="http://www.inkscape.org/namespaces/inkscape"
   xmlns:sodipodi="http://sodipodi.sourceforge.net/DTD/sodipodi-0.dtd"
   xmlns="http://www.w3.org/2000/svg"
   xmlns:svg="http://www.w3.org/2000/svg">
  <sodipodi:namedview
     id="namedview1"
     pagecolor="#ffffff"
     bordercolor="#666666"
     borderopacity="1.0"
     inkscape:showpageshadow="2"
     inkscape:pageopacity="0.0"
     inkscape:pagecheckerboard="0"
     inkscape:deskcolor="#d1d1d1"
     inkscape:document-units="mm"
     inkscape:zoom="2"
     inkscape:cx="313"
     inkscape:cy="537.5"
     inkscape:window-width="2560"
     inkscape:window-height="1376"
     inkscape:window-x="0"
     inkscape:window-y="27"
     inkscape:window-maximized="1"
     inkscape:current-layer="layer1"
     showgrid="false" />
  <defs
     id="defs1">
    <inkscape:path-effect
       effect="spiro"
       id="path-effect228"
       is_visible="true"
       lpeversion="1" />
    <inkscape:path-effect
       effect="spiro"
       id="path-effect226"
       is_visible="true"
       lpeversion="1" />
    <inkscape:path-effect
       effect="spiro"
       id="path-effect109"
       is_visible="true"
       lpeversion="1" />
    <inkscape:path-effect
       effect="spiro"
       id="path-effect107"
       is_visible="true"
       lpeversion="1" />
    <inkscape:path-effect
       effect="spiro"
       id="path-effect105"
       is_visible="true"
       lpeversion="1" />
    <inkscape:path-effect
       effect="spiro"
       id="path-effect103"
       is_visible="true"
       lpeversion="1" />
    <inkscape:path-effect
       effect="spiro"
       id="path-effect101"
       is_visible="true"
       lpeversion="1" />
    <inkscape:path-effect
       effect="spiro"
       id="path-effect99"
       is_visible="true"
       lpeversion="1" />
    <inkscape:path-effect
       effect="spiro"
       id="path-effect97"
       is_visible="true"
       lpeversion="1" />
    <inkscape:path-effect
       effect="spiro"
       id="path-effect93"
       is_visible="true"
       lpeversion="1" />
  </defs>
  <g
     inkscape:label="Capa 1"
     inkscape:groupmode="layer"
     id="layer1"
     transform="translate(-115.06688,-82.654249)">
    <g
       id="g334">
      <path
         style="fill:none;stroke:#000000;stroke-width:0.264583px;stroke-linecap:butt;stroke-linejoin:miter;stroke-opacity:1"
         d="m 106.34147,46.550495 h 6.35865"
         id="path79"
         inkscape:path-effect="#path-effect93"
         inkscape:original-d="m 106.34147,46.550495 c 9.18309,-0.03612 -2.77292,0 6.35865,0"
         transform="translate(17.76891,40.294118)"
         sodipodi:nodetypes="cc" />
      <rect
         style="fill:none;fill-opacity:0.434037;stroke:#000000;stroke-width:0.264999"
         id="rect79"
         width="8.871088"
         height="8.0501518"
         x="130.54544"
         y="82.786751" />
      <path
         style="fill:none;stroke:#000000;stroke-width:0.264583px;stroke-linecap:butt;stroke-linejoin:miter;stroke-opacity:1"
         d="m 106.34147,46.550495 h 6.35865"
         id="path80"
         inkscape:path-effect="#path-effect97"
         inkscape:original-d="m 106.34147,46.550495 c 9.18309,-0.03612 -2.77292,0 6.35865,0"
         transform="translate(33.114747,40.294118)"
         sodipodi:nodetypes="cc" />
      <path
         style="fill:none;stroke:#000000;stroke-width:0.264583px;stroke-linecap:butt;stroke-linejoin:miter;stroke-opacity:1"
         d="M 79.581559,89.74683 H 101.14121"
         id="path81"
         inkscape:path-effect="#path-effect99"
         inkscape:original-d="m 79.581559,89.74683 c 7.186549,0 14.373101,0 21.559651,0"
         transform="translate(44.494409,6.979919)" />
      <path
         style="fill:none;stroke:#000000;stroke-width:0.264583px;stroke-linecap:butt;stroke-linejoin:miter;stroke-opacity:1"
         d="M 79.581559,89.74683 H 101.14121"
         id="path82"
         inkscape:path-effect="#path-effect101"
         inkscape:original-d="m 79.581559,89.74683 c 7.186549,0 14.373101,0 21.559651,0"
         transform="translate(44.494409,26.029931)" />
      <path
         style="fill:none;stroke:#000000;stroke-width:0.264583px;stroke-linecap:butt;stroke-linejoin:miter;stroke-opacity:1"
         d="M 79.581559,89.74683 H 101.14121"
         id="path83"
         inkscape:path-effect="#path-effect103"
         inkscape:original-d="m 79.581559,89.74683 c 7.186549,0 14.373101,0 21.559651,0"
         transform="translate(44.494409,36.613271)" />
      <path
         style="fill:none;stroke:#000000;stroke-width:0.465;stroke-linecap:butt;stroke-linejoin:miter;stroke-dasharray:0.465, 1.395;stroke-dashoffset:0;stroke-opacity:1"
         d="m 73.651657,44.207988 v 6.344547"
         id="path84"
         inkscape:path-effect="#path-effect105"
         inkscape:original-d="m 73.651657,44.207988 c 0,2.147845 0,4.229698 0,6.344547"
         transform="translate(60.898586,58.838285)" />
      <g
         inkscape:label=""
         transform="translate(133.74717,84.790529)"
         id="g88">
        <g
           id="g87"
           transform="matrix(0.352778,0,0,0.352778,-0.984206,-0.701454)">
          <g
             style="fill:#000000;fill-opacity:1"
             id="g86">
            <g
               id="g85"
               transform="translate(1.993,13.754)">
              <path
                 style="stroke:none"
                 d="M 8.890625,-11.421875 C 8.890625,-11.75 8.875,-11.765625 8.5,-11.765625 H 1.1875 l -0.171875,3.8125 h 0.3125 c 0.09375,-1.96875 0.625,-3.359375 3.40625,-3.359375 h 2.84375 L 0.90625,-0.546875 C 0.796875,-0.359375 0.796875,-0.34375 0.796875,-0.21875 0.796875,0 0.828125,0 1.171875,0 h 7.5625 L 8.96875,-4.5 H 8.65625 C 8.5,-2.234375 8.390625,-0.484375 5.09375,-0.484375 h -3 z m 0,0"
                 id="path85" />
            </g>
          </g>
        </g>
      </g>
      <circle
         style="fill:#000000;fill-opacity:1;stroke:#000000;stroke-width:0.0468029;stroke-dasharray:none;stroke-dashoffset:0"
         id="circle88"
         cx="134.95564"
         cy="96.600159"
         r="0.9624719" />
      <circle
         style="fill:#000000;fill-opacity:1;stroke:#000000;stroke-width:0.0468029;stroke-dasharray:none;stroke-dashoffset:0"
         id="circle89"
         cx="134.95564"
         cy="115.65014"
         r="0.9624719" />
      <circle
         style="fill:#000000;fill-opacity:1;stroke:#000000;stroke-width:0.0468029;stroke-dasharray:none;stroke-dashoffset:0"
         id="circle90"
         cx="134.95564"
         cy="126.23346"
         r="0.9624719" />
      <path
         style="fill:none;stroke:#000000;stroke-width:0.264583px;stroke-linecap:butt;stroke-linejoin:miter;stroke-opacity:1"
         d="M 90.638751,122.93142 V 112.76931"
         id="path90"
         inkscape:path-effect="#path-effect107"
         inkscape:original-d="M 90.638751,122.93142 V 112.76931"
         transform="translate(44.316984,2.7465856)"
         sodipodi:nodetypes="cc" />
      <path
         style="fill:none;stroke:#000000;stroke-width:0.264583px;stroke-linecap:butt;stroke-linejoin:miter;stroke-opacity:1"
         d="m 90.638751,119.6639 v -5.68869"
         id="path91"
         inkscape:path-effect="#path-effect109"
         inkscape:original-d="m 90.638751,119.6639 v -5.68869"
         transform="translate(44.316984,-23.182588)"
         sodipodi:nodetypes="cc" />
      <g
         id="g113"
         transform="translate(2.1610545,-3.074248)">
        <rect
           style="fill:none;fill-opacity:0.434037;stroke:#000000;stroke-width:0.264999"
           id="rect109"
           width="8.871088"
           height="8.0501518"
           x="143.73001"
           y="85.861" />
        <g
           inkscape:label=""
           transform="translate(146.14259,87.810748)"
           id="g112">
          <g
             id="g111"
             transform="matrix(0.352778,0,0,0.352778,-0.780256,-0.701454)">
            <g
               style="fill:#000000;fill-opacity:1"
               id="g110">
              <g
                 id="g109"
                 transform="translate(1.993,13.754)">
                <path
                   style="stroke:none"
                   d="m 6.28125,-6.53125 2.546875,-3.65625 c 0.265625,-0.375 0.78125,-1.109375 2.1875,-1.125 v -0.453125 c -0.390625,0.04687 -1.046875,0.04687 -1.453125,0.04687 -0.578125,0 -1.28125,0 -1.703125,-0.04687 v 0.453125 c 0.546875,0.04687 0.6875,0.390625 0.6875,0.671875 0,0.203125 -0.09375,0.34375 -0.21875,0.515625 L 6.0625,-6.828125 3.515625,-10.5625 C 3.390625,-10.75 3.375,-10.796875 3.375,-10.84375 3.375,-11 3.5625,-11.296875 4.125,-11.3125 v -0.453125 c -0.546875,0.04687 -1.390625,0.04687 -1.953125,0.04687 -0.453125,0 -1.3125,0 -1.71875,-0.04687 v 0.453125 c 0.9375,0 1.25,0.03125 1.625,0.5625 l 3.328125,4.859375 -3,4.359375 c -0.734375,1.0625 -1.859375,1.078125 -2.1875,1.078125 V 0 c 0.40625,-0.03125 1.0625,-0.03125 1.46875,-0.03125 0.46875,0 1.28125,0 1.703125,0.03125 V -0.453125 C 2.859375,-0.5 2.703125,-0.84375 2.703125,-1.125 c 0,-0.21875 0.09375,-0.34375 0.171875,-0.453125 l 2.75,-4 3,4.375 c 0.140625,0.1875 0.140625,0.234375 0.140625,0.296875 0,0.125 -0.15625,0.421875 -0.765625,0.453125 V 0 c 0.5625,-0.03125 1.40625,-0.03125 1.96875,-0.03125 0.453125,0 1.3125,0 1.71875,0.03125 v -0.453125 c -1.09375,0 -1.265625,-0.078125 -1.609375,-0.5625 z m 0,0"
                   id="path109" />
              </g>
            </g>
          </g>
        </g>
      </g>
      <g
         id="g118"
         transform="translate(2.1610545,6.979919)">
        <rect
           style="fill:none;fill-opacity:0.434037;stroke:#000000;stroke-width:0.264999"
           id="rect113"
           width="8.871088"
           height="8.0501518"
           x="143.73001"
           y="85.861" />
        <g
           inkscape:label=""
           transform="translate(146.14259,87.810748)"
           id="g117">
          <g
             id="g116"
             transform="matrix(0.352778,0,0,0.352778,-0.780256,-0.701454)">
            <g
               style="fill:#000000;fill-opacity:1"
               id="g115">
              <g
                 id="g114"
                 transform="translate(1.993,13.754)">
                <path
                   style="stroke:none"
                   d="m 6.28125,-6.53125 2.546875,-3.65625 c 0.265625,-0.375 0.78125,-1.109375 2.1875,-1.125 v -0.453125 c -0.390625,0.04687 -1.046875,0.04687 -1.453125,0.04687 -0.578125,0 -1.28125,0 -1.703125,-0.04687 v 0.453125 c 0.546875,0.04687 0.6875,0.390625 0.6875,0.671875 0,0.203125 -0.09375,0.34375 -0.21875,0.515625 L 6.0625,-6.828125 3.515625,-10.5625 C 3.390625,-10.75 3.375,-10.796875 3.375,-10.84375 3.375,-11 3.5625,-11.296875 4.125,-11.3125 v -0.453125 c -0.546875,0.04687 -1.390625,0.04687 -1.953125,0.04687 -0.453125,0 -1.3125,0 -1.71875,-0.04687 v 0.453125 c 0.9375,0 1.25,0.03125 1.625,0.5625 l 3.328125,4.859375 -3,4.359375 c -0.734375,1.0625 -1.859375,1.078125 -2.1875,1.078125 V 0 c 0.40625,-0.03125 1.0625,-0.03125 1.46875,-0.03125 0.46875,0 1.28125,0 1.703125,0.03125 V -0.453125 C 2.859375,-0.5 2.703125,-0.84375 2.703125,-1.125 c 0,-0.21875 0.09375,-0.34375 0.171875,-0.453125 l 2.75,-4 3,4.375 c 0.140625,0.1875 0.140625,0.234375 0.140625,0.296875 0,0.125 -0.15625,0.421875 -0.765625,0.453125 V 0 c 0.5625,-0.03125 1.40625,-0.03125 1.96875,-0.03125 0.453125,0 1.3125,0 1.71875,0.03125 v -0.453125 c -1.09375,0 -1.265625,-0.078125 -1.609375,-0.5625 z m 0,0"
                   id="path113" />
              </g>
            </g>
          </g>
        </g>
      </g>
      <g
         id="g123"
         transform="translate(2.1610545,26.029931)">
        <rect
           style="fill:none;fill-opacity:0.434037;stroke:#000000;stroke-width:0.264999"
           id="rect118"
           width="8.871088"
           height="8.0501518"
           x="143.73001"
           y="85.861" />
        <g
           inkscape:label=""
           transform="translate(146.14259,87.810748)"
           id="g122">
          <g
             id="g121"
             transform="matrix(0.352778,0,0,0.352778,-0.780256,-0.701454)">
            <g
               style="fill:#000000;fill-opacity:1"
               id="g120">
              <g
                 id="g119"
                 transform="translate(1.993,13.754)">
                <path
                   style="stroke:none"
                   d="m 6.28125,-6.53125 2.546875,-3.65625 c 0.265625,-0.375 0.78125,-1.109375 2.1875,-1.125 v -0.453125 c -0.390625,0.04687 -1.046875,0.04687 -1.453125,0.04687 -0.578125,0 -1.28125,0 -1.703125,-0.04687 v 0.453125 c 0.546875,0.04687 0.6875,0.390625 0.6875,0.671875 0,0.203125 -0.09375,0.34375 -0.21875,0.515625 L 6.0625,-6.828125 3.515625,-10.5625 C 3.390625,-10.75 3.375,-10.796875 3.375,-10.84375 3.375,-11 3.5625,-11.296875 4.125,-11.3125 v -0.453125 c -0.546875,0.04687 -1.390625,0.04687 -1.953125,0.04687 -0.453125,0 -1.3125,0 -1.71875,-0.04687 v 0.453125 c 0.9375,0 1.25,0.03125 1.625,0.5625 l 3.328125,4.859375 -3,4.359375 c -0.734375,1.0625 -1.859375,1.078125 -2.1875,1.078125 V 0 c 0.40625,-0.03125 1.0625,-0.03125 1.46875,-0.03125 0.46875,0 1.28125,0 1.703125,0.03125 V -0.453125 C 2.859375,-0.5 2.703125,-0.84375 2.703125,-1.125 c 0,-0.21875 0.09375,-0.34375 0.171875,-0.453125 l 2.75,-4 3,4.375 c 0.140625,0.1875 0.140625,0.234375 0.140625,0.296875 0,0.125 -0.15625,0.421875 -0.765625,0.453125 V 0 c 0.5625,-0.03125 1.40625,-0.03125 1.96875,-0.03125 0.453125,0 1.3125,0 1.71875,0.03125 v -0.453125 c -1.09375,0 -1.265625,-0.078125 -1.609375,-0.5625 z m 0,0"
                   id="path118" />
              </g>
            </g>
          </g>
        </g>
      </g>
      <g
         id="g128"
         transform="translate(2.1610545,36.084104)">
        <rect
           style="fill:none;fill-opacity:0.434037;stroke:#000000;stroke-width:0.264999"
           id="rect123"
           width="8.871088"
           height="8.0501518"
           x="143.73001"
           y="85.861" />
        <g
           inkscape:label=""
           transform="translate(146.14259,87.810748)"
           id="g127">
          <g
             id="g126"
             transform="matrix(0.352778,0,0,0.352778,-0.780256,-0.701454)">
            <g
               style="fill:#000000;fill-opacity:1"
               id="g125">
              <g
                 id="g124"
                 transform="translate(1.993,13.754)">
                <path
                   style="stroke:none"
                   d="m 6.28125,-6.53125 2.546875,-3.65625 c 0.265625,-0.375 0.78125,-1.109375 2.1875,-1.125 v -0.453125 c -0.390625,0.04687 -1.046875,0.04687 -1.453125,0.04687 -0.578125,0 -1.28125,0 -1.703125,-0.04687 v 0.453125 c 0.546875,0.04687 0.6875,0.390625 0.6875,0.671875 0,0.203125 -0.09375,0.34375 -0.21875,0.515625 L 6.0625,-6.828125 3.515625,-10.5625 C 3.390625,-10.75 3.375,-10.796875 3.375,-10.84375 3.375,-11 3.5625,-11.296875 4.125,-11.3125 v -0.453125 c -0.546875,0.04687 -1.390625,0.04687 -1.953125,0.04687 -0.453125,0 -1.3125,0 -1.71875,-0.04687 v 0.453125 c 0.9375,0 1.25,0.03125 1.625,0.5625 l 3.328125,4.859375 -3,4.359375 c -0.734375,1.0625 -1.859375,1.078125 -2.1875,1.078125 V 0 c 0.40625,-0.03125 1.0625,-0.03125 1.46875,-0.03125 0.46875,0 1.28125,0 1.703125,0.03125 V -0.453125 C 2.859375,-0.5 2.703125,-0.84375 2.703125,-1.125 c 0,-0.21875 0.09375,-0.34375 0.171875,-0.453125 l 2.75,-4 3,4.375 c 0.140625,0.1875 0.140625,0.234375 0.140625,0.296875 0,0.125 -0.15625,0.421875 -0.765625,0.453125 V 0 c 0.5625,-0.03125 1.40625,-0.03125 1.96875,-0.03125 0.453125,0 1.3125,0 1.71875,0.03125 v -0.453125 c -1.09375,0 -1.265625,-0.078125 -1.609375,-0.5625 z m 0,0"
                   id="path123" />
              </g>
            </g>
          </g>
        </g>
      </g>
      <g
         id="g133"
         transform="translate(-28.530625,-3.074248)">
        <rect
           style="fill:none;fill-opacity:0.434037;stroke:#000000;stroke-width:0.264999"
           id="rect128"
           width="8.871088"
           height="8.0501518"
           x="143.73001"
           y="85.861" />
        <g
           inkscape:label=""
           transform="translate(146.14259,87.810748)"
           id="g132">
          <g
             id="g131"
             transform="matrix(0.352778,0,0,0.352778,-0.780256,-0.701454)">
            <g
               style="fill:#000000;fill-opacity:1"
               id="g130">
              <g
                 id="g129"
                 transform="translate(1.993,13.754)">
                <path
                   style="stroke:none"
                   d="m 6.28125,-6.53125 2.546875,-3.65625 c 0.265625,-0.375 0.78125,-1.109375 2.1875,-1.125 v -0.453125 c -0.390625,0.04687 -1.046875,0.04687 -1.453125,0.04687 -0.578125,0 -1.28125,0 -1.703125,-0.04687 v 0.453125 c 0.546875,0.04687 0.6875,0.390625 0.6875,0.671875 0,0.203125 -0.09375,0.34375 -0.21875,0.515625 L 6.0625,-6.828125 3.515625,-10.5625 C 3.390625,-10.75 3.375,-10.796875 3.375,-10.84375 3.375,-11 3.5625,-11.296875 4.125,-11.3125 v -0.453125 c -0.546875,0.04687 -1.390625,0.04687 -1.953125,0.04687 -0.453125,0 -1.3125,0 -1.71875,-0.04687 v 0.453125 c 0.9375,0 1.25,0.03125 1.625,0.5625 l 3.328125,4.859375 -3,4.359375 c -0.734375,1.0625 -1.859375,1.078125 -2.1875,1.078125 V 0 c 0.40625,-0.03125 1.0625,-0.03125 1.46875,-0.03125 0.46875,0 1.28125,0 1.703125,0.03125 V -0.453125 C 2.859375,-0.5 2.703125,-0.84375 2.703125,-1.125 c 0,-0.21875 0.09375,-0.34375 0.171875,-0.453125 l 2.75,-4 3,4.375 c 0.140625,0.1875 0.140625,0.234375 0.140625,0.296875 0,0.125 -0.15625,0.421875 -0.765625,0.453125 V 0 c 0.5625,-0.03125 1.40625,-0.03125 1.96875,-0.03125 0.453125,0 1.3125,0 1.71875,0.03125 v -0.453125 c -1.09375,0 -1.265625,-0.078125 -1.609375,-0.5625 z m 0,0"
                   id="path128" />
              </g>
            </g>
          </g>
        </g>
      </g>
      <g
         id="g138"
         transform="translate(-28.530625,6.979919)">
        <rect
           style="fill:none;fill-opacity:0.434037;stroke:#000000;stroke-width:0.264999"
           id="rect133"
           width="8.871088"
           height="8.0501518"
           x="143.73001"
           y="85.861" />
        <g
           inkscape:label=""
           transform="translate(146.14259,87.810748)"
           id="g137">
          <g
             id="g136"
             transform="matrix(0.352778,0,0,0.352778,-0.780256,-0.701454)">
            <g
               style="fill:#000000;fill-opacity:1"
               id="g135">
              <g
                 id="g134"
                 transform="translate(1.993,13.754)">
                <path
                   style="stroke:none"
                   d="m 6.28125,-6.53125 2.546875,-3.65625 c 0.265625,-0.375 0.78125,-1.109375 2.1875,-1.125 v -0.453125 c -0.390625,0.04687 -1.046875,0.04687 -1.453125,0.04687 -0.578125,0 -1.28125,0 -1.703125,-0.04687 v 0.453125 c 0.546875,0.04687 0.6875,0.390625 0.6875,0.671875 0,0.203125 -0.09375,0.34375 -0.21875,0.515625 L 6.0625,-6.828125 3.515625,-10.5625 C 3.390625,-10.75 3.375,-10.796875 3.375,-10.84375 3.375,-11 3.5625,-11.296875 4.125,-11.3125 v -0.453125 c -0.546875,0.04687 -1.390625,0.04687 -1.953125,0.04687 -0.453125,0 -1.3125,0 -1.71875,-0.04687 v 0.453125 c 0.9375,0 1.25,0.03125 1.625,0.5625 l 3.328125,4.859375 -3,4.359375 c -0.734375,1.0625 -1.859375,1.078125 -2.1875,1.078125 V 0 c 0.40625,-0.03125 1.0625,-0.03125 1.46875,-0.03125 0.46875,0 1.28125,0 1.703125,0.03125 V -0.453125 C 2.859375,-0.5 2.703125,-0.84375 2.703125,-1.125 c 0,-0.21875 0.09375,-0.34375 0.171875,-0.453125 l 2.75,-4 3,4.375 c 0.140625,0.1875 0.140625,0.234375 0.140625,0.296875 0,0.125 -0.15625,0.421875 -0.765625,0.453125 V 0 c 0.5625,-0.03125 1.40625,-0.03125 1.96875,-0.03125 0.453125,0 1.3125,0 1.71875,0.03125 v -0.453125 c -1.09375,0 -1.265625,-0.078125 -1.609375,-0.5625 z m 0,0"
                   id="path133" />
              </g>
            </g>
          </g>
        </g>
      </g>
      <g
         id="g143"
         transform="translate(-28.530625,26.029931)">
        <rect
           style="fill:none;fill-opacity:0.434037;stroke:#000000;stroke-width:0.264999"
           id="rect138"
           width="8.871088"
           height="8.0501518"
           x="143.73001"
           y="85.861" />
        <g
           inkscape:label=""
           transform="translate(146.14259,87.810748)"
           id="g142">
          <g
             id="g141"
             transform="matrix(0.352778,0,0,0.352778,-0.780256,-0.701454)">
            <g
               style="fill:#000000;fill-opacity:1"
               id="g140">
              <g
                 id="g139"
                 transform="translate(1.993,13.754)">
                <path
                   style="stroke:none"
                   d="m 6.28125,-6.53125 2.546875,-3.65625 c 0.265625,-0.375 0.78125,-1.109375 2.1875,-1.125 v -0.453125 c -0.390625,0.04687 -1.046875,0.04687 -1.453125,0.04687 -0.578125,0 -1.28125,0 -1.703125,-0.04687 v 0.453125 c 0.546875,0.04687 0.6875,0.390625 0.6875,0.671875 0,0.203125 -0.09375,0.34375 -0.21875,0.515625 L 6.0625,-6.828125 3.515625,-10.5625 C 3.390625,-10.75 3.375,-10.796875 3.375,-10.84375 3.375,-11 3.5625,-11.296875 4.125,-11.3125 v -0.453125 c -0.546875,0.04687 -1.390625,0.04687 -1.953125,0.04687 -0.453125,0 -1.3125,0 -1.71875,-0.04687 v 0.453125 c 0.9375,0 1.25,0.03125 1.625,0.5625 l 3.328125,4.859375 -3,4.359375 c -0.734375,1.0625 -1.859375,1.078125 -2.1875,1.078125 V 0 c 0.40625,-0.03125 1.0625,-0.03125 1.46875,-0.03125 0.46875,0 1.28125,0 1.703125,0.03125 V -0.453125 C 2.859375,-0.5 2.703125,-0.84375 2.703125,-1.125 c 0,-0.21875 0.09375,-0.34375 0.171875,-0.453125 l 2.75,-4 3,4.375 c 0.140625,0.1875 0.140625,0.234375 0.140625,0.296875 0,0.125 -0.15625,0.421875 -0.765625,0.453125 V 0 c 0.5625,-0.03125 1.40625,-0.03125 1.96875,-0.03125 0.453125,0 1.3125,0 1.71875,0.03125 v -0.453125 c -1.09375,0 -1.265625,-0.078125 -1.609375,-0.5625 z m 0,0"
                   id="path138" />
              </g>
            </g>
          </g>
        </g>
      </g>
      <g
         id="g148"
         transform="translate(-28.530625,36.084104)">
        <rect
           style="fill:none;fill-opacity:0.434037;stroke:#000000;stroke-width:0.264999"
           id="rect143"
           width="8.871088"
           height="8.0501518"
           x="143.73001"
           y="85.861" />
        <g
           inkscape:label=""
           transform="translate(146.14259,87.810748)"
           id="g147">
          <g
             id="g146"
             transform="matrix(0.352778,0,0,0.352778,-0.780256,-0.701454)">
            <g
               style="fill:#000000;fill-opacity:1"
               id="g145">
              <g
                 id="g144"
                 transform="translate(1.993,13.754)">
                <path
                   style="stroke:none"
                   d="m 6.28125,-6.53125 2.546875,-3.65625 c 0.265625,-0.375 0.78125,-1.109375 2.1875,-1.125 v -0.453125 c -0.390625,0.04687 -1.046875,0.04687 -1.453125,0.04687 -0.578125,0 -1.28125,0 -1.703125,-0.04687 v 0.453125 c 0.546875,0.04687 0.6875,0.390625 0.6875,0.671875 0,0.203125 -0.09375,0.34375 -0.21875,0.515625 L 6.0625,-6.828125 3.515625,-10.5625 C 3.390625,-10.75 3.375,-10.796875 3.375,-10.84375 3.375,-11 3.5625,-11.296875 4.125,-11.3125 v -0.453125 c -0.546875,0.04687 -1.390625,0.04687 -1.953125,0.04687 -0.453125,0 -1.3125,0 -1.71875,-0.04687 v 0.453125 c 0.9375,0 1.25,0.03125 1.625,0.5625 l 3.328125,4.859375 -3,4.359375 c -0.734375,1.0625 -1.859375,1.078125 -2.1875,1.078125 V 0 c 0.40625,-0.03125 1.0625,-0.03125 1.46875,-0.03125 0.46875,0 1.28125,0 1.703125,0.03125 V -0.453125 C 2.859375,-0.5 2.703125,-0.84375 2.703125,-1.125 c 0,-0.21875 0.09375,-0.34375 0.171875,-0.453125 l 2.75,-4 3,4.375 c 0.140625,0.1875 0.140625,0.234375 0.140625,0.296875 0,0.125 -0.15625,0.421875 -0.765625,0.453125 V 0 c 0.5625,-0.03125 1.40625,-0.03125 1.96875,-0.03125 0.453125,0 1.3125,0 1.71875,0.03125 v -0.453125 c -1.09375,0 -1.265625,-0.078125 -1.609375,-0.5625 z m 0,0"
                   id="path143" />
              </g>
            </g>
          </g>
        </g>
      </g>
      <path
         style="fill:none;stroke:#000000;stroke-width:0.465;stroke-linecap:butt;stroke-linejoin:miter;stroke-dasharray:0.465, 1.395;stroke-dashoffset:0;stroke-opacity:1"
         d="m 73.651657,44.207988 v 6.344547"
         id="path224"
         inkscape:path-effect="#path-effect226"
         inkscape:original-d="m 73.651657,44.207988 c 0,2.147845 0,4.229698 0,6.344547"
         transform="translate(76.773596,58.838285)" />
      <path
         style="fill:none;stroke:#000000;stroke-width:0.465;stroke-linecap:butt;stroke-linejoin:miter;stroke-dasharray:0.465, 1.395;stroke-dashoffset:0;stroke-opacity:1"
         d="m 73.651657,44.207988 v 6.344547"
         id="path226"
         inkscape:path-effect="#path-effect228"
         inkscape:original-d="m 73.651657,44.207988 c 0,2.147845 0,4.229698 0,6.344547"
         transform="translate(46.08191,58.838285)" />
    </g>
  </g>
</svg>
