<?xml version="1.0" encoding="UTF-8" standalone="no"?>
<!-- Created with Inkscape (http://www.inkscape.org/) -->

<svg
   width="90.628006mm"
   height="47.473511mm"
   viewBox="0 0 90.628006 47.473511"
   version="1.1"
   id="svg1"
   inkscape:version="1.3 (1:1.3+202307231459+0e150ed6c4)"
   sodipodi:docname="difusor.svg"
   xmlns:inkscape="http://www.inkscape.org/namespaces/inkscape"
   xmlns:sodipodi="http://sodipodi.sourceforge.net/DTD/sodipodi-0.dtd"
   xmlns="http://www.w3.org/2000/svg"
   xmlns:svg="http://www.w3.org/2000/svg">
  <sodipodi:namedview
     id="namedview1"
     pagecolor="#ffffff"
     bordercolor="#666666"
     borderopacity="1.0"
     inkscape:showpageshadow="2"
     inkscape:pageopacity="0.0"
     inkscape:pagecheckerboard="0"
     inkscape:deskcolor="#d1d1d1"
     inkscape:document-units="mm"
     inkscape:zoom="2"
     inkscape:cx="313"
     inkscape:cy="537.5"
     inkscape:window-width="2560"
     inkscape:window-height="1376"
     inkscape:window-x="0"
     inkscape:window-y="27"
     inkscape:window-maximized="1"
     inkscape:current-layer="layer1"
     showgrid="false" />
  <defs
     id="defs1">
    <inkscape:path-effect
       effect="spiro"
       id="path-effect333"
       is_visible="true"
       lpeversion="1" />
    <inkscape:path-effect
       effect="spiro"
       id="path-effect331"
       is_visible="true"
       lpeversion="1" />
    <inkscape:path-effect
       effect="spiro"
       id="path-effect315"
       is_visible="true"
       lpeversion="1" />
    <inkscape:path-effect
       effect="spiro"
       id="path-effect311"
       is_visible="true"
       lpeversion="1" />
    <inkscape:path-effect
       effect="spiro"
       id="path-effect301"
       is_visible="true"
       lpeversion="1" />
    <inkscape:path-effect
       effect="spiro"
       id="path-effect299"
       is_visible="true"
       lpeversion="1" />
    <inkscape:path-effect
       effect="spiro"
       id="path-effect297"
       is_visible="true"
       lpeversion="1" />
    <inkscape:path-effect
       effect="spiro"
       id="path-effect295"
       is_visible="true"
       lpeversion="1" />
    <inkscape:path-effect
       effect="spiro"
       id="path-effect293"
       is_visible="true"
       lpeversion="1" />
    <inkscape:path-effect
       effect="spiro"
       id="path-effect290"
       is_visible="true"
       lpeversion="1" />
    <inkscape:path-effect
       effect="spiro"
       id="path-effect288"
       is_visible="true"
       lpeversion="1" />
    <inkscape:path-effect
       effect="spiro"
       id="path-effect286"
       is_visible="true"
       lpeversion="1" />
    <inkscape:path-effect
       effect="spiro"
       id="path-effect284"
       is_visible="true"
       lpeversion="1" />
    <inkscape:path-effect
       effect="spiro"
       id="path-effect282"
       is_visible="true"
       lpeversion="1" />
  </defs>
  <g
     inkscape:label="Capa 1"
     inkscape:groupmode="layer"
     id="layer1"
     transform="translate(-25.529242,-132.46472)">
    <g
       id="g335">
      <path
         style="fill:none;stroke:#000000;stroke-width:0.264583px;stroke-linecap:butt;stroke-linejoin:miter;stroke-opacity:1"
         d="m 106.34147,46.550495 h 6.35865"
         id="path228"
         inkscape:path-effect="#path-effect282"
         inkscape:original-d="m 106.34147,46.550495 c 9.18309,-0.03612 -2.77292,0 6.35865,0"
         transform="translate(-71.768737,90.104581)"
         sodipodi:nodetypes="cc" />
      <path
         style="fill:none;stroke:#000000;stroke-width:0.264583px;stroke-linecap:butt;stroke-linejoin:miter;stroke-opacity:1"
         d="m 106.34147,46.550495 h 6.35865"
         id="path229"
         inkscape:path-effect="#path-effect284"
         inkscape:original-d="m 106.34147,46.550495 c 9.18309,-0.03612 -2.77292,0 6.35865,0"
         transform="translate(-56.4229,90.104581)"
         sodipodi:nodetypes="cc" />
      <path
         style="fill:none;stroke:#000000;stroke-width:0.264583px;stroke-linecap:butt;stroke-linejoin:miter;stroke-opacity:1"
         d="M 79.581559,89.74683 H 101.14121"
         id="path230"
         inkscape:path-effect="#path-effect286"
         inkscape:original-d="m 79.581559,89.74683 c 7.186549,0 14.373101,0 21.559651,0"
         transform="translate(-45.043238,56.790382)" />
      <path
         style="fill:none;stroke:#000000;stroke-width:0.264583px;stroke-linecap:butt;stroke-linejoin:miter;stroke-opacity:1"
         d="M 79.581559,89.74683 H 101.14121"
         id="path231"
         inkscape:path-effect="#path-effect288"
         inkscape:original-d="m 79.581559,89.74683 c 7.186549,0 14.373101,0 21.559651,0"
         transform="translate(-45.043238,75.840394)" />
      <path
         style="fill:none;stroke:#000000;stroke-width:0.264583px;stroke-linecap:butt;stroke-linejoin:miter;stroke-opacity:1"
         d="M 79.581559,89.74683 H 101.14121"
         id="path232"
         inkscape:path-effect="#path-effect290"
         inkscape:original-d="m 79.581559,89.74683 c 7.186549,0 14.373101,0 21.559651,0"
         transform="translate(-45.043238,86.423734)" />
      <path
         style="fill:none;stroke:#000000;stroke-width:0.465;stroke-linecap:butt;stroke-linejoin:miter;stroke-dasharray:0.465, 1.395;stroke-dashoffset:0;stroke-opacity:1"
         d="m 73.651657,44.207988 v 6.344547"
         id="path233"
         inkscape:path-effect="#path-effect293"
         inkscape:original-d="m 73.651657,44.207988 c 0,2.147845 0,4.229698 0,6.344547"
         transform="translate(-28.639061,108.64874)" />
      <g
         id="g306"
         transform="translate(-13.392593,6.7012948)">
        <rect
           style="fill:none;fill-opacity:0.434037;stroke:#000000;stroke-width:0.264999"
           id="rect228"
           width="8.871088"
           height="8.0501518"
           x="54.400387"
           y="125.89592" />
        <g
           inkscape:label=""
           transform="translate(57.602116,127.8997)"
           id="g237">
          <g
             id="g236"
             transform="matrix(0.352778,0,0,0.352778,-0.984206,-0.701454)">
            <g
               style="fill:#000000;fill-opacity:1"
               id="g235">
              <g
                 id="g234"
                 transform="translate(1.993,13.754)">
                <path
                   style="stroke:none"
                   d="M 8.890625,-11.421875 C 8.890625,-11.75 8.875,-11.765625 8.5,-11.765625 H 1.1875 l -0.171875,3.8125 h 0.3125 c 0.09375,-1.96875 0.625,-3.359375 3.40625,-3.359375 h 2.84375 L 0.90625,-0.546875 C 0.796875,-0.359375 0.796875,-0.34375 0.796875,-0.21875 0.796875,0 0.828125,0 1.171875,0 h 7.5625 L 8.96875,-4.5 H 8.65625 C 8.5,-2.234375 8.390625,-0.484375 5.09375,-0.484375 h -3 z m 0,0"
                   id="path234" />
              </g>
            </g>
          </g>
        </g>
      </g>
      <circle
         style="fill:#000000;fill-opacity:1;stroke:#000000;stroke-width:0.0468029;stroke-dasharray:none;stroke-dashoffset:0"
         id="circle237"
         cx="45.417995"
         cy="146.41061"
         r="0.9624719" />
      <circle
         style="fill:#000000;fill-opacity:1;stroke:#000000;stroke-width:0.0468029;stroke-dasharray:none;stroke-dashoffset:0"
         id="circle238"
         cx="45.417995"
         cy="165.4606"
         r="0.9624719" />
      <circle
         style="fill:#000000;fill-opacity:1;stroke:#000000;stroke-width:0.0468029;stroke-dasharray:none;stroke-dashoffset:0"
         id="circle239"
         cx="45.417995"
         cy="176.04391"
         r="0.9624719" />
      <path
         style="fill:none;stroke:#000000;stroke-width:0.264583px;stroke-linecap:butt;stroke-linejoin:miter;stroke-opacity:1"
         d="M 90.638751,122.93142 V 112.76931"
         id="path239"
         inkscape:path-effect="#path-effect295"
         inkscape:original-d="M 90.638751,122.93142 V 112.76931"
         transform="translate(-45.220663,52.557048)"
         sodipodi:nodetypes="cc" />
      <path
         style="fill:none;stroke:#000000;stroke-width:0.264583px;stroke-linecap:butt;stroke-linejoin:miter;stroke-opacity:1"
         d="m 90.638751,119.6639 v -5.68869"
         id="path240"
         inkscape:path-effect="#path-effect297"
         inkscape:original-d="m 90.638751,119.6639 v -5.68869"
         transform="translate(-45.220663,26.627875)"
         sodipodi:nodetypes="cc" />
      <g
         id="g245"
         transform="translate(-87.376593,46.736215)">
        <rect
           style="fill:none;fill-opacity:0.434037;stroke:#000000;stroke-width:0.264999"
           id="rect240"
           width="8.871088"
           height="8.0501518"
           x="143.73001"
           y="85.861" />
        <g
           inkscape:label=""
           transform="translate(146.14259,87.810748)"
           id="g244">
          <g
             id="g243"
             transform="matrix(0.352778,0,0,0.352778,-0.780256,-0.701454)">
            <g
               style="fill:#000000;fill-opacity:1"
               id="g242">
              <g
                 id="g241"
                 transform="translate(1.993,13.754)">
                <path
                   style="stroke:none"
                   d="m 6.28125,-6.53125 2.546875,-3.65625 c 0.265625,-0.375 0.78125,-1.109375 2.1875,-1.125 v -0.453125 c -0.390625,0.04687 -1.046875,0.04687 -1.453125,0.04687 -0.578125,0 -1.28125,0 -1.703125,-0.04687 v 0.453125 c 0.546875,0.04687 0.6875,0.390625 0.6875,0.671875 0,0.203125 -0.09375,0.34375 -0.21875,0.515625 L 6.0625,-6.828125 3.515625,-10.5625 C 3.390625,-10.75 3.375,-10.796875 3.375,-10.84375 3.375,-11 3.5625,-11.296875 4.125,-11.3125 v -0.453125 c -0.546875,0.04687 -1.390625,0.04687 -1.953125,0.04687 -0.453125,0 -1.3125,0 -1.71875,-0.04687 v 0.453125 c 0.9375,0 1.25,0.03125 1.625,0.5625 l 3.328125,4.859375 -3,4.359375 c -0.734375,1.0625 -1.859375,1.078125 -2.1875,1.078125 V 0 c 0.40625,-0.03125 1.0625,-0.03125 1.46875,-0.03125 0.46875,0 1.28125,0 1.703125,0.03125 V -0.453125 C 2.859375,-0.5 2.703125,-0.84375 2.703125,-1.125 c 0,-0.21875 0.09375,-0.34375 0.171875,-0.453125 l 2.75,-4 3,4.375 c 0.140625,0.1875 0.140625,0.234375 0.140625,0.296875 0,0.125 -0.15625,0.421875 -0.765625,0.453125 V 0 c 0.5625,-0.03125 1.40625,-0.03125 1.96875,-0.03125 0.453125,0 1.3125,0 1.71875,0.03125 v -0.453125 c -1.09375,0 -1.265625,-0.078125 -1.609375,-0.5625 z m 0,0"
                   id="path241" />
              </g>
            </g>
          </g>
        </g>
      </g>
      <g
         id="g250"
         transform="translate(-87.376593,56.790382)">
        <rect
           style="fill:none;fill-opacity:0.434037;stroke:#000000;stroke-width:0.264999"
           id="rect245"
           width="8.871088"
           height="8.0501518"
           x="143.73001"
           y="85.861" />
        <g
           inkscape:label=""
           transform="translate(146.14259,87.810748)"
           id="g249">
          <g
             id="g248"
             transform="matrix(0.352778,0,0,0.352778,-0.780256,-0.701454)">
            <g
               style="fill:#000000;fill-opacity:1"
               id="g247">
              <g
                 id="g246"
                 transform="translate(1.993,13.754)">
                <path
                   style="stroke:none"
                   d="m 6.28125,-6.53125 2.546875,-3.65625 c 0.265625,-0.375 0.78125,-1.109375 2.1875,-1.125 v -0.453125 c -0.390625,0.04687 -1.046875,0.04687 -1.453125,0.04687 -0.578125,0 -1.28125,0 -1.703125,-0.04687 v 0.453125 c 0.546875,0.04687 0.6875,0.390625 0.6875,0.671875 0,0.203125 -0.09375,0.34375 -0.21875,0.515625 L 6.0625,-6.828125 3.515625,-10.5625 C 3.390625,-10.75 3.375,-10.796875 3.375,-10.84375 3.375,-11 3.5625,-11.296875 4.125,-11.3125 v -0.453125 c -0.546875,0.04687 -1.390625,0.04687 -1.953125,0.04687 -0.453125,0 -1.3125,0 -1.71875,-0.04687 v 0.453125 c 0.9375,0 1.25,0.03125 1.625,0.5625 l 3.328125,4.859375 -3,4.359375 c -0.734375,1.0625 -1.859375,1.078125 -2.1875,1.078125 V 0 c 0.40625,-0.03125 1.0625,-0.03125 1.46875,-0.03125 0.46875,0 1.28125,0 1.703125,0.03125 V -0.453125 C 2.859375,-0.5 2.703125,-0.84375 2.703125,-1.125 c 0,-0.21875 0.09375,-0.34375 0.171875,-0.453125 l 2.75,-4 3,4.375 c 0.140625,0.1875 0.140625,0.234375 0.140625,0.296875 0,0.125 -0.15625,0.421875 -0.765625,0.453125 V 0 c 0.5625,-0.03125 1.40625,-0.03125 1.96875,-0.03125 0.453125,0 1.3125,0 1.71875,0.03125 v -0.453125 c -1.09375,0 -1.265625,-0.078125 -1.609375,-0.5625 z m 0,0"
                   id="path245" />
              </g>
            </g>
          </g>
        </g>
      </g>
      <g
         id="g255"
         transform="translate(-87.376593,75.840394)">
        <rect
           style="fill:none;fill-opacity:0.434037;stroke:#000000;stroke-width:0.264999"
           id="rect250"
           width="8.871088"
           height="8.0501518"
           x="143.73001"
           y="85.861" />
        <g
           inkscape:label=""
           transform="translate(146.14259,87.810748)"
           id="g254">
          <g
             id="g253"
             transform="matrix(0.352778,0,0,0.352778,-0.780256,-0.701454)">
            <g
               style="fill:#000000;fill-opacity:1"
               id="g252">
              <g
                 id="g251"
                 transform="translate(1.993,13.754)">
                <path
                   style="stroke:none"
                   d="m 6.28125,-6.53125 2.546875,-3.65625 c 0.265625,-0.375 0.78125,-1.109375 2.1875,-1.125 v -0.453125 c -0.390625,0.04687 -1.046875,0.04687 -1.453125,0.04687 -0.578125,0 -1.28125,0 -1.703125,-0.04687 v 0.453125 c 0.546875,0.04687 0.6875,0.390625 0.6875,0.671875 0,0.203125 -0.09375,0.34375 -0.21875,0.515625 L 6.0625,-6.828125 3.515625,-10.5625 C 3.390625,-10.75 3.375,-10.796875 3.375,-10.84375 3.375,-11 3.5625,-11.296875 4.125,-11.3125 v -0.453125 c -0.546875,0.04687 -1.390625,0.04687 -1.953125,0.04687 -0.453125,0 -1.3125,0 -1.71875,-0.04687 v 0.453125 c 0.9375,0 1.25,0.03125 1.625,0.5625 l 3.328125,4.859375 -3,4.359375 c -0.734375,1.0625 -1.859375,1.078125 -2.1875,1.078125 V 0 c 0.40625,-0.03125 1.0625,-0.03125 1.46875,-0.03125 0.46875,0 1.28125,0 1.703125,0.03125 V -0.453125 C 2.859375,-0.5 2.703125,-0.84375 2.703125,-1.125 c 0,-0.21875 0.09375,-0.34375 0.171875,-0.453125 l 2.75,-4 3,4.375 c 0.140625,0.1875 0.140625,0.234375 0.140625,0.296875 0,0.125 -0.15625,0.421875 -0.765625,0.453125 V 0 c 0.5625,-0.03125 1.40625,-0.03125 1.96875,-0.03125 0.453125,0 1.3125,0 1.71875,0.03125 v -0.453125 c -1.09375,0 -1.265625,-0.078125 -1.609375,-0.5625 z m 0,0"
                   id="path250" />
              </g>
            </g>
          </g>
        </g>
      </g>
      <g
         id="g260"
         transform="translate(-87.376593,85.894567)">
        <rect
           style="fill:none;fill-opacity:0.434037;stroke:#000000;stroke-width:0.264999"
           id="rect255"
           width="8.871088"
           height="8.0501518"
           x="143.73001"
           y="85.861" />
        <g
           inkscape:label=""
           transform="translate(146.14259,87.810748)"
           id="g259">
          <g
             id="g258"
             transform="matrix(0.352778,0,0,0.352778,-0.780256,-0.701454)">
            <g
               style="fill:#000000;fill-opacity:1"
               id="g257">
              <g
                 id="g256"
                 transform="translate(1.993,13.754)">
                <path
                   style="stroke:none"
                   d="m 6.28125,-6.53125 2.546875,-3.65625 c 0.265625,-0.375 0.78125,-1.109375 2.1875,-1.125 v -0.453125 c -0.390625,0.04687 -1.046875,0.04687 -1.453125,0.04687 -0.578125,0 -1.28125,0 -1.703125,-0.04687 v 0.453125 c 0.546875,0.04687 0.6875,0.390625 0.6875,0.671875 0,0.203125 -0.09375,0.34375 -0.21875,0.515625 L 6.0625,-6.828125 3.515625,-10.5625 C 3.390625,-10.75 3.375,-10.796875 3.375,-10.84375 3.375,-11 3.5625,-11.296875 4.125,-11.3125 v -0.453125 c -0.546875,0.04687 -1.390625,0.04687 -1.953125,0.04687 -0.453125,0 -1.3125,0 -1.71875,-0.04687 v 0.453125 c 0.9375,0 1.25,0.03125 1.625,0.5625 l 3.328125,4.859375 -3,4.359375 c -0.734375,1.0625 -1.859375,1.078125 -2.1875,1.078125 V 0 c 0.40625,-0.03125 1.0625,-0.03125 1.46875,-0.03125 0.46875,0 1.28125,0 1.703125,0.03125 V -0.453125 C 2.859375,-0.5 2.703125,-0.84375 2.703125,-1.125 c 0,-0.21875 0.09375,-0.34375 0.171875,-0.453125 l 2.75,-4 3,4.375 c 0.140625,0.1875 0.140625,0.234375 0.140625,0.296875 0,0.125 -0.15625,0.421875 -0.765625,0.453125 V 0 c 0.5625,-0.03125 1.40625,-0.03125 1.96875,-0.03125 0.453125,0 1.3125,0 1.71875,0.03125 v -0.453125 c -1.09375,0 -1.265625,-0.078125 -1.609375,-0.5625 z m 0,0"
                   id="path255" />
              </g>
            </g>
          </g>
        </g>
      </g>
      <g
         id="g265"
         transform="translate(-118.06827,46.736215)">
        <rect
           style="fill:none;fill-opacity:0.434037;stroke:#000000;stroke-width:0.264999"
           id="rect260"
           width="8.871088"
           height="8.0501518"
           x="143.73001"
           y="85.861" />
        <g
           inkscape:label=""
           transform="translate(146.14259,87.810748)"
           id="g264">
          <g
             id="g263"
             transform="matrix(0.352778,0,0,0.352778,-0.780256,-0.701454)">
            <g
               style="fill:#000000;fill-opacity:1"
               id="g262">
              <g
                 id="g261"
                 transform="translate(1.993,13.754)">
                <path
                   style="stroke:none"
                   d="m 6.28125,-6.53125 2.546875,-3.65625 c 0.265625,-0.375 0.78125,-1.109375 2.1875,-1.125 v -0.453125 c -0.390625,0.04687 -1.046875,0.04687 -1.453125,0.04687 -0.578125,0 -1.28125,0 -1.703125,-0.04687 v 0.453125 c 0.546875,0.04687 0.6875,0.390625 0.6875,0.671875 0,0.203125 -0.09375,0.34375 -0.21875,0.515625 L 6.0625,-6.828125 3.515625,-10.5625 C 3.390625,-10.75 3.375,-10.796875 3.375,-10.84375 3.375,-11 3.5625,-11.296875 4.125,-11.3125 v -0.453125 c -0.546875,0.04687 -1.390625,0.04687 -1.953125,0.04687 -0.453125,0 -1.3125,0 -1.71875,-0.04687 v 0.453125 c 0.9375,0 1.25,0.03125 1.625,0.5625 l 3.328125,4.859375 -3,4.359375 c -0.734375,1.0625 -1.859375,1.078125 -2.1875,1.078125 V 0 c 0.40625,-0.03125 1.0625,-0.03125 1.46875,-0.03125 0.46875,0 1.28125,0 1.703125,0.03125 V -0.453125 C 2.859375,-0.5 2.703125,-0.84375 2.703125,-1.125 c 0,-0.21875 0.09375,-0.34375 0.171875,-0.453125 l 2.75,-4 3,4.375 c 0.140625,0.1875 0.140625,0.234375 0.140625,0.296875 0,0.125 -0.15625,0.421875 -0.765625,0.453125 V 0 c 0.5625,-0.03125 1.40625,-0.03125 1.96875,-0.03125 0.453125,0 1.3125,0 1.71875,0.03125 v -0.453125 c -1.09375,0 -1.265625,-0.078125 -1.609375,-0.5625 z m 0,0"
                   id="path260" />
              </g>
            </g>
          </g>
        </g>
      </g>
      <g
         id="g270"
         transform="translate(-118.06827,56.790382)">
        <rect
           style="fill:none;fill-opacity:0.434037;stroke:#000000;stroke-width:0.264999"
           id="rect265"
           width="8.871088"
           height="8.0501518"
           x="143.73001"
           y="85.861" />
        <g
           inkscape:label=""
           transform="translate(146.14259,87.810748)"
           id="g269">
          <g
             id="g268"
             transform="matrix(0.352778,0,0,0.352778,-0.780256,-0.701454)">
            <g
               style="fill:#000000;fill-opacity:1"
               id="g267">
              <g
                 id="g266"
                 transform="translate(1.993,13.754)">
                <path
                   style="stroke:none"
                   d="m 6.28125,-6.53125 2.546875,-3.65625 c 0.265625,-0.375 0.78125,-1.109375 2.1875,-1.125 v -0.453125 c -0.390625,0.04687 -1.046875,0.04687 -1.453125,0.04687 -0.578125,0 -1.28125,0 -1.703125,-0.04687 v 0.453125 c 0.546875,0.04687 0.6875,0.390625 0.6875,0.671875 0,0.203125 -0.09375,0.34375 -0.21875,0.515625 L 6.0625,-6.828125 3.515625,-10.5625 C 3.390625,-10.75 3.375,-10.796875 3.375,-10.84375 3.375,-11 3.5625,-11.296875 4.125,-11.3125 v -0.453125 c -0.546875,0.04687 -1.390625,0.04687 -1.953125,0.04687 -0.453125,0 -1.3125,0 -1.71875,-0.04687 v 0.453125 c 0.9375,0 1.25,0.03125 1.625,0.5625 l 3.328125,4.859375 -3,4.359375 c -0.734375,1.0625 -1.859375,1.078125 -2.1875,1.078125 V 0 c 0.40625,-0.03125 1.0625,-0.03125 1.46875,-0.03125 0.46875,0 1.28125,0 1.703125,0.03125 V -0.453125 C 2.859375,-0.5 2.703125,-0.84375 2.703125,-1.125 c 0,-0.21875 0.09375,-0.34375 0.171875,-0.453125 l 2.75,-4 3,4.375 c 0.140625,0.1875 0.140625,0.234375 0.140625,0.296875 0,0.125 -0.15625,0.421875 -0.765625,0.453125 V 0 c 0.5625,-0.03125 1.40625,-0.03125 1.96875,-0.03125 0.453125,0 1.3125,0 1.71875,0.03125 v -0.453125 c -1.09375,0 -1.265625,-0.078125 -1.609375,-0.5625 z m 0,0"
                   id="path265" />
              </g>
            </g>
          </g>
        </g>
      </g>
      <g
         id="g275"
         transform="translate(-118.06827,75.840394)">
        <rect
           style="fill:none;fill-opacity:0.434037;stroke:#000000;stroke-width:0.264999"
           id="rect270"
           width="8.871088"
           height="8.0501518"
           x="143.73001"
           y="85.861" />
        <g
           inkscape:label=""
           transform="translate(146.14259,87.810748)"
           id="g274">
          <g
             id="g273"
             transform="matrix(0.352778,0,0,0.352778,-0.780256,-0.701454)">
            <g
               style="fill:#000000;fill-opacity:1"
               id="g272">
              <g
                 id="g271"
                 transform="translate(1.993,13.754)">
                <path
                   style="stroke:none"
                   d="m 6.28125,-6.53125 2.546875,-3.65625 c 0.265625,-0.375 0.78125,-1.109375 2.1875,-1.125 v -0.453125 c -0.390625,0.04687 -1.046875,0.04687 -1.453125,0.04687 -0.578125,0 -1.28125,0 -1.703125,-0.04687 v 0.453125 c 0.546875,0.04687 0.6875,0.390625 0.6875,0.671875 0,0.203125 -0.09375,0.34375 -0.21875,0.515625 L 6.0625,-6.828125 3.515625,-10.5625 C 3.390625,-10.75 3.375,-10.796875 3.375,-10.84375 3.375,-11 3.5625,-11.296875 4.125,-11.3125 v -0.453125 c -0.546875,0.04687 -1.390625,0.04687 -1.953125,0.04687 -0.453125,0 -1.3125,0 -1.71875,-0.04687 v 0.453125 c 0.9375,0 1.25,0.03125 1.625,0.5625 l 3.328125,4.859375 -3,4.359375 c -0.734375,1.0625 -1.859375,1.078125 -2.1875,1.078125 V 0 c 0.40625,-0.03125 1.0625,-0.03125 1.46875,-0.03125 0.46875,0 1.28125,0 1.703125,0.03125 V -0.453125 C 2.859375,-0.5 2.703125,-0.84375 2.703125,-1.125 c 0,-0.21875 0.09375,-0.34375 0.171875,-0.453125 l 2.75,-4 3,4.375 c 0.140625,0.1875 0.140625,0.234375 0.140625,0.296875 0,0.125 -0.15625,0.421875 -0.765625,0.453125 V 0 c 0.5625,-0.03125 1.40625,-0.03125 1.96875,-0.03125 0.453125,0 1.3125,0 1.71875,0.03125 v -0.453125 c -1.09375,0 -1.265625,-0.078125 -1.609375,-0.5625 z m 0,0"
                   id="path270" />
              </g>
            </g>
          </g>
        </g>
      </g>
      <g
         id="g280"
         transform="translate(-118.06827,85.894567)">
        <rect
           style="fill:none;fill-opacity:0.434037;stroke:#000000;stroke-width:0.264999"
           id="rect275"
           width="8.871088"
           height="8.0501518"
           x="143.73001"
           y="85.861" />
        <g
           inkscape:label=""
           transform="translate(146.14259,87.810748)"
           id="g279">
          <g
             id="g278"
             transform="matrix(0.352778,0,0,0.352778,-0.780256,-0.701454)">
            <g
               style="fill:#000000;fill-opacity:1"
               id="g277">
              <g
                 id="g276"
                 transform="translate(1.993,13.754)">
                <path
                   style="stroke:none"
                   d="m 6.28125,-6.53125 2.546875,-3.65625 c 0.265625,-0.375 0.78125,-1.109375 2.1875,-1.125 v -0.453125 c -0.390625,0.04687 -1.046875,0.04687 -1.453125,0.04687 -0.578125,0 -1.28125,0 -1.703125,-0.04687 v 0.453125 c 0.546875,0.04687 0.6875,0.390625 0.6875,0.671875 0,0.203125 -0.09375,0.34375 -0.21875,0.515625 L 6.0625,-6.828125 3.515625,-10.5625 C 3.390625,-10.75 3.375,-10.796875 3.375,-10.84375 3.375,-11 3.5625,-11.296875 4.125,-11.3125 v -0.453125 c -0.546875,0.04687 -1.390625,0.04687 -1.953125,0.04687 -0.453125,0 -1.3125,0 -1.71875,-0.04687 v 0.453125 c 0.9375,0 1.25,0.03125 1.625,0.5625 l 3.328125,4.859375 -3,4.359375 c -0.734375,1.0625 -1.859375,1.078125 -2.1875,1.078125 V 0 c 0.40625,-0.03125 1.0625,-0.03125 1.46875,-0.03125 0.46875,0 1.28125,0 1.703125,0.03125 V -0.453125 C 2.859375,-0.5 2.703125,-0.84375 2.703125,-1.125 c 0,-0.21875 0.09375,-0.34375 0.171875,-0.453125 l 2.75,-4 3,4.375 c 0.140625,0.1875 0.140625,0.234375 0.140625,0.296875 0,0.125 -0.15625,0.421875 -0.765625,0.453125 V 0 c 0.5625,-0.03125 1.40625,-0.03125 1.96875,-0.03125 0.453125,0 1.3125,0 1.71875,0.03125 v -0.453125 c -1.09375,0 -1.265625,-0.078125 -1.609375,-0.5625 z m 0,0"
                   id="path275" />
              </g>
            </g>
          </g>
        </g>
      </g>
      <path
         style="fill:none;stroke:#000000;stroke-width:0.465;stroke-linecap:butt;stroke-linejoin:miter;stroke-dasharray:0.465, 1.395;stroke-dashoffset:0;stroke-opacity:1"
         d="m 73.651657,44.207988 v 6.344547"
         id="path280"
         inkscape:path-effect="#path-effect299"
         inkscape:original-d="m 73.651657,44.207988 c 0,2.147845 0,4.229698 0,6.344547"
         transform="translate(-12.764052,108.64874)" />
      <path
         style="fill:none;stroke:#000000;stroke-width:0.465;stroke-linecap:butt;stroke-linejoin:miter;stroke-dasharray:0.465, 1.395;stroke-dashoffset:0;stroke-opacity:1"
         d="m 73.651657,44.207988 v 6.344547"
         id="path281"
         inkscape:path-effect="#path-effect301"
         inkscape:original-d="m 73.651657,44.207988 c 0,2.147845 0,4.229698 0,6.344547"
         transform="translate(-43.455737,108.64874)" />
      <g
         id="g305"
         transform="translate(-74.676585,85.894567)">
        <rect
           style="fill:none;fill-opacity:0.434037;stroke:#000000;stroke-width:0.264999"
           id="rect301"
           width="8.871088"
           height="8.0501518"
           x="143.73001"
           y="85.861" />
        <g
           inkscape:label=""
           transform="translate(146.14259,87.810748)"
           id="g304">
          <g
             id="g303"
             transform="matrix(0.352778,0,0,0.352778,-0.780256,-0.701454)">
            <g
               style="fill:#000000;fill-opacity:1"
               id="g302">
              <g
                 id="g301"
                 transform="translate(1.993,13.754)">
                <path
                   style="stroke:none"
                   d="m 6.28125,-6.53125 2.546875,-3.65625 c 0.265625,-0.375 0.78125,-1.109375 2.1875,-1.125 v -0.453125 c -0.390625,0.04687 -1.046875,0.04687 -1.453125,0.04687 -0.578125,0 -1.28125,0 -1.703125,-0.04687 v 0.453125 c 0.546875,0.04687 0.6875,0.390625 0.6875,0.671875 0,0.203125 -0.09375,0.34375 -0.21875,0.515625 L 6.0625,-6.828125 3.515625,-10.5625 C 3.390625,-10.75 3.375,-10.796875 3.375,-10.84375 3.375,-11 3.5625,-11.296875 4.125,-11.3125 v -0.453125 c -0.546875,0.04687 -1.390625,0.04687 -1.953125,0.04687 -0.453125,0 -1.3125,0 -1.71875,-0.04687 v 0.453125 c 0.9375,0 1.25,0.03125 1.625,0.5625 l 3.328125,4.859375 -3,4.359375 c -0.734375,1.0625 -1.859375,1.078125 -2.1875,1.078125 V 0 c 0.40625,-0.03125 1.0625,-0.03125 1.46875,-0.03125 0.46875,0 1.28125,0 1.703125,0.03125 V -0.453125 C 2.859375,-0.5 2.703125,-0.84375 2.703125,-1.125 c 0,-0.21875 0.09375,-0.34375 0.171875,-0.453125 l 2.75,-4 3,4.375 c 0.140625,0.1875 0.140625,0.234375 0.140625,0.296875 0,0.125 -0.15625,0.421875 -0.765625,0.453125 V 0 c 0.5625,-0.03125 1.40625,-0.03125 1.96875,-0.03125 0.453125,0 1.3125,0 1.71875,0.03125 v -0.453125 c -1.09375,0 -1.265625,-0.078125 -1.609375,-0.5625 z m 0,0"
                   id="path301" />
              </g>
            </g>
          </g>
        </g>
      </g>
      <g
         id="g311"
         transform="translate(27.35326,45.859647)">
        <rect
           style="fill:none;fill-opacity:0.434037;stroke:#000000;stroke-width:0.264999"
           id="rect306"
           width="8.871088"
           height="8.0501518"
           x="54.400387"
           y="125.89592" />
        <g
           inkscape:label=""
           transform="translate(57.602116,127.8997)"
           id="g310">
          <g
             id="g309"
             transform="matrix(0.352778,0,0,0.352778,-0.984206,-0.701454)">
            <g
               style="fill:#000000;fill-opacity:1"
               id="g308">
              <g
                 id="g307"
                 transform="translate(1.993,13.754)">
                <path
                   style="stroke:none"
                   d="M 8.890625,-11.421875 C 8.890625,-11.75 8.875,-11.765625 8.5,-11.765625 H 1.1875 l -0.171875,3.8125 h 0.3125 c 0.09375,-1.96875 0.625,-3.359375 3.40625,-3.359375 h 2.84375 L 0.90625,-0.546875 C 0.796875,-0.359375 0.796875,-0.34375 0.796875,-0.21875 0.796875,0 0.828125,0 1.171875,0 h 7.5625 L 8.96875,-4.5 H 8.65625 C 8.5,-2.234375 8.390625,-0.484375 5.09375,-0.484375 h -3 z m 0,0"
                   id="path306" />
              </g>
            </g>
          </g>
        </g>
      </g>
      <path
         style="fill:none;stroke:#000000;stroke-width:0.264583px;stroke-linecap:butt;stroke-linejoin:miter;stroke-opacity:1"
         d="m 78.650366,169.30393 h 3.79017"
         id="path311"
         inkscape:path-effect="#path-effect311"
         inkscape:original-d="m 78.650366,169.30393 h 3.79017"
         sodipodi:nodetypes="cc"
         transform="translate(-13.392593,6.7012948)" />
      <path
         style="fill:none;stroke:#000000;stroke-width:0.264583px;stroke-linecap:butt;stroke-linejoin:miter;stroke-opacity:1"
         d="m 78.650366,169.30393 h 3.79017"
         id="path312"
         inkscape:path-effect="#path-effect315"
         inkscape:original-d="m 78.650366,169.30393 h 3.79017"
         sodipodi:nodetypes="cc"
         transform="translate(-0.69259138,6.7012948)" />
      <g
         id="g324"
         transform="translate(-49.276569,85.894567)">
        <rect
           style="fill:none;fill-opacity:0.434037;stroke:#000000;stroke-width:0.264999"
           id="rect315"
           width="8.871088"
           height="8.0501518"
           x="143.73001"
           y="85.861" />
        <g
           inkscape:label=""
           transform="translate(146.14259,87.810748)"
           id="g323">
          <g
             id="g322"
             transform="matrix(0.352778,0,0,0.352778,-0.780256,-0.701454)">
            <g
               style="fill:#000000;fill-opacity:1"
               id="g321">
              <g
                 id="g315"
                 transform="translate(1.993,13.754)">
                <path
                   style="stroke:none"
                   d="m 6.28125,-6.53125 2.546875,-3.65625 c 0.265625,-0.375 0.78125,-1.109375 2.1875,-1.125 v -0.453125 c -0.390625,0.04687 -1.046875,0.04687 -1.453125,0.04687 -0.578125,0 -1.28125,0 -1.703125,-0.04687 v 0.453125 c 0.546875,0.04687 0.6875,0.390625 0.6875,0.671875 0,0.203125 -0.09375,0.34375 -0.21875,0.515625 L 6.0625,-6.828125 3.515625,-10.5625 C 3.390625,-10.75 3.375,-10.796875 3.375,-10.84375 3.375,-11 3.5625,-11.296875 4.125,-11.3125 v -0.453125 c -0.546875,0.04687 -1.390625,0.04687 -1.953125,0.04687 -0.453125,0 -1.3125,0 -1.71875,-0.04687 v 0.453125 c 0.9375,0 1.25,0.03125 1.625,0.5625 l 3.328125,4.859375 -3,4.359375 c -0.734375,1.0625 -1.859375,1.078125 -2.1875,1.078125 V 0 c 0.40625,-0.03125 1.0625,-0.03125 1.46875,-0.03125 0.46875,0 1.28125,0 1.703125,0.03125 V -0.453125 C 2.859375,-0.5 2.703125,-0.84375 2.703125,-1.125 c 0,-0.21875 0.09375,-0.34375 0.171875,-0.453125 l 2.75,-4 3,4.375 c 0.140625,0.1875 0.140625,0.234375 0.140625,0.296875 0,0.125 -0.15625,0.421875 -0.765625,0.453125 V 0 c 0.5625,-0.03125 1.40625,-0.03125 1.96875,-0.03125 0.453125,0 1.3125,0 1.71875,0.03125 v -0.453125 c -1.09375,0 -1.265625,-0.078125 -1.609375,-0.5625 z m 0,0"
                   id="path315" />
              </g>
            </g>
          </g>
        </g>
      </g>
      <g
         id="g329"
         transform="translate(52.753276,45.859647)">
        <rect
           style="fill:none;fill-opacity:0.434037;stroke:#000000;stroke-width:0.264999"
           id="rect324"
           width="8.871088"
           height="8.0501518"
           x="54.400387"
           y="125.89592" />
        <g
           inkscape:label=""
           transform="translate(57.602116,127.8997)"
           id="g328">
          <g
             id="g327"
             transform="matrix(0.352778,0,0,0.352778,-0.984206,-0.701454)">
            <g
               style="fill:#000000;fill-opacity:1"
               id="g326">
              <g
                 id="g325"
                 transform="translate(1.993,13.754)">
                <path
                   style="stroke:none"
                   d="M 8.890625,-11.421875 C 8.890625,-11.75 8.875,-11.765625 8.5,-11.765625 H 1.1875 l -0.171875,3.8125 h 0.3125 c 0.09375,-1.96875 0.625,-3.359375 3.40625,-3.359375 h 2.84375 L 0.90625,-0.546875 C 0.796875,-0.359375 0.796875,-0.34375 0.796875,-0.21875 0.796875,0 0.828125,0 1.171875,0 h 7.5625 L 8.96875,-4.5 H 8.65625 C 8.5,-2.234375 8.390625,-0.484375 5.09375,-0.484375 h -3 z m 0,0"
                   id="path324" />
              </g>
            </g>
          </g>
        </g>
      </g>
      <path
         style="fill:none;stroke:#000000;stroke-width:0.264583px;stroke-linecap:butt;stroke-linejoin:miter;stroke-opacity:1"
         d="m 78.650366,169.30393 h 3.79017"
         id="path329"
         inkscape:path-effect="#path-effect331"
         inkscape:original-d="m 78.650366,169.30393 h 3.79017"
         sodipodi:nodetypes="cc"
         transform="translate(12.007417,6.7012948)" />
      <path
         style="fill:none;stroke:#000000;stroke-width:0.264583px;stroke-linecap:butt;stroke-linejoin:miter;stroke-opacity:1"
         d="m 78.650366,169.30393 h 3.79017"
         id="path330"
         inkscape:path-effect="#path-effect333"
         inkscape:original-d="m 78.650366,169.30393 h 3.79017"
         sodipodi:nodetypes="cc"
         transform="translate(24.707425,6.7012948)" />
    </g>
  </g>
</svg>
