<?xml version="1.0" encoding="UTF-8" standalone="no"?>
<!-- Created with Inkscape (http://www.inkscape.org/) -->

<svg
   width="94.830833mm"
   height="33.875305mm"
   viewBox="0 0 94.830833 33.875305"
   version="1.1"
   id="svg1"
   inkscape:version="1.3 (1:1.3+202307231459+0e150ed6c4)"
   sodipodi:docname="Uf.svg"
   xmlns:inkscape="http://www.inkscape.org/namespaces/inkscape"
   xmlns:sodipodi="http://sodipodi.sourceforge.net/DTD/sodipodi-0.dtd"
   xmlns="http://www.w3.org/2000/svg"
   xmlns:svg="http://www.w3.org/2000/svg">
  <sodipodi:namedview
     id="namedview1"
     pagecolor="#ffffff"
     bordercolor="#666666"
     borderopacity="1.0"
     inkscape:showpageshadow="2"
     inkscape:pageopacity="0.0"
     inkscape:pagecheckerboard="0"
     inkscape:deskcolor="#d1d1d1"
     inkscape:document-units="mm"
     inkscape:zoom="2"
     inkscape:cx="388.5"
     inkscape:cy="896.5"
     inkscape:window-width="1920"
     inkscape:window-height="1016"
     inkscape:window-x="0"
     inkscape:window-y="27"
     inkscape:window-maximized="1"
     inkscape:current-layer="layer1"
     showgrid="false" />
  <defs
     id="defs1">
    <inkscape:path-effect
       effect="spiro"
       id="path-effect783"
       is_visible="true"
       lpeversion="1" />
    <inkscape:path-effect
       effect="spiro"
       id="path-effect778"
       is_visible="true"
       lpeversion="1" />
    <inkscape:path-effect
       effect="spiro"
       id="path-effect746"
       is_visible="true"
       lpeversion="1" />
    <inkscape:path-effect
       effect="spiro"
       id="path-effect744"
       is_visible="true"
       lpeversion="1" />
    <inkscape:path-effect
       effect="spiro"
       id="path-effect740"
       is_visible="true"
       lpeversion="1" />
    <inkscape:path-effect
       effect="spiro"
       id="path-effect737"
       is_visible="true"
       lpeversion="1" />
    <inkscape:path-effect
       effect="spiro"
       id="path-effect733"
       is_visible="true"
       lpeversion="1" />
    <inkscape:path-effect
       effect="spiro"
       id="path-effect730"
       is_visible="true"
       lpeversion="1" />
    <inkscape:path-effect
       effect="spiro"
       id="path-effect728"
       is_visible="true"
       lpeversion="1" />
    <inkscape:path-effect
       effect="spiro"
       id="path-effect726"
       is_visible="true"
       lpeversion="1" />
    <inkscape:path-effect
       effect="spiro"
       id="path-effect724"
       is_visible="true"
       lpeversion="1" />
    <inkscape:path-effect
       effect="spiro"
       id="path-effect722"
       is_visible="true"
       lpeversion="1" />
    <inkscape:path-effect
       effect="spiro"
       id="path-effect720"
       is_visible="true"
       lpeversion="1" />
    <inkscape:path-effect
       effect="spiro"
       id="path-effect716"
       is_visible="true"
       lpeversion="1" />
    <inkscape:path-effect
       effect="spiro"
       id="path-effect712"
       is_visible="true"
       lpeversion="1" />
    <inkscape:path-effect
       effect="spiro"
       id="path-effect708"
       is_visible="true"
       lpeversion="1" />
    <marker
       style="overflow:visible"
       id="DartArrow"
       refX="0"
       refY="0"
       orient="auto-start-reverse"
       inkscape:stockid="Dart arrow"
       markerWidth="1"
       markerHeight="1"
       viewBox="0 0 1 1"
       inkscape:isstock="true"
       inkscape:collect="always"
       preserveAspectRatio="xMidYMid">
      <path
         style="fill:context-stroke;fill-rule:evenodd;stroke:none"
         d="M 0,0 5,-5 -12.5,0 5,5 Z"
         transform="scale(-0.5)"
         id="path325" />
    </marker>
  </defs>
  <g
     inkscape:label="Capa 1"
     inkscape:groupmode="layer"
     id="layer1"
     transform="translate(-39.178601,-197.49696)">
    <g
       id="g963">
      <rect
         style="fill:none;fill-opacity:0.434037;stroke:#000000;stroke-width:0.264999"
         id="rect5"
         width="31.495415"
         height="27.605169"
         x="81.977554"
         y="197.62946" />
      <g
         inkscape:label=""
         transform="matrix(2.0291859,0,0,2.0291859,94.085888,208.81181)"
         id="g224">
        <g
           id="g223"
           transform="matrix(0.352778,0,0,0.352778,-0.940109,-0.701146)">
          <g
             style="fill:#000000;fill-opacity:1"
             id="g220">
            <g
               id="g219"
               transform="translate(1.993,8.8000002)">
              <path
                 style="stroke:none"
                 d="M 6.328125,-5.765625 C 6.4375,-6.171875 6.609375,-6.46875 7.40625,-6.5 c 0.046875,0 0.171875,-0.015625 0.171875,-0.203125 0,0 0,-0.109375 -0.125,-0.109375 -0.328125,0 -0.6875,0.03125 -1.015625,0.03125 -0.34375,0 -0.71875,-0.03125 -1.046875,-0.03125 -0.0625,0 -0.171875,0 -0.171875,0.203125 C 5.21875,-6.5 5.3125,-6.5 5.390625,-6.5 c 0.578125,0.015625 0.6875,0.21875 0.6875,0.4375 0,0.03125 -0.03125,0.1875 -0.03125,0.203125 l -0.90625,3.5625 C 4.8125,-0.953125 3.65625,-0.09375 2.65625,-0.09375 c -0.671875,0 -1.203125,-0.4375 -1.203125,-1.296875 0,-0.015625 0,-0.328125 0.109375,-0.765625 L 2.515625,-6.046875 C 2.609375,-6.40625 2.625,-6.5 3.359375,-6.5 c 0.265625,0 0.34375,0 0.34375,-0.203125 0,-0.109375 -0.109375,-0.109375 -0.140625,-0.109375 -0.28125,0 -1,0.03125 -1.28125,0.03125 -0.28125,0 -1,-0.03125 -1.28125,-0.03125 -0.078125,0 -0.1875,0 -0.1875,0.203125 C 0.8125,-6.5 0.890625,-6.5 1.09375,-6.5 c 0.015625,0 0.203125,0 0.375,0.015625 0.171875,0.03125 0.265625,0.03125 0.265625,0.171875 0,0.046875 -0.109375,0.46875 -0.171875,0.703125 l -0.21875,0.875 C 1.25,-4.34375 0.78125,-2.46875 0.734375,-2.265625 0.671875,-2 0.671875,-1.84375 0.671875,-1.6875 c 0,1.203125 0.90625,1.90625 1.953125,1.90625 1.25,0 2.484375,-1.125 2.8125,-2.4375 z m 0,0"
                 id="path15" />
            </g>
          </g>
          <g
             style="fill:#000000;fill-opacity:1"
             id="g222">
            <g
               id="g221"
               transform="translate(8.7950001,10.294)">
              <path
                 style="stroke:none"
                 d="M 2.84375,-2.75 H 3.515625 C 3.65625,-2.75 3.75,-2.75 3.75,-2.90625 3.75,-3 3.65625,-3 3.53125,-3 H 2.890625 c 0.15625,-0.890625 0.203125,-1.203125 0.265625,-1.40625 0.03125,-0.15625 0.1875,-0.296875 0.359375,-0.296875 0,0 0.1875,0 0.328125,0.078125 -0.296875,0.09375 -0.3125,0.34375 -0.3125,0.375 0,0.15625 0.125,0.265625 0.28125,0.265625 0.1875,0 0.390625,-0.15625 0.390625,-0.421875 0,-0.328125 -0.328125,-0.5 -0.6875,-0.5 -0.3125,0 -0.65625,0.171875 -0.84375,0.515625 C 2.53125,-4.125 2.484375,-3.8125 2.328125,-3 H 1.78125 c -0.140625,0 -0.234375,0 -0.234375,0.15625 0,0.09375 0.09375,0.09375 0.21875,0.09375 H 2.28125 c 0,0.046875 -0.4375,2.546875 -0.609375,3.296875 -0.03125,0.15625 -0.15625,0.671875 -0.484375,0.671875 -0.015625,0 -0.171875,0 -0.3125,-0.078125 0.28125,-0.09375 0.3125,-0.34375 0.3125,-0.375 C 1.1875,0.609375 1.0625,0.5 0.90625,0.5 c -0.1875,0 -0.390625,0.15625 -0.390625,0.421875 0,0.3125 0.328125,0.5 0.671875,0.5 0.4375,0 0.75,-0.453125 0.828125,-0.609375 0.25,-0.46875 0.421875,-1.328125 0.4375,-1.40625 z m 0,0"
                 id="path220" />
            </g>
          </g>
        </g>
      </g>
      <g
         inkscape:label=""
         transform="translate(95.340514,217.84316)"
         id="g279">
        <g
           id="g278"
           transform="matrix(0.352778,0,0,0.352778,-1.20469,-0.702116)">
          <g
             style="fill:#000000;fill-opacity:1"
             id="g226">
            <g
               id="g225"
               transform="translate(1.993,10.959)">
              <path
                 style="stroke:none"
                 d="m 1.90625,-8.53125 c 0,-0.21875 0,-0.4375 -0.25,-0.4375 -0.234375,0 -0.234375,0.21875 -0.234375,0.4375 V 2.5625 c 0,0.203125 0,0.421875 0.234375,0.421875 0.25,0 0.25,-0.21875 0.25,-0.421875 z m 0,0"
                 id="path224" />
            </g>
          </g>
          <g
             style="fill:#000000;fill-opacity:1"
             id="g265">
            <g
               id="g264"
               transform="translate(5.3130002,10.959)">
              <path
                 style="stroke:none"
                 d="m 3.140625,1.34375 c -0.3125,0.453125 -0.78125,0.859375 -1.375,0.859375 C 1.625,2.203125 1.046875,2.171875 0.875,1.625 c 0.03125,0.015625 0.09375,0.015625 0.109375,0.015625 0.359375,0 0.609375,-0.3125 0.609375,-0.59375 C 1.59375,0.78125 1.359375,0.6875 1.1875,0.6875 c -0.203125,0 -0.609375,0.140625 -0.609375,0.71875 0,0.609375 0.515625,1.03125 1.1875,1.03125 C 2.96875,2.4375 4.171875,1.34375 4.5,0.015625 L 5.671875,-4.65625 C 5.6875,-4.703125 5.71875,-4.78125 5.71875,-4.859375 5.71875,-5.03125 5.5625,-5.15625 5.390625,-5.15625 5.28125,-5.15625 5.03125,-5.109375 4.9375,-4.75 L 4.046875,-1.234375 C 4,-1.015625 4,-0.984375 3.890625,-0.859375 3.65625,-0.53125 3.265625,-0.125 2.6875,-0.125 c -0.671875,0 -0.734375,-0.65625 -0.734375,-0.96875 0,-0.6875 0.328125,-1.609375 0.65625,-2.46875 0.125,-0.34375 0.203125,-0.515625 0.203125,-0.75 0,-0.5 -0.359375,-0.953125 -0.953125,-0.953125 -1.09375,0 -1.53125,1.734375 -1.53125,1.828125 0,0.046875 0.046875,0.109375 0.125,0.109375 0.109375,0 0.125,-0.046875 0.171875,-0.21875 0.28125,-1 0.734375,-1.484375 1.203125,-1.484375 0.109375,0 0.3125,0 0.3125,0.390625 0,0.3125 -0.125,0.65625 -0.3125,1.109375 C 1.25,-1.953125 1.25,-1.5625 1.25,-1.28125 1.25,-0.140625 2.0625,0.125 2.65625,0.125 3,0.125 3.4375,0.015625 3.84375,-0.4375 l 0.015625,0.015625 C 3.6875,0.28125 3.5625,0.75 3.140625,1.34375 Z m 0,0"
                 id="path227" />
            </g>
          </g>
          <g
             style="fill:#000000;fill-opacity:1"
             id="g267">
            <g
               id="g266"
               transform="translate(14.107,10.959)">
              <path
                 style="stroke:none"
                 d="m 8.625,-2.984375 c 0,-2.203125 -1.78125,-3.984375 -3.96875,-3.984375 -2.234375,0 -4,1.8125 -4,3.984375 0,2.203125 1.796875,3.96875 3.984375,3.96875 2.21875,0 3.984375,-1.796875 3.984375,-3.96875 z M 0.953125,-3.140625 C 1.078125,-5.15625 2.625,-6.578125 4.5,-6.671875 v 3.53125 z m 3.84375,-3.53125 c 1.875,0.09375 3.421875,1.53125 3.53125,3.53125 H 4.796875 Z M 4.5,0.6875 C 2.640625,0.59375 1.078125,-0.796875 0.953125,-2.84375 H 4.5 Z m 3.828125,-3.53125 c -0.109375,2.046875 -1.6875,3.4375 -3.53125,3.53125 v -3.53125 z m 0,0"
                 id="path265" />
            </g>
          </g>
          <g
             style="fill:#000000;fill-opacity:1"
             id="g269">
            <g
               id="g268"
               transform="translate(26.062,10.959)">
              <path
                 style="stroke:none"
                 d="m 5.328125,-4.8125 c 0.234375,0 0.34375,0 0.34375,-0.21875 0,-0.125 -0.109375,-0.125 -0.3125,-0.125 H 4.390625 C 4.609375,-6.390625 4.78125,-7.234375 4.875,-7.609375 c 0.078125,-0.296875 0.328125,-0.5625 0.640625,-0.5625 0.25,0 0.5,0.109375 0.609375,0.21875 -0.453125,0.046875 -0.609375,0.390625 -0.609375,0.59375 0,0.234375 0.1875,0.375 0.40625,0.375 0.25,0 0.609375,-0.203125 0.609375,-0.65625 0,-0.5 -0.5,-0.78125 -1.03125,-0.78125 -0.515625,0 -1.015625,0.390625 -1.25,0.859375 -0.21875,0.421875 -0.34375,0.84375 -0.609375,2.40625 h -0.8125 c -0.21875,0 -0.34375,0 -0.34375,0.21875 0,0.125 0.078125,0.125 0.3125,0.125 H 3.5625 C 3.34375,-3.6875 2.859375,-0.984375 2.578125,0.28125 2.375,1.328125 2.203125,2.203125 1.609375,2.203125 1.5625,2.203125 1.21875,2.203125 1,1.96875 1.609375,1.921875 1.609375,1.40625 1.609375,1.390625 1.609375,1.140625 1.4375,1 1.203125,1 0.96875,1 0.609375,1.203125 0.609375,1.65625 c 0,0.515625 0.53125,0.78125 1,0.78125 1.21875,0 1.71875,-2.1875 1.84375,-2.78125 C 3.671875,-1.265625 4.25,-4.453125 4.3125,-4.8125 Z m 0,0"
                 id="path267" />
            </g>
          </g>
          <g
             style="fill:#000000;fill-opacity:1"
             id="g271">
            <g
               id="g270"
               transform="translate(33.108002,10.959)">
              <path
                 style="stroke:none"
                 d="m 3.890625,2.90625 c 0,-0.03125 0,-0.0625 -0.203125,-0.265625 C 2.484375,1.4375 1.8125,-0.53125 1.8125,-2.96875 c 0,-2.328125 0.5625,-4.328125 1.953125,-5.734375 0.125,-0.109375 0.125,-0.125 0.125,-0.171875 0,-0.0625 -0.0625,-0.09375 -0.109375,-0.09375 -0.15625,0 -1.140625,0.859375 -1.71875,2.03125 -0.609375,1.21875 -0.890625,2.484375 -0.890625,3.96875 0,1.0625 0.171875,2.484375 0.78125,3.75 C 2.671875,2.21875 3.640625,3 3.78125,3 3.828125,3 3.890625,2.96875 3.890625,2.90625 Z m 0,0"
                 id="path269" />
            </g>
          </g>
          <g
             style="fill:#000000;fill-opacity:1"
             id="g273">
            <g
               id="g272"
               transform="translate(37.660999,10.959)">
              <path
                 style="stroke:none"
                 d="m 5.671875,-4.875 c -0.390625,0.0625 -0.53125,0.359375 -0.53125,0.578125 0,0.296875 0.21875,0.390625 0.390625,0.390625 0.359375,0 0.609375,-0.3125 0.609375,-0.640625 0,-0.5 -0.578125,-0.71875 -1.078125,-0.71875 -0.71875,0 -1.125,0.71875 -1.234375,0.9375 -0.28125,-0.890625 -1.015625,-0.9375 -1.234375,-0.9375 -1.21875,0 -1.859375,1.5625 -1.859375,1.828125 0,0.046875 0.046875,0.109375 0.125,0.109375 0.09375,0 0.125,-0.078125 0.140625,-0.125 0.40625,-1.328125 1.21875,-1.578125 1.5625,-1.578125 0.53125,0 0.640625,0.5 0.640625,0.78125 0,0.265625 -0.078125,0.546875 -0.21875,1.125 L 2.578125,-1.5 c -0.171875,0.71875 -0.515625,1.375 -1.15625,1.375 -0.0625,0 -0.359375,0 -0.609375,-0.15625 C 1.25,-0.359375 1.34375,-0.71875 1.34375,-0.859375 1.34375,-1.09375 1.15625,-1.25 0.9375,-1.25 c -0.296875,0 -0.609375,0.265625 -0.609375,0.640625 0,0.5 0.5625,0.734375 1.078125,0.734375 0.578125,0 0.984375,-0.453125 1.234375,-0.953125 C 2.828125,-0.125 3.4375,0.125 3.875,0.125 5.09375,0.125 5.734375,-1.453125 5.734375,-1.703125 5.734375,-1.765625 5.6875,-1.8125 5.625,-1.8125 5.515625,-1.8125 5.5,-1.75 5.46875,-1.65625 5.140625,-0.609375 4.453125,-0.125 3.90625,-0.125 3.484375,-0.125 3.265625,-0.4375 3.265625,-0.921875 3.265625,-1.1875 3.3125,-1.375 3.5,-2.15625 L 3.921875,-3.796875 C 4.09375,-4.5 4.5,-5.03125 5.0625,-5.03125 c 0.015625,0 0.359375,0 0.609375,0.15625 z m 0,0"
                 id="path271" />
            </g>
          </g>
          <g
             style="fill:#000000;fill-opacity:1"
             id="g275">
            <g
               id="g274"
               transform="translate(44.313,10.959)">
              <path
                 style="stroke:none"
                 d="M 3.375,-2.96875 C 3.375,-3.890625 3.25,-5.359375 2.578125,-6.75 1.875,-8.1875 0.890625,-8.96875 0.765625,-8.96875 c -0.046875,0 -0.109375,0.03125 -0.109375,0.09375 0,0.046875 0,0.0625 0.203125,0.265625 1.203125,1.203125 1.859375,3.1875 1.859375,5.625 0,2.3125 -0.5625,4.3125 -1.9375,5.71875 C 0.65625,2.84375 0.65625,2.875 0.65625,2.90625 0.65625,2.96875 0.71875,3 0.765625,3 0.921875,3 1.90625,2.140625 2.484375,0.96875 3.09375,-0.25 3.375,-1.546875 3.375,-2.96875 Z m 0,0"
                 id="path273" />
            </g>
          </g>
          <g
             style="fill:#000000;fill-opacity:1"
             id="g277">
            <g
               id="g276"
               transform="translate(48.865002,10.959)">
              <path
                 style="stroke:none"
                 d="m 3.265625,-2.78125 c 0.0625,-0.140625 0.0625,-0.171875 0.0625,-0.203125 0,-0.046875 0,-0.0625 -0.0625,-0.203125 l -2.09375,-5.5 C 1.09375,-8.890625 1.03125,-8.96875 0.890625,-8.96875 c -0.125,0 -0.234375,0.109375 -0.234375,0.25 0,0.03125 0,0.046875 0.0625,0.1875 L 2.828125,-2.984375 0.71875,2.53125 C 0.65625,2.671875 0.65625,2.6875 0.65625,2.75 c 0,0.125 0.109375,0.234375 0.234375,0.234375 0.15625,0 0.203125,-0.109375 0.25,-0.234375 z m 0,0"
                 id="path275" />
            </g>
          </g>
        </g>
      </g>
      <g
         inkscape:label=""
         transform="translate(82.959662,200.90334)"
         id="g331">
        <g
           id="g330"
           transform="matrix(0.352778,0,0,0.352778,-1.20469,-0.702116)">
          <g
             style="fill:#000000;fill-opacity:1"
             id="g281">
            <g
               id="g280"
               transform="translate(1.993,10.959)">
              <path
                 style="stroke:none"
                 d="m 1.90625,-8.53125 c 0,-0.21875 0,-0.4375 -0.25,-0.4375 -0.234375,0 -0.234375,0.21875 -0.234375,0.4375 V 2.5625 c 0,0.203125 0,0.421875 0.234375,0.421875 0.25,0 0.25,-0.21875 0.25,-0.421875 z m 0,0"
                 id="path279" />
            </g>
          </g>
          <g
             style="fill:#000000;fill-opacity:1"
             id="g283">
            <g
               id="g282"
               transform="translate(5.3130002,10.959)">
              <path
                 style="stroke:none"
                 d="m 5.671875,-4.875 c -0.390625,0.0625 -0.53125,0.359375 -0.53125,0.578125 0,0.296875 0.21875,0.390625 0.390625,0.390625 0.359375,0 0.609375,-0.3125 0.609375,-0.640625 0,-0.5 -0.578125,-0.71875 -1.078125,-0.71875 -0.71875,0 -1.125,0.71875 -1.234375,0.9375 -0.28125,-0.890625 -1.015625,-0.9375 -1.234375,-0.9375 -1.21875,0 -1.859375,1.5625 -1.859375,1.828125 0,0.046875 0.046875,0.109375 0.125,0.109375 0.09375,0 0.125,-0.078125 0.140625,-0.125 0.40625,-1.328125 1.21875,-1.578125 1.5625,-1.578125 0.53125,0 0.640625,0.5 0.640625,0.78125 0,0.265625 -0.078125,0.546875 -0.21875,1.125 L 2.578125,-1.5 c -0.171875,0.71875 -0.515625,1.375 -1.15625,1.375 -0.0625,0 -0.359375,0 -0.609375,-0.15625 C 1.25,-0.359375 1.34375,-0.71875 1.34375,-0.859375 1.34375,-1.09375 1.15625,-1.25 0.9375,-1.25 c -0.296875,0 -0.609375,0.265625 -0.609375,0.640625 0,0.5 0.5625,0.734375 1.078125,0.734375 0.578125,0 0.984375,-0.453125 1.234375,-0.953125 C 2.828125,-0.125 3.4375,0.125 3.875,0.125 5.09375,0.125 5.734375,-1.453125 5.734375,-1.703125 5.734375,-1.765625 5.6875,-1.8125 5.625,-1.8125 5.515625,-1.8125 5.5,-1.75 5.46875,-1.65625 5.140625,-0.609375 4.453125,-0.125 3.90625,-0.125 3.484375,-0.125 3.265625,-0.4375 3.265625,-0.921875 3.265625,-1.1875 3.3125,-1.375 3.5,-2.15625 L 3.921875,-3.796875 C 4.09375,-4.5 4.5,-5.03125 5.0625,-5.03125 c 0.015625,0 0.359375,0 0.609375,0.15625 z m 0,0"
                 id="path281" />
            </g>
          </g>
          <g
             style="fill:#000000;fill-opacity:1"
             id="g329">
            <g
               id="g312"
               transform="translate(11.965,10.959)">
              <path
                 style="stroke:none"
                 d="m 3.265625,-2.78125 c 0.0625,-0.140625 0.0625,-0.171875 0.0625,-0.203125 0,-0.046875 0,-0.0625 -0.0625,-0.203125 l -2.09375,-5.5 C 1.09375,-8.890625 1.03125,-8.96875 0.890625,-8.96875 c -0.125,0 -0.234375,0.109375 -0.234375,0.25 0,0.03125 0,0.046875 0.0625,0.1875 L 2.828125,-2.984375 0.71875,2.53125 C 0.65625,2.671875 0.65625,2.6875 0.65625,2.75 c 0,0.125 0.109375,0.234375 0.234375,0.234375 0.15625,0 0.203125,-0.109375 0.25,-0.234375 z m 0,0"
                 id="path284" />
            </g>
          </g>
        </g>
      </g>
      <g
         inkscape:label=""
         transform="translate(108.35802,200.9609)"
         id="g351">
        <g
           id="g350"
           transform="matrix(0.352778,0,0,0.352778,-1.20469,-0.702116)">
          <g
             style="fill:#000000;fill-opacity:1"
             id="g333">
            <g
               id="g332"
               transform="translate(1.993,10.959)">
              <path
                 style="stroke:none"
                 d="m 1.90625,-8.53125 c 0,-0.21875 0,-0.4375 -0.25,-0.4375 -0.234375,0 -0.234375,0.21875 -0.234375,0.4375 V 2.5625 c 0,0.203125 0,0.421875 0.234375,0.421875 0.25,0 0.25,-0.21875 0.25,-0.421875 z m 0,0"
                 id="path331" />
            </g>
          </g>
          <g
             style="fill:#000000;fill-opacity:1"
             id="g345">
            <g
               id="g344"
               transform="translate(5.3130002,10.959)">
              <path
                 style="stroke:none"
                 d="m 5.671875,-4.875 c -0.390625,0.0625 -0.53125,0.359375 -0.53125,0.578125 0,0.296875 0.21875,0.390625 0.390625,0.390625 0.359375,0 0.609375,-0.3125 0.609375,-0.640625 0,-0.5 -0.578125,-0.71875 -1.078125,-0.71875 -0.71875,0 -1.125,0.71875 -1.234375,0.9375 -0.28125,-0.890625 -1.015625,-0.9375 -1.234375,-0.9375 -1.21875,0 -1.859375,1.5625 -1.859375,1.828125 0,0.046875 0.046875,0.109375 0.125,0.109375 0.09375,0 0.125,-0.078125 0.140625,-0.125 0.40625,-1.328125 1.21875,-1.578125 1.5625,-1.578125 0.53125,0 0.640625,0.5 0.640625,0.78125 0,0.265625 -0.078125,0.546875 -0.21875,1.125 L 2.578125,-1.5 c -0.171875,0.71875 -0.515625,1.375 -1.15625,1.375 -0.0625,0 -0.359375,0 -0.609375,-0.15625 C 1.25,-0.359375 1.34375,-0.71875 1.34375,-0.859375 1.34375,-1.09375 1.15625,-1.25 0.9375,-1.25 c -0.296875,0 -0.609375,0.265625 -0.609375,0.640625 0,0.5 0.5625,0.734375 1.078125,0.734375 0.578125,0 0.984375,-0.453125 1.234375,-0.953125 C 2.828125,-0.125 3.4375,0.125 3.875,0.125 5.09375,0.125 5.734375,-1.453125 5.734375,-1.703125 5.734375,-1.765625 5.6875,-1.8125 5.625,-1.8125 5.515625,-1.8125 5.5,-1.75 5.46875,-1.65625 5.140625,-0.609375 4.453125,-0.125 3.90625,-0.125 3.484375,-0.125 3.265625,-0.4375 3.265625,-0.921875 3.265625,-1.1875 3.3125,-1.375 3.5,-2.15625 L 3.921875,-3.796875 C 4.09375,-4.5 4.5,-5.03125 5.0625,-5.03125 c 0.015625,0 0.359375,0 0.609375,0.15625 z m 0,0"
                 id="path334" />
            </g>
          </g>
          <g
             style="fill:#000000;fill-opacity:1"
             id="g349">
            <g
               id="g348"
               transform="translate(11.965,10.959)">
              <path
                 style="stroke:none"
                 d="m 3.265625,-2.78125 c 0.0625,-0.140625 0.0625,-0.171875 0.0625,-0.203125 0,-0.046875 0,-0.0625 -0.0625,-0.203125 l -2.09375,-5.5 C 1.09375,-8.890625 1.03125,-8.96875 0.890625,-8.96875 c -0.125,0 -0.234375,0.109375 -0.234375,0.25 0,0.03125 0,0.046875 0.0625,0.1875 L 2.828125,-2.984375 0.71875,2.53125 C 0.65625,2.671875 0.65625,2.6875 0.65625,2.75 c 0,0.125 0.109375,0.234375 0.234375,0.234375 0.15625,0 0.203125,-0.109375 0.25,-0.234375 z m 0,0"
                 id="path348" />
            </g>
          </g>
        </g>
      </g>
      <g
         inkscape:label=""
         transform="translate(82.959662,217.84591)"
         id="g408">
        <g
           id="g407"
           transform="matrix(0.352778,0,0,0.352778,-1.20469,-0.702116)">
          <g
             style="fill:#000000;fill-opacity:1"
             id="g353">
            <g
               id="g352"
               transform="translate(1.993,10.959)">
              <path
                 style="stroke:none"
                 d="m 1.90625,-8.53125 c 0,-0.21875 0,-0.4375 -0.25,-0.4375 -0.234375,0 -0.234375,0.21875 -0.234375,0.4375 V 2.5625 c 0,0.203125 0,0.421875 0.234375,0.421875 0.25,0 0.25,-0.21875 0.25,-0.421875 z m 0,0"
                 id="path351" />
            </g>
          </g>
          <g
             style="fill:#000000;fill-opacity:1"
             id="g355">
            <g
               id="g354"
               transform="translate(5.3130002,10.959)">
              <path
                 style="stroke:none"
                 d="m 3.140625,1.34375 c -0.3125,0.453125 -0.78125,0.859375 -1.375,0.859375 C 1.625,2.203125 1.046875,2.171875 0.875,1.625 c 0.03125,0.015625 0.09375,0.015625 0.109375,0.015625 0.359375,0 0.609375,-0.3125 0.609375,-0.59375 C 1.59375,0.78125 1.359375,0.6875 1.1875,0.6875 c -0.203125,0 -0.609375,0.140625 -0.609375,0.71875 0,0.609375 0.515625,1.03125 1.1875,1.03125 C 2.96875,2.4375 4.171875,1.34375 4.5,0.015625 L 5.671875,-4.65625 C 5.6875,-4.703125 5.71875,-4.78125 5.71875,-4.859375 5.71875,-5.03125 5.5625,-5.15625 5.390625,-5.15625 5.28125,-5.15625 5.03125,-5.109375 4.9375,-4.75 L 4.046875,-1.234375 C 4,-1.015625 4,-0.984375 3.890625,-0.859375 3.65625,-0.53125 3.265625,-0.125 2.6875,-0.125 c -0.671875,0 -0.734375,-0.65625 -0.734375,-0.96875 0,-0.6875 0.328125,-1.609375 0.65625,-2.46875 0.125,-0.34375 0.203125,-0.515625 0.203125,-0.75 0,-0.5 -0.359375,-0.953125 -0.953125,-0.953125 -1.09375,0 -1.53125,1.734375 -1.53125,1.828125 0,0.046875 0.046875,0.109375 0.125,0.109375 0.109375,0 0.125,-0.046875 0.171875,-0.21875 0.28125,-1 0.734375,-1.484375 1.203125,-1.484375 0.109375,0 0.3125,0 0.3125,0.390625 0,0.3125 -0.125,0.65625 -0.3125,1.109375 C 1.25,-1.953125 1.25,-1.5625 1.25,-1.28125 1.25,-0.140625 2.0625,0.125 2.65625,0.125 3,0.125 3.4375,0.015625 3.84375,-0.4375 l 0.015625,0.015625 C 3.6875,0.28125 3.5625,0.75 3.140625,1.34375 Z m 0,0"
                 id="path353" />
            </g>
          </g>
          <g
             style="fill:#000000;fill-opacity:1"
             id="g406">
            <g
               id="g405"
               transform="translate(11.45,10.959)">
              <path
                 style="stroke:none"
                 d="m 3.265625,-2.78125 c 0.0625,-0.140625 0.0625,-0.171875 0.0625,-0.203125 0,-0.046875 0,-0.0625 -0.0625,-0.203125 l -2.09375,-5.5 C 1.09375,-8.890625 1.03125,-8.96875 0.890625,-8.96875 c -0.125,0 -0.234375,0.109375 -0.234375,0.25 0,0.03125 0,0.046875 0.0625,0.1875 L 2.828125,-2.984375 0.71875,2.53125 C 0.65625,2.671875 0.65625,2.6875 0.65625,2.75 c 0,0.125 0.109375,0.234375 0.234375,0.234375 0.15625,0 0.203125,-0.109375 0.25,-0.234375 z m 0,0"
                 id="path356" />
            </g>
          </g>
        </g>
      </g>
      <path
         style="fill:none;stroke:#000000;stroke-width:0.264583px;stroke-linecap:butt;stroke-linejoin:miter;stroke-opacity:1"
         d="m 106.34147,46.550495 h 6.35865"
         id="path409"
         inkscape:path-effect="#path-effect708"
         inkscape:original-d="m 106.34147,46.550495 c 9.18309,-0.03612 -2.77292,0 6.35865,0"
         transform="translate(-30.59619,173.40382)"
         sodipodi:nodetypes="cc" />
      <path
         style="fill:none;stroke:#000000;stroke-width:0.264583px;stroke-linecap:butt;stroke-linejoin:miter;stroke-opacity:1"
         d="m 106.03843,46.550495 h 6.71899"
         id="path410"
         inkscape:path-effect="#path-effect712"
         inkscape:original-d="m 106.03843,46.550495 c 9.18309,-0.03612 -2.41258,0 6.71899,0"
         transform="translate(-45.942033,173.40382)"
         sodipodi:nodetypes="cc" />
      <path
         style="fill:none;stroke:#000000;stroke-width:0.264583px;stroke-linecap:butt;stroke-linejoin:miter;stroke-opacity:1"
         d="M 99.768395,46.550495 H 112.70012"
         id="path411"
         inkscape:path-effect="#path-effect716"
         inkscape:original-d="m 99.768395,46.550495 c 9.183095,-0.03612 3.800155,0 12.931725,0"
         transform="translate(-45.942033,156.43461)"
         sodipodi:nodetypes="cc" />
      <path
         style="fill:none;stroke:#000000;stroke-width:0.264583px;stroke-linecap:butt;stroke-linejoin:miter;stroke-opacity:1"
         d="m 106.34147,46.550495 h 6.35865"
         id="path418"
         inkscape:path-effect="#path-effect720"
         inkscape:original-d="m 106.34147,46.550495 c 9.18309,-0.03612 -2.77292,0 6.35865,0"
         transform="translate(-30.59619,156.47038)"
         sodipodi:nodetypes="cc" />
      <g
         inkscape:label=""
         transform="translate(60.223521,227.15547)"
         id="g428">
        <g
           id="g427"
           transform="matrix(0.352778,0,0,0.352778,-1.20469,-0.702116)">
          <g
             style="fill:#000000;fill-opacity:1"
             id="g420">
            <g
               id="g419"
               transform="translate(1.993,10.959)">
              <path
                 style="stroke:none"
                 d="m 1.90625,-8.53125 c 0,-0.21875 0,-0.4375 -0.25,-0.4375 -0.234375,0 -0.234375,0.21875 -0.234375,0.4375 V 2.5625 c 0,0.203125 0,0.421875 0.234375,0.421875 0.25,0 0.25,-0.21875 0.25,-0.421875 z m 0,0"
                 id="path419" />
            </g>
          </g>
          <g
             style="fill:#000000;fill-opacity:1"
             id="g422">
            <g
               id="g421"
               transform="translate(5.3130002,10.959)">
              <path
                 style="stroke:none"
                 d="m 5.625,-8.015625 c 0,0 0.046875,-0.15625 0.046875,-0.171875 0,-0.109375 -0.109375,-0.109375 -0.140625,-0.109375 -0.109375,0 -0.109375,0.0625 -0.171875,0.234375 l -1.96875,7.921875 c -0.984375,-0.125 -1.359375,-0.625 -1.359375,-1.34375 0,-0.265625 0,-0.53125 0.5625,-2.015625 C 2.75,-3.9375 2.8125,-4.09375 2.8125,-4.296875 c 0,-0.546875 -0.390625,-0.96875 -0.953125,-0.96875 -1.09375,0 -1.53125,1.734375 -1.53125,1.828125 0,0.046875 0.046875,0.109375 0.125,0.109375 0.109375,0 0.125,-0.046875 0.171875,-0.21875 0.28125,-1.046875 0.765625,-1.484375 1.203125,-1.484375 0.109375,0 0.3125,0.015625 0.3125,0.390625 0,0.046875 0,0.3125 -0.203125,0.84375 -0.640625,1.6875 -0.640625,1.953125 -0.640625,2.234375 0,1.140625 0.953125,1.59375 2.03125,1.671875 -0.09375,0.375 -0.1875,0.75 -0.28125,1.125 -0.1875,0.71875 -0.28125,1.046875 -0.28125,1.09375 0,0.109375 0.109375,0.109375 0.140625,0.109375 0.015625,0 0.0625,0 0.09375,-0.046875 C 3.046875,2.34375 3.53125,0.328125 3.578125,0.125 c 0.453125,0 1.390625,0 2.46875,-1.109375 0.390625,-0.4375 0.75,-0.984375 0.953125,-1.5 0.125,-0.3125 0.40625,-1.375 0.40625,-1.984375 0,-0.71875 -0.359375,-0.796875 -0.46875,-0.796875 -0.296875,0 -0.546875,0.28125 -0.546875,0.515625 0,0.140625 0.078125,0.234375 0.125,0.28125 0.109375,0.109375 0.421875,0.421875 0.421875,1.046875 0,0.4375 -0.234375,1.3125 -1,2.171875 -1,1.125 -1.921875,1.125 -2.28125,1.125 z m 0,0"
                 id="path420" />
            </g>
          </g>
          <g
             style="fill:#000000;fill-opacity:1"
             id="g424">
            <g
               id="g423"
               transform="translate(12.924,12.752)">
              <path
                 style="stroke:none"
                 d="m 3.890625,-2.546875 c 0,-0.84375 -0.078125,-1.359375 -0.34375,-1.875 -0.34375,-0.703125 -1,-0.875 -1.4375,-0.875 -1,0 -1.375,0.75 -1.484375,0.96875 -0.28125,0.578125 -0.296875,1.375 -0.296875,1.78125 0,0.53125 0.015625,1.328125 0.40625,1.96875 0.359375,0.59375 0.953125,0.75 1.375,0.75 0.390625,0 1.0625,-0.125 1.46875,-0.90625 0.296875,-0.578125 0.3125,-1.296875 0.3125,-1.8125 z M 2.109375,-0.0625 C 1.84375,-0.0625 1.296875,-0.1875 1.125,-1.015625 1.03125,-1.46875 1.03125,-2.21875 1.03125,-2.640625 1.03125,-3.1875 1.03125,-3.75 1.125,-4.1875 1.296875,-5 1.90625,-5.078125 2.109375,-5.078125 c 0.265625,0 0.828125,0.140625 0.984375,0.859375 0.09375,0.4375 0.09375,1.046875 0.09375,1.578125 0,0.46875 0,1.1875 -0.09375,1.640625 -0.171875,0.828125 -0.71875,0.9375 -0.984375,0.9375 z m 0,0"
                 id="path422" />
            </g>
          </g>
          <g
             style="fill:#000000;fill-opacity:1"
             id="g426">
            <g
               id="g425"
               transform="translate(17.656,10.959)">
              <path
                 style="stroke:none"
                 d="m 3.265625,-2.78125 c 0.0625,-0.140625 0.0625,-0.171875 0.0625,-0.203125 0,-0.046875 0,-0.0625 -0.0625,-0.203125 l -2.09375,-5.5 C 1.09375,-8.890625 1.03125,-8.96875 0.890625,-8.96875 c -0.125,0 -0.234375,0.109375 -0.234375,0.25 0,0.03125 0,0.046875 0.0625,0.1875 L 2.828125,-2.984375 0.71875,2.53125 C 0.65625,2.671875 0.65625,2.6875 0.65625,2.75 c 0,0.125 0.109375,0.234375 0.234375,0.234375 0.15625,0 0.203125,-0.109375 0.25,-0.234375 z m 0,0"
                 id="path424" />
            </g>
          </g>
        </g>
      </g>
      <g
         id="g439"
         transform="translate(19.946199,73.491468)">
        <g
           inkscape:label=""
           transform="translate(55.607113,153.66371)"
           id="g438">
          <g
             id="g437"
             transform="matrix(0.352778,0,0,0.352778,-1.20469,-0.702116)">
            <g
               style="fill:#000000;fill-opacity:1"
               id="g430">
              <g
                 id="g429"
                 transform="translate(1.993,10.959)">
                <path
                   style="stroke:none"
                   d="m 1.90625,-8.53125 c 0,-0.21875 0,-0.4375 -0.25,-0.4375 -0.234375,0 -0.234375,0.21875 -0.234375,0.4375 V 2.5625 c 0,0.203125 0,0.421875 0.234375,0.421875 0.25,0 0.25,-0.21875 0.25,-0.421875 z m 0,0"
                   id="path428" />
              </g>
            </g>
            <g
               style="fill:#000000;fill-opacity:1"
               id="g432">
              <g
                 id="g431"
                 transform="translate(5.3130002,10.959)">
                <path
                   style="stroke:none"
                   d="m 5.625,-8.015625 c 0,0 0.046875,-0.15625 0.046875,-0.171875 0,-0.109375 -0.109375,-0.109375 -0.140625,-0.109375 -0.109375,0 -0.109375,0.0625 -0.171875,0.234375 l -1.96875,7.921875 c -0.984375,-0.125 -1.359375,-0.625 -1.359375,-1.34375 0,-0.265625 0,-0.53125 0.5625,-2.015625 C 2.75,-3.9375 2.8125,-4.09375 2.8125,-4.296875 c 0,-0.546875 -0.390625,-0.96875 -0.953125,-0.96875 -1.09375,0 -1.53125,1.734375 -1.53125,1.828125 0,0.046875 0.046875,0.109375 0.125,0.109375 0.109375,0 0.125,-0.046875 0.171875,-0.21875 0.28125,-1.046875 0.765625,-1.484375 1.203125,-1.484375 0.109375,0 0.3125,0.015625 0.3125,0.390625 0,0.046875 0,0.3125 -0.203125,0.84375 -0.640625,1.6875 -0.640625,1.953125 -0.640625,2.234375 0,1.140625 0.953125,1.59375 2.03125,1.671875 -0.09375,0.375 -0.1875,0.75 -0.28125,1.125 -0.1875,0.71875 -0.28125,1.046875 -0.28125,1.09375 0,0.109375 0.109375,0.109375 0.140625,0.109375 0.015625,0 0.0625,0 0.09375,-0.046875 C 3.046875,2.34375 3.53125,0.328125 3.578125,0.125 c 0.453125,0 1.390625,0 2.46875,-1.109375 0.390625,-0.4375 0.75,-0.984375 0.953125,-1.5 0.125,-0.3125 0.40625,-1.375 0.40625,-1.984375 0,-0.71875 -0.359375,-0.796875 -0.46875,-0.796875 -0.296875,0 -0.546875,0.28125 -0.546875,0.515625 0,0.140625 0.078125,0.234375 0.125,0.28125 0.109375,0.109375 0.421875,0.421875 0.421875,1.046875 0,0.4375 -0.234375,1.3125 -1,2.171875 -1,1.125 -1.921875,1.125 -2.28125,1.125 z m 0,0"
                   id="path430" />
              </g>
            </g>
            <g
               style="fill:#000000;fill-opacity:1"
               id="g434">
              <g
                 id="g433"
                 transform="translate(12.924,12.752)">
                <path
                   style="stroke:none"
                   d="m 2.5,-5.078125 c 0,-0.21875 -0.015625,-0.21875 -0.234375,-0.21875 -0.328125,0.3125 -0.75,0.5 -1.5,0.5 v 0.265625 c 0.21875,0 0.640625,0 1.109375,-0.203125 v 4.078125 c 0,0.296875 -0.03125,0.390625 -0.78125,0.390625 H 0.8125 V 0 c 0.328125,-0.03125 1.015625,-0.03125 1.375,-0.03125 0.359375,0 1.046875,0 1.375,0.03125 V -0.265625 H 3.28125 c -0.75,0 -0.78125,-0.09375 -0.78125,-0.390625 z m 0,0"
                   id="path432" />
              </g>
            </g>
            <g
               style="fill:#000000;fill-opacity:1"
               id="g436">
              <g
                 id="g435"
                 transform="translate(17.656,10.959)">
                <path
                   style="stroke:none"
                   d="m 3.265625,-2.78125 c 0.0625,-0.140625 0.0625,-0.171875 0.0625,-0.203125 0,-0.046875 0,-0.0625 -0.0625,-0.203125 l -2.09375,-5.5 C 1.09375,-8.890625 1.03125,-8.96875 0.890625,-8.96875 c -0.125,0 -0.234375,0.109375 -0.234375,0.25 0,0.03125 0,0.046875 0.0625,0.1875 L 2.828125,-2.984375 0.71875,2.53125 C 0.65625,2.671875 0.65625,2.6875 0.65625,2.75 c 0,0.125 0.109375,0.234375 0.234375,0.234375 0.15625,0 0.203125,-0.109375 0.25,-0.234375 z m 0,0"
                   id="path434" />
              </g>
            </g>
          </g>
        </g>
      </g>
      <g
         inkscape:label=""
         transform="translate(118.11234,227.15547)"
         id="g449">
        <g
           id="g448"
           transform="matrix(0.352778,0,0,0.352778,-1.20469,-0.702116)">
          <g
             style="fill:#000000;fill-opacity:1"
             id="g441">
            <g
               id="g440"
               transform="translate(1.993,10.959)">
              <path
                 style="stroke:none"
                 d="m 1.90625,-8.53125 c 0,-0.21875 0,-0.4375 -0.25,-0.4375 -0.234375,0 -0.234375,0.21875 -0.234375,0.4375 V 2.5625 c 0,0.203125 0,0.421875 0.234375,0.421875 0.25,0 0.25,-0.21875 0.25,-0.421875 z m 0,0"
                 id="path439" />
            </g>
          </g>
          <g
             style="fill:#000000;fill-opacity:1"
             id="g443">
            <g
               id="g442"
               transform="translate(5.3130002,10.959)">
              <path
                 style="stroke:none"
                 d="m 5.625,-8.015625 c 0,0 0.046875,-0.15625 0.046875,-0.171875 0,-0.109375 -0.109375,-0.109375 -0.140625,-0.109375 -0.109375,0 -0.109375,0.0625 -0.171875,0.234375 l -1.96875,7.921875 c -0.984375,-0.125 -1.359375,-0.625 -1.359375,-1.34375 0,-0.265625 0,-0.53125 0.5625,-2.015625 C 2.75,-3.9375 2.8125,-4.09375 2.8125,-4.296875 c 0,-0.546875 -0.390625,-0.96875 -0.953125,-0.96875 -1.09375,0 -1.53125,1.734375 -1.53125,1.828125 0,0.046875 0.046875,0.109375 0.125,0.109375 0.109375,0 0.125,-0.046875 0.171875,-0.21875 0.28125,-1.046875 0.765625,-1.484375 1.203125,-1.484375 0.109375,0 0.3125,0.015625 0.3125,0.390625 0,0.046875 0,0.3125 -0.203125,0.84375 -0.640625,1.6875 -0.640625,1.953125 -0.640625,2.234375 0,1.140625 0.953125,1.59375 2.03125,1.671875 -0.09375,0.375 -0.1875,0.75 -0.28125,1.125 -0.1875,0.71875 -0.28125,1.046875 -0.28125,1.09375 0,0.109375 0.109375,0.109375 0.140625,0.109375 0.015625,0 0.0625,0 0.09375,-0.046875 C 3.046875,2.34375 3.53125,0.328125 3.578125,0.125 c 0.453125,0 1.390625,0 2.46875,-1.109375 0.390625,-0.4375 0.75,-0.984375 0.953125,-1.5 0.125,-0.3125 0.40625,-1.375 0.40625,-1.984375 0,-0.71875 -0.359375,-0.796875 -0.46875,-0.796875 -0.296875,0 -0.546875,0.28125 -0.546875,0.515625 0,0.140625 0.078125,0.234375 0.125,0.28125 0.109375,0.109375 0.421875,0.421875 0.421875,1.046875 0,0.4375 -0.234375,1.3125 -1,2.171875 -1,1.125 -1.921875,1.125 -2.28125,1.125 z m 0,0"
                 id="path441" />
            </g>
          </g>
          <g
             style="fill:#000000;fill-opacity:1"
             id="g445">
            <g
               id="g444"
               transform="translate(12.924,12.752)">
              <path
                 style="stroke:none"
                 d="m 2.25,-1.625 c 0.125,-0.125 0.453125,-0.390625 0.59375,-0.5 0.484375,-0.453125 0.953125,-0.890625 0.953125,-1.609375 0,-0.953125 -0.796875,-1.5625 -1.78125,-1.5625 -0.96875,0 -1.59375,0.71875 -1.59375,1.4375 0,0.390625 0.3125,0.4375 0.421875,0.4375 0.171875,0 0.421875,-0.109375 0.421875,-0.421875 0,-0.40625 -0.40625,-0.40625 -0.5,-0.40625 C 1,-4.84375 1.53125,-5.03125 1.921875,-5.03125 c 0.734375,0 1.125,0.625 1.125,1.296875 0,0.828125 -0.578125,1.4375 -1.53125,2.390625 l -1,1.046875 C 0.421875,-0.21875 0.421875,-0.203125 0.421875,0 H 3.5625 l 0.234375,-1.421875 h -0.25 C 3.53125,-1.265625 3.46875,-0.875 3.375,-0.71875 c -0.046875,0.0625 -0.65625,0.0625 -0.78125,0.0625 H 1.171875 Z m 0,0"
                 id="path443" />
            </g>
          </g>
          <g
             style="fill:#000000;fill-opacity:1"
             id="g447">
            <g
               id="g446"
               transform="translate(17.656,10.959)">
              <path
                 style="stroke:none"
                 d="m 3.265625,-2.78125 c 0.0625,-0.140625 0.0625,-0.171875 0.0625,-0.203125 0,-0.046875 0,-0.0625 -0.0625,-0.203125 l -2.09375,-5.5 C 1.09375,-8.890625 1.03125,-8.96875 0.890625,-8.96875 c -0.125,0 -0.234375,0.109375 -0.234375,0.25 0,0.03125 0,0.046875 0.0625,0.1875 L 2.828125,-2.984375 0.71875,2.53125 C 0.65625,2.671875 0.65625,2.6875 0.65625,2.75 c 0,0.125 0.109375,0.234375 0.234375,0.234375 0.15625,0 0.203125,-0.109375 0.25,-0.234375 z m 0,0"
                 id="path445" />
            </g>
          </g>
        </g>
      </g>
      <path
         style="fill:none;stroke:#000000;stroke-width:0.264583px;stroke-linecap:butt;stroke-linejoin:miter;stroke-dasharray:0.264583, 0.793749;stroke-dashoffset:0;stroke-opacity:1"
         d="m 42.619593,124.6145 v 27.4919"
         id="path459"
         inkscape:path-effect="#path-effect722"
         inkscape:original-d="m 42.619593,124.6145 c 0,9.16397 0,18.32793 0,27.4919"
         transform="translate(21.004532,73.375223)" />
      <path
         style="fill:none;stroke:#000000;stroke-width:0.264583px;stroke-linecap:butt;stroke-linejoin:miter;stroke-dasharray:0.264583, 0.793749;stroke-dashoffset:0;stroke-opacity:1"
         d="m 42.619593,124.6145 v 27.4919"
         id="path460"
         inkscape:path-effect="#path-effect724"
         inkscape:original-d="m 42.619593,124.6145 c 0,9.16397 0,18.32793 0,27.4919"
         transform="translate(36.35037,73.375223)" />
      <path
         style="fill:none;stroke:#000000;stroke-width:0.264583px;stroke-linecap:butt;stroke-linejoin:miter;stroke-dasharray:0.264583, 0.793749;stroke-dashoffset:0;stroke-opacity:1"
         d="m 42.619593,124.6145 v 27.4919"
         id="path461"
         inkscape:path-effect="#path-effect726"
         inkscape:original-d="m 42.619593,124.6145 c 0,9.16397 0,18.32793 0,27.4919"
         transform="translate(36.35037,73.375223)" />
      <path
         style="fill:none;stroke:#000000;stroke-width:0.264583px;stroke-linecap:butt;stroke-linejoin:miter;stroke-dasharray:0.264583, 0.793749;stroke-dashoffset:0;stroke-opacity:1"
         d="m 42.619593,124.6145 v 27.4919"
         id="path462"
         inkscape:path-effect="#path-effect728"
         inkscape:original-d="m 42.619593,124.6145 c 0,9.16397 0,18.32793 0,27.4919"
         transform="translate(78.68373,73.375223)" />
      <path
         style="fill:none;stroke:#000000;stroke-width:0.264583px;stroke-linecap:butt;stroke-linejoin:miter;stroke-opacity:1"
         d="m 106.34147,46.550495 h 11.26729"
         id="path463"
         inkscape:path-effect="#path-effect730"
         inkscape:original-d="m 106.34147,46.550495 c 9.18309,-0.03612 2.13572,0 11.26729,0"
         transform="translate(6.9746667,156.47038)"
         sodipodi:nodetypes="cc" />
      <path
         style="fill:none;stroke:#000000;stroke-width:0.264583px;stroke-linecap:butt;stroke-linejoin:miter;stroke-opacity:1"
         d="m 106.34147,46.550495 h 11.58611"
         id="path464"
         inkscape:path-effect="#path-effect733"
         inkscape:original-d="m 106.34147,46.550495 c 9.18309,-0.03612 2.45454,0 11.58611,0"
         transform="translate(6.9746667,173.40382)"
         sodipodi:nodetypes="cc" />
      <g
         id="g468"
         transform="translate(73.218766,21.983484)">
        <rect
           style="fill:none;fill-opacity:0.434037;stroke:#000000;stroke-width:0.264999;stroke-dasharray:none;stroke-dashoffset:0"
           id="rect465"
           width="9.3181553"
           height="5.7925262"
           x="51.340015"
           y="177.88193" />
        <g
           id="g467"
           transform="translate(-3.1619998,-10.713896)">
          <path
             style="fill:none;stroke:#000000;stroke-width:0.264583px;stroke-linecap:butt;stroke-linejoin:miter;stroke-opacity:1"
             d="m 70.677015,186.73488 c 0.215711,-0.73821 0.681827,-1.4008 1.303723,-1.85326 0.621896,-0.45247 1.395777,-0.69204 2.164541,-0.6701 0.738957,0.0211 1.469108,0.28312 2.052861,0.7367 0.583753,0.45358 1.018063,1.09635 1.221088,1.80718"
             id="path466"
             inkscape:path-effect="#path-effect737"
             inkscape:original-d="m 70.677015,186.73488 c 1.104969,-0.85496 2.312178,-1.68224 3.468264,-2.52336 1.156089,-0.84113 2.182633,1.69592 3.273949,2.54388"
             transform="translate(-15.295058,5.5027181)" />
          <path
             style="fill:none;stroke:#000000;stroke-width:0.264583px;stroke-linecap:butt;stroke-linejoin:miter;stroke-opacity:1;marker-end:url(#DartArrow)"
             d="m 58.520374,193.32302 3.928576,-2.95004"
             id="path467"
             inkscape:path-effect="#path-effect740"
             inkscape:original-d="m 58.520374,193.32302 c 1.251458,-0.96505 2.61905,-1.96669 3.928576,-2.95004"
             transform="translate(-0.70407185,0.08767498)" />
        </g>
      </g>
      <g
         id="g495"
         transform="translate(19.946199,24.691865)">
        <rect
           style="fill:none;fill-opacity:0.434037;stroke:#000000;stroke-width:0.264999"
           id="rect468"
           width="8.871088"
           height="8.0501518"
           x="46.888306"
           y="174.27094" />
        <g
           inkscape:label=""
           transform="translate(47.201153,176.35247)"
           id="g494">
          <g
             id="g475"
             transform="matrix(0.352778,0,0,0.352778,-0.912548,-0.702557)">
            <g
               style="fill:#000000;fill-opacity:1"
               id="g470">
              <g
                 id="g469"
                 transform="translate(1.993,13.01)">
                <path
                   style="stroke:none"
                   d="m 8.5625,-8.703125 c 0,-0.53125 0.046875,-0.671875 1.078125,-0.671875 h 0.28125 v -0.421875 c -0.34375,0.03125 -1.515625,0.03125 -1.9375,0.03125 -0.421875,0 -1.59375,0 -1.953125,-0.03125 V -9.375 h 0.296875 c 1.03125,0 1.078125,0.140625 1.078125,0.671875 V -5.3125 H 3.109375 V -8.703125 C 3.109375,-9.234375 3.15625,-9.375 4.1875,-9.375 h 0.28125 v -0.421875 c -0.34375,0.03125 -1.515625,0.03125 -1.9375,0.03125 -0.421875,0 -1.59375,0 -1.9375,-0.03125 V -9.375 H 0.875 c 1.03125,0 1.078125,0.140625 1.078125,0.671875 v 7.609375 c 0,0.53125 -0.046875,0.671875 -1.078125,0.671875 H 0.59375 V 0 c 0.34375,-0.03125 1.515625,-0.03125 1.9375,-0.03125 0.421875,0 1.59375,0 1.9375,0.03125 V -0.421875 H 4.1875 c -1.03125,0 -1.078125,-0.140625 -1.078125,-0.671875 V -4.890625 H 7.40625 v 3.796875 c 0,0.53125 -0.046875,0.671875 -1.078125,0.671875 H 6.03125 V 0 c 0.359375,-0.03125 1.53125,-0.03125 1.9375,-0.03125 0.4375,0 1.609375,0 1.953125,0.03125 V -0.421875 H 9.640625 C 8.609375,-0.421875 8.5625,-0.5625 8.5625,-1.09375 Z m 0,0"
                   id="path469" />
              </g>
            </g>
            <g
               style="fill:#000000;fill-opacity:1"
               id="g472">
              <g
                 id="g471"
                 transform="translate(12.523,7.8039999)">
                <path
                   style="stroke:none"
                   d="m 7.203125,-2.5 c 0,-1.828125 -1.5,-3.3125 -3.328125,-3.3125 -1.84375,0 -3.328125,1.5 -3.328125,3.3125 0,1.84375 1.5,3.328125 3.328125,3.328125 1.84375,0 3.328125,-1.5 3.328125,-3.328125 z m -5.3125,-2.140625 C 1.875,-4.65625 1.796875,-4.71875 1.796875,-4.75 c 0,-0.03125 0.8125,-0.8125 2.078125,-0.8125 0.34375,0 1.265625,0.046875 2.078125,0.8125 L 3.875,-2.65625 Z M 1.609375,-0.40625 C 1,-1.09375 0.796875,-1.859375 0.796875,-2.5 c 0,-0.765625 0.296875,-1.484375 0.8125,-2.078125 L 3.6875,-2.5 Z M 6.125,-4.578125 C 6.609375,-4.0625 6.953125,-3.3125 6.953125,-2.5 c 0,0.78125 -0.296875,1.5 -0.8125,2.09375 L 4.0625,-2.5 Z M 5.859375,-0.34375 C 5.875,-0.328125 5.9375,-0.265625 5.9375,-0.234375 c 0,0.03125 -0.796875,0.8125 -2.0625,0.8125 -0.34375,0 -1.265625,-0.046875 -2.078125,-0.8125 L 3.875,-2.328125 Z m 0,0"
                   id="path470" />
              </g>
            </g>
            <g
               style="fill:#000000;fill-opacity:1"
               id="g474">
              <g
                 id="g473"
                 transform="translate(20.271999,7.8039999)">
                <path
                   style="stroke:none"
                   d="m 0.875,-0.59375 c -0.03125,0.15625 -0.09375,0.390625 -0.09375,0.4375 0,0.171875 0.140625,0.265625 0.296875,0.265625 0.125,0 0.296875,-0.078125 0.375,-0.28125 0,-0.015625 0.125,-0.484375 0.1875,-0.734375 l 0.21875,-0.890625 C 1.90625,-2.03125 1.96875,-2.25 2.03125,-2.46875 c 0.03125,-0.171875 0.109375,-0.46875 0.125,-0.5 0.140625,-0.3125 0.671875,-1.21875 1.625,-1.21875 0.453125,0 0.53125,0.375 0.53125,0.703125 0,0.609375 -0.484375,1.890625 -0.640625,2.3125 C 3.578125,-0.9375 3.5625,-0.8125 3.5625,-0.703125 c 0,0.46875 0.359375,0.8125 0.828125,0.8125 0.9375,0 1.296875,-1.453125 1.296875,-1.53125 0,-0.109375 -0.078125,-0.109375 -0.109375,-0.109375 -0.109375,0 -0.109375,0.03125 -0.15625,0.1875 -0.203125,0.671875 -0.53125,1.234375 -1.015625,1.234375 -0.171875,0 -0.234375,-0.09375 -0.234375,-0.328125 0,-0.25 0.078125,-0.484375 0.171875,-0.703125 0.1875,-0.53125 0.609375,-1.625 0.609375,-2.203125 0,-0.65625 -0.421875,-1.0625 -1.140625,-1.0625 -0.90625,0 -1.390625,0.640625 -1.5625,0.875 -0.046875,-0.5625 -0.453125,-0.875 -0.921875,-0.875 -0.453125,0 -0.640625,0.390625 -0.734375,0.5625 C 0.421875,-3.5 0.296875,-2.90625 0.296875,-2.875 c 0,0.109375 0.09375,0.109375 0.109375,0.109375 0.109375,0 0.109375,-0.015625 0.171875,-0.234375 0.171875,-0.703125 0.375,-1.1875 0.734375,-1.1875 0.1875,0 0.296875,0.125 0.296875,0.453125 0,0.21875 -0.03125,0.328125 -0.15625,0.84375 z m 0,0"
                   id="path472" />
              </g>
            </g>
          </g>
        </g>
      </g>
      <path
         style="fill:none;stroke:#000000;stroke-width:0.264583px;stroke-linecap:butt;stroke-linejoin:miter;stroke-opacity:1"
         d="m 33.260567,180.57568 3.905297,-4.36155"
         id="path573"
         inkscape:path-effect="#path-effect744"
         inkscape:original-d="m 33.260567,180.57568 c 1.301766,-1.45385 2.603531,-2.9077 3.905297,-4.36155"
         transform="translate(24.222605,24.691865)" />
      <path
         style="fill:none;stroke:#000000;stroke-width:0.264583px;stroke-linecap:butt;stroke-linejoin:miter;stroke-opacity:1"
         d="m 33.260567,180.57568 3.905297,-4.36155"
         id="path574"
         inkscape:path-effect="#path-effect746"
         inkscape:original-d="m 33.260567,180.57568 c 1.301766,-1.45385 2.603531,-2.9077 3.905297,-4.36155"
         transform="translate(82.917066,24.691865)" />
      <g
         inkscape:label=""
         transform="translate(115.4334,199.7807)"
         id="g578">
        <g
           id="g577"
           transform="matrix(0.352778,0,0,0.352778,-0.818841,-0.660885)">
          <g
             style="fill:#000000;fill-opacity:1"
             id="g576">
            <g
               id="g575"
               transform="translate(1.993,7.1389999)">
              <path
                 style="stroke:none"
                 d="M 2.46875,-3.5 C 2.484375,-3.578125 2.78125,-4.171875 3.234375,-4.546875 3.53125,-4.84375 3.9375,-5.03125 4.40625,-5.03125 c 0.484375,0 0.65625,0.359375 0.65625,0.828125 0,0.6875 -0.5,2.046875 -0.734375,2.703125 -0.109375,0.28125 -0.171875,0.4375 -0.171875,0.65625 0,0.53125 0.375,0.96875 0.953125,0.96875 1.109375,0 1.53125,-1.765625 1.53125,-1.828125 0,-0.0625 -0.046875,-0.109375 -0.125,-0.109375 -0.109375,0 -0.125,0.03125 -0.1875,0.234375 C 6.0625,-0.59375 5.609375,-0.125 5.140625,-0.125 c -0.125,0 -0.3125,0 -0.3125,-0.390625 0,-0.296875 0.125,-0.65625 0.203125,-0.828125 C 5.265625,-2 5.765625,-3.328125 5.765625,-4.015625 c 0,-0.71875 -0.40625,-1.25 -1.3125,-1.25 -1.078125,0 -1.625,0.75 -1.84375,1.046875 -0.046875,-0.6875 -0.53125,-1.046875 -1.0625,-1.046875 -0.375,0 -0.640625,0.21875 -0.84375,0.625 -0.21875,0.4375 -0.375,1.15625 -0.375,1.203125 0,0.046875 0.046875,0.109375 0.125,0.109375 0.09375,0 0.109375,-0.015625 0.1875,-0.296875 0.1875,-0.71875 0.40625,-1.40625 0.875,-1.40625 0.28125,0 0.375,0.1875 0.375,0.546875 0,0.265625 -0.125,0.734375 -0.203125,1.109375 l -0.34375,1.28125 c -0.046875,0.234375 -0.171875,0.765625 -0.234375,0.984375 -0.078125,0.3125 -0.21875,0.875 -0.21875,0.9375 0,0.15625 0.140625,0.296875 0.3125,0.296875 0.140625,0 0.3125,-0.078125 0.40625,-0.25 C 1.640625,-0.1875 1.75,-0.609375 1.8125,-0.84375 l 0.25,-1.078125 z m 0,0"
                 id="path575" />
            </g>
          </g>
        </g>
      </g>
      <g
         inkscape:label=""
         transform="translate(56.742903,199.53167)"
         id="g582">
        <g
           id="g581"
           transform="matrix(0.352778,0,0,0.352778,-0.818841,-0.660885)">
          <g
             style="fill:#000000;fill-opacity:1"
             id="g580">
            <g
               id="g579"
               transform="translate(1.993,7.1389999)">
              <path
                 style="stroke:none"
                 d="M 2.46875,-3.5 C 2.484375,-3.578125 2.78125,-4.171875 3.234375,-4.546875 3.53125,-4.84375 3.9375,-5.03125 4.40625,-5.03125 c 0.484375,0 0.65625,0.359375 0.65625,0.828125 0,0.6875 -0.5,2.046875 -0.734375,2.703125 -0.109375,0.28125 -0.171875,0.4375 -0.171875,0.65625 0,0.53125 0.375,0.96875 0.953125,0.96875 1.109375,0 1.53125,-1.765625 1.53125,-1.828125 0,-0.0625 -0.046875,-0.109375 -0.125,-0.109375 -0.109375,0 -0.125,0.03125 -0.1875,0.234375 C 6.0625,-0.59375 5.609375,-0.125 5.140625,-0.125 c -0.125,0 -0.3125,0 -0.3125,-0.390625 0,-0.296875 0.125,-0.65625 0.203125,-0.828125 C 5.265625,-2 5.765625,-3.328125 5.765625,-4.015625 c 0,-0.71875 -0.40625,-1.25 -1.3125,-1.25 -1.078125,0 -1.625,0.75 -1.84375,1.046875 -0.046875,-0.6875 -0.53125,-1.046875 -1.0625,-1.046875 -0.375,0 -0.640625,0.21875 -0.84375,0.625 -0.21875,0.4375 -0.375,1.15625 -0.375,1.203125 0,0.046875 0.046875,0.109375 0.125,0.109375 0.09375,0 0.109375,-0.015625 0.1875,-0.296875 0.1875,-0.71875 0.40625,-1.40625 0.875,-1.40625 0.28125,0 0.375,0.1875 0.375,0.546875 0,0.265625 -0.125,0.734375 -0.203125,1.109375 l -0.34375,1.28125 c -0.046875,0.234375 -0.171875,0.765625 -0.234375,0.984375 -0.078125,0.3125 -0.21875,0.875 -0.21875,0.9375 0,0.15625 0.140625,0.296875 0.3125,0.296875 0.140625,0 0.3125,-0.078125 0.40625,-0.25 C 1.640625,-0.1875 1.75,-0.609375 1.8125,-0.84375 l 0.25,-1.078125 z m 0,0"
                 id="path578" />
            </g>
          </g>
        </g>
      </g>
      <g
         inkscape:label=""
         transform="translate(44.954853,200.87109)"
         id="g684">
        <g
           id="g683"
           transform="matrix(0.352778,0,0,0.352778,-1.20469,-0.703968)">
          <g
             style="fill:#000000;fill-opacity:1"
             id="g627">
            <g
               id="g626"
               transform="translate(1.993,11.147)">
              <path
                 style="stroke:none"
                 d="m 1.90625,-8.53125 c 0,-0.21875 0,-0.4375 -0.25,-0.4375 -0.234375,0 -0.234375,0.21875 -0.234375,0.4375 V 2.5625 c 0,0.203125 0,0.421875 0.234375,0.421875 0.25,0 0.25,-0.21875 0.25,-0.421875 z m 0,0"
                 id="path587" />
            </g>
          </g>
          <g
             style="fill:#000000;fill-opacity:1"
             id="g629">
            <g
               id="g628"
               transform="translate(5.3130002,11.147)">
              <path
                 style="stroke:none"
                 d="m 5.359375,-3.828125 c 0,-0.984375 -0.0625,-1.953125 -0.5,-2.859375 -0.484375,-1 -1.34375,-1.265625 -1.9375,-1.265625 -0.6875,0 -1.53125,0.34375 -1.984375,1.34375 -0.328125,0.75 -0.453125,1.5 -0.453125,2.78125 0,1.15625 0.09375,2.03125 0.515625,2.890625 0.46875,0.90625 1.296875,1.1875 1.921875,1.1875 1.03125,0 1.625,-0.625 1.984375,-1.3125 0.421875,-0.890625 0.453125,-2.0625 0.453125,-2.765625 z m -2.4375,3.84375 C 2.53125,0.015625 1.75,-0.203125 1.53125,-1.5 c -0.125,-0.71875 -0.125,-1.625 -0.125,-2.46875 0,-0.984375 0,-1.859375 0.1875,-2.5625 0.203125,-0.8125 0.8125,-1.171875 1.328125,-1.171875 0.453125,0 1.140625,0.265625 1.375,1.296875 0.15625,0.6875 0.15625,1.625 0.15625,2.4375 0,0.796875 0,1.703125 -0.140625,2.4375 -0.21875,1.3125 -0.984375,1.546875 -1.390625,1.546875 z m 0,0"
                 id="path627" />
            </g>
          </g>
          <g
             style="fill:#000000;fill-opacity:1"
             id="g631">
            <g
               id="g630"
               transform="translate(11.166,6.8080001)">
              <path
                 style="stroke:none"
                 d="m 6.109375,-1.984375 c 0,-1.578125 -1.28125,-2.828125 -2.8125,-2.828125 -1.578125,0 -2.828125,1.28125 -2.828125,2.828125 0,1.5625 1.28125,2.8125 2.8125,2.8125 1.578125,0 2.828125,-1.28125 2.828125,-2.8125 z M 1.5625,-3.890625 C 2.1875,-4.46875 2.90625,-4.5625 3.28125,-4.5625 c 0.484375,0 1.171875,0.140625 1.734375,0.671875 l -1.71875,1.71875 z m -0.171875,3.625 C 0.9375,-0.734375 0.71875,-1.375 0.71875,-1.984375 0.71875,-2.59375 0.9375,-3.25 1.390625,-3.71875 l 1.71875,1.734375 z M 5.1875,-3.71875 c 0.453125,0.46875 0.671875,1.109375 0.671875,1.734375 0,0.59375 -0.21875,1.25 -0.671875,1.71875 l -1.734375,-1.71875 z m -0.171875,3.625 C 4.390625,0.484375 3.671875,0.578125 3.296875,0.578125 2.8125,0.578125 2.125,0.4375 1.5625,-0.09375 L 3.28125,-1.8125 Z m 0,0"
                 id="path629" />
            </g>
          </g>
          <g
             style="fill:#000000;fill-opacity:1"
             id="g633">
            <g
               id="g632"
               transform="translate(17.753,6.8080001)">
              <path
                 style="stroke:none"
                 d="m 1.59375,-1.3125 c 0.03125,-0.109375 0.109375,-0.421875 0.125,-0.53125 0.109375,-0.4375 0.109375,-0.4375 0.296875,-0.703125 0.265625,-0.390625 0.640625,-0.75 1.171875,-0.75 0.28125,0 0.453125,0.171875 0.453125,0.546875 0,0.4375 -0.328125,1.34375 -0.484375,1.734375 -0.109375,0.265625 -0.109375,0.3125 -0.109375,0.421875 0,0.453125 0.375,0.671875 0.71875,0.671875 0.78125,0 1.109375,-1.109375 1.109375,-1.21875 C 4.875,-1.21875 4.8125,-1.25 4.75,-1.25 c -0.09375,0 -0.109375,0.0625 -0.125,0.140625 -0.1875,0.65625 -0.53125,0.96875 -0.828125,0.96875 -0.125,0 -0.1875,-0.078125 -0.1875,-0.265625 0,-0.1875 0.0625,-0.359375 0.140625,-0.5625 0.109375,-0.296875 0.46875,-1.21875 0.46875,-1.65625 0,-0.609375 -0.421875,-0.890625 -0.984375,-0.890625 -0.65625,0 -1.0625,0.390625 -1.296875,0.6875 -0.0625,-0.4375 -0.40625,-0.6875 -0.8125,-0.6875 -0.28125,0 -0.484375,0.1875 -0.609375,0.4375 -0.203125,0.375 -0.28125,0.765625 -0.28125,0.78125 0,0.078125 0.0625,0.109375 0.125,0.109375 0.109375,0 0.109375,-0.03125 0.171875,-0.25 0.09375,-0.390625 0.234375,-0.859375 0.5625,-0.859375 0.21875,0 0.265625,0.203125 0.265625,0.375 0,0.15625 -0.046875,0.296875 -0.109375,0.5625 -0.015625,0.0625 -0.140625,0.53125 -0.171875,0.640625 L 0.78125,-0.515625 c -0.03125,0.125 -0.078125,0.3125 -0.078125,0.34375 0,0.1875 0.15625,0.25 0.265625,0.25 0.140625,0 0.265625,-0.09375 0.3125,-0.1875 C 1.3125,-0.15625 1.375,-0.4375 1.40625,-0.59375 Z m 0,0"
                 id="path631" />
            </g>
          </g>
          <g
             style="fill:#000000;fill-opacity:1"
             id="g682">
            <g
               id="g661"
               transform="translate(23.389,11.147)">
              <path
                 style="stroke:none"
                 d="m 3.265625,-2.78125 c 0.0625,-0.140625 0.0625,-0.171875 0.0625,-0.203125 0,-0.046875 0,-0.0625 -0.0625,-0.203125 l -2.09375,-5.5 C 1.09375,-8.890625 1.03125,-8.96875 0.890625,-8.96875 c -0.125,0 -0.234375,0.109375 -0.234375,0.25 0,0.03125 0,0.046875 0.0625,0.1875 L 2.828125,-2.984375 0.71875,2.53125 C 0.65625,2.671875 0.65625,2.6875 0.65625,2.75 c 0,0.125 0.109375,0.234375 0.234375,0.234375 0.15625,0 0.203125,-0.109375 0.25,-0.234375 z m 0,0"
                 id="path645" />
            </g>
          </g>
        </g>
      </g>
      <g
         id="g777"
         transform="translate(-4.0108016,78.948532)">
        <g
           id="g768"
           transform="translate(-36.234037,-29.600734)">
          <g
             inkscape:label=""
             transform="translate(94.103281,168.45424)"
             id="g767">
            <g
               id="g766"
               transform="matrix(0.352778,0,0,0.352778,-0.813329,-0.704894)">
              <g
                 style="fill:#000000;fill-opacity:1"
                 id="g765">
                <g
                   id="g764"
                   transform="translate(1.993,11.795)">
                  <path
                     style="stroke:none"
                     d="m 5.609375,-5.515625 1.984375,-2.875 C 7.828125,-8.734375 8.25,-9.359375 9.609375,-9.375 v -0.421875 c -0.609375,0.03125 -0.78125,0.03125 -1.5,0.03125 -0.390625,0 -1.3125,0 -1.640625,-0.03125 V -9.375 C 7.0625,-9.34375 7.25,-9 7.25,-8.75 c 0,0.15625 -0.0625,0.25 -0.15625,0.375 L 5.375,-5.859375 3.4375,-8.71875 C 3.40625,-8.78125 3.34375,-8.875 3.34375,-8.953125 3.34375,-9.15625 3.640625,-9.375 4.15625,-9.375 v -0.421875 c -0.34375,0.03125 -1.46875,0.03125 -1.890625,0.03125 -0.40625,0 -1.40625,0 -1.75,-0.03125 V -9.375 c 1.078125,0 1.21875,0.0625 1.515625,0.53125 L 4.71875,-4.875 2.3125,-1.359375 C 2.0625,-1 1.609375,-0.4375 0.3125,-0.421875 V 0 c 0.625,-0.03125 0.78125,-0.03125 1.515625,-0.03125 0.375,0 1.3125,0 1.640625,0.03125 V -0.421875 C 2.875,-0.4375 2.6875,-0.796875 2.6875,-1.046875 2.6875,-1.203125 2.75,-1.3125 2.84375,-1.4375 l 2.109375,-3.078125 2.3125,3.46875 c 0.09375,0.125 0.109375,0.140625 0.109375,0.203125 0,0.171875 -0.265625,0.40625 -0.8125,0.421875 V 0 c 0.34375,-0.03125 1.453125,-0.03125 1.875,-0.03125 0.390625,0 1.421875,0 1.765625,0.03125 v -0.421875 c -0.84375,0 -1.1875,0 -1.53125,-0.5 z m 0,0"
                     id="path763" />
                </g>
              </g>
            </g>
          </g>
          <rect
             style="fill:none;fill-opacity:0.434037;stroke:#000000;stroke-width:0.264999"
             id="rect767"
             width="8.871088"
             height="8.0501518"
             x="91.412338"
             y="166.15723" />
        </g>
        <path
           style="fill:none;stroke:#000000;stroke-width:0.264583px;stroke-linecap:butt;stroke-linejoin:miter;stroke-opacity:1"
           d="m 106.03843,46.550495 h 6.66169"
           id="path768"
           inkscape:path-effect="#path-effect778"
           inkscape:original-d="m 106.03843,46.550495 c 9.18309,-0.03612 -2.46988,0 6.66169,0"
           transform="translate(-57.474891,94.018724)"
           sodipodi:nodetypes="cc" />
        <g
           inkscape:label=""
           transform="translate(43.189401,138.37872)"
           id="g776">
          <g
             id="g775"
             transform="matrix(0.352778,0,0,0.352778,-1.20469,-0.702116)">
            <g
               style="fill:#000000;fill-opacity:1"
               id="g770">
              <g
                 id="g769"
                 transform="translate(1.993,10.959)">
                <path
                   style="stroke:none"
                   d="m 1.90625,-8.53125 c 0,-0.21875 0,-0.4375 -0.25,-0.4375 -0.234375,0 -0.234375,0.21875 -0.234375,0.4375 V 2.5625 c 0,0.203125 0,0.421875 0.234375,0.421875 0.25,0 0.25,-0.21875 0.25,-0.421875 z m 0,0"
                   id="path769" />
              </g>
            </g>
            <g
               style="fill:#000000;fill-opacity:1"
               id="g772">
              <g
                 id="g771"
                 transform="translate(5.3130002,10.959)">
                <path
                   style="stroke:none"
                   d="m 5.359375,-3.828125 c 0,-0.984375 -0.0625,-1.953125 -0.5,-2.859375 -0.484375,-1 -1.34375,-1.265625 -1.9375,-1.265625 -0.6875,0 -1.53125,0.34375 -1.984375,1.34375 -0.328125,0.75 -0.453125,1.5 -0.453125,2.78125 0,1.15625 0.09375,2.03125 0.515625,2.890625 0.46875,0.90625 1.296875,1.1875 1.921875,1.1875 1.03125,0 1.625,-0.625 1.984375,-1.3125 0.421875,-0.890625 0.453125,-2.0625 0.453125,-2.765625 z m -2.4375,3.84375 C 2.53125,0.015625 1.75,-0.203125 1.53125,-1.5 c -0.125,-0.71875 -0.125,-1.625 -0.125,-2.46875 0,-0.984375 0,-1.859375 0.1875,-2.5625 0.203125,-0.8125 0.8125,-1.171875 1.328125,-1.171875 0.453125,0 1.140625,0.265625 1.375,1.296875 0.15625,0.6875 0.15625,1.625 0.15625,2.4375 0,0.796875 0,1.703125 -0.140625,2.4375 -0.21875,1.3125 -0.984375,1.546875 -1.390625,1.546875 z m 0,0"
                   id="path770" />
              </g>
            </g>
            <g
               style="fill:#000000;fill-opacity:1"
               id="g774">
              <g
                 id="g773"
                 transform="translate(11.166,10.959)">
                <path
                   style="stroke:none"
                   d="m 3.265625,-2.78125 c 0.0625,-0.140625 0.0625,-0.171875 0.0625,-0.203125 0,-0.046875 0,-0.0625 -0.0625,-0.203125 l -2.09375,-5.5 C 1.09375,-8.890625 1.03125,-8.96875 0.890625,-8.96875 c -0.125,0 -0.234375,0.109375 -0.234375,0.25 0,0.03125 0,0.046875 0.0625,0.1875 L 2.828125,-2.984375 0.71875,2.53125 C 0.65625,2.671875 0.65625,2.6875 0.65625,2.75 c 0,0.125 0.109375,0.234375 0.234375,0.234375 0.15625,0 0.203125,-0.109375 0.25,-0.234375 z m 0,0"
                   id="path772" />
              </g>
            </g>
          </g>
        </g>
      </g>
      <path
         style="fill:none;stroke:#000000;stroke-width:0.264583px;stroke-linecap:butt;stroke-linejoin:miter;stroke-opacity:1"
         d="m 33.260567,180.57568 3.905297,-4.36155"
         id="path778"
         inkscape:path-effect="#path-effect783"
         inkscape:original-d="m 33.260567,180.57568 c 1.301766,-1.45385 2.603531,-2.9077 3.905297,-4.36155"
         transform="translate(43.801784,24.691865)" />
      <g
         inkscape:label=""
         transform="translate(76.322082,199.53167)"
         id="g782">
        <g
           id="g781"
           transform="matrix(0.352778,0,0,0.352778,-0.818841,-0.660885)">
          <g
             style="fill:#000000;fill-opacity:1"
             id="g780">
            <g
               id="g779"
               transform="translate(1.993,7.1389999)">
              <path
                 style="stroke:none"
                 d="M 2.46875,-3.5 C 2.484375,-3.578125 2.78125,-4.171875 3.234375,-4.546875 3.53125,-4.84375 3.9375,-5.03125 4.40625,-5.03125 c 0.484375,0 0.65625,0.359375 0.65625,0.828125 0,0.6875 -0.5,2.046875 -0.734375,2.703125 -0.109375,0.28125 -0.171875,0.4375 -0.171875,0.65625 0,0.53125 0.375,0.96875 0.953125,0.96875 1.109375,0 1.53125,-1.765625 1.53125,-1.828125 0,-0.0625 -0.046875,-0.109375 -0.125,-0.109375 -0.109375,0 -0.125,0.03125 -0.1875,0.234375 C 6.0625,-0.59375 5.609375,-0.125 5.140625,-0.125 c -0.125,0 -0.3125,0 -0.3125,-0.390625 0,-0.296875 0.125,-0.65625 0.203125,-0.828125 C 5.265625,-2 5.765625,-3.328125 5.765625,-4.015625 c 0,-0.71875 -0.40625,-1.25 -1.3125,-1.25 -1.078125,0 -1.625,0.75 -1.84375,1.046875 -0.046875,-0.6875 -0.53125,-1.046875 -1.0625,-1.046875 -0.375,0 -0.640625,0.21875 -0.84375,0.625 -0.21875,0.4375 -0.375,1.15625 -0.375,1.203125 0,0.046875 0.046875,0.109375 0.125,0.109375 0.09375,0 0.109375,-0.015625 0.1875,-0.296875 0.1875,-0.71875 0.40625,-1.40625 0.875,-1.40625 0.28125,0 0.375,0.1875 0.375,0.546875 0,0.265625 -0.125,0.734375 -0.203125,1.109375 l -0.34375,1.28125 c -0.046875,0.234375 -0.171875,0.765625 -0.234375,0.984375 -0.078125,0.3125 -0.21875,0.875 -0.21875,0.9375 0,0.15625 0.140625,0.296875 0.3125,0.296875 0.140625,0 0.3125,-0.078125 0.40625,-0.25 C 1.640625,-0.1875 1.75,-0.609375 1.8125,-0.84375 l 0.25,-1.078125 z m 0,0"
                 id="path779" />
            </g>
          </g>
        </g>
      </g>
      <g
         id="g962"
         transform="translate(23.795885,44.713719)">
        <rect
           style="fill:none;fill-opacity:0.434037;stroke:#000000;stroke-width:0.264999"
           id="rect957"
           width="8.871088"
           height="8.0501518"
           x="43.03862"
           y="170.79131" />
        <g
           inkscape:label=""
           transform="translate(45.828784,173.08832)"
           id="g961">
          <g
             id="g960"
             transform="matrix(0.352778,0,0,0.352778,-0.912548,-0.704894)">
            <g
               style="fill:#000000;fill-opacity:1"
               id="g959">
              <g
                 id="g958"
                 transform="translate(1.993,11.795)">
                <path
                   style="stroke:none"
                   d="m 8.5625,-8.703125 c 0,-0.53125 0.046875,-0.671875 1.078125,-0.671875 h 0.28125 v -0.421875 c -0.34375,0.03125 -1.515625,0.03125 -1.9375,0.03125 -0.421875,0 -1.59375,0 -1.953125,-0.03125 V -9.375 h 0.296875 c 1.03125,0 1.078125,0.140625 1.078125,0.671875 V -5.3125 H 3.109375 V -8.703125 C 3.109375,-9.234375 3.15625,-9.375 4.1875,-9.375 h 0.28125 v -0.421875 c -0.34375,0.03125 -1.515625,0.03125 -1.9375,0.03125 -0.421875,0 -1.59375,0 -1.9375,-0.03125 V -9.375 H 0.875 c 1.03125,0 1.078125,0.140625 1.078125,0.671875 v 7.609375 c 0,0.53125 -0.046875,0.671875 -1.078125,0.671875 H 0.59375 V 0 c 0.34375,-0.03125 1.515625,-0.03125 1.9375,-0.03125 0.421875,0 1.59375,0 1.9375,0.03125 V -0.421875 H 4.1875 c -1.03125,0 -1.078125,-0.140625 -1.078125,-0.671875 V -4.890625 H 7.40625 v 3.796875 c 0,0.53125 -0.046875,0.671875 -1.078125,0.671875 H 6.03125 V 0 c 0.359375,-0.03125 1.53125,-0.03125 1.9375,-0.03125 0.4375,0 1.609375,0 1.953125,0.03125 V -0.421875 H 9.640625 C 8.609375,-0.421875 8.5625,-0.5625 8.5625,-1.09375 Z m 0,0"
                   id="path957" />
              </g>
            </g>
          </g>
        </g>
      </g>
    </g>
  </g>
</svg>
