<?xml version="1.0" encoding="UTF-8" standalone="no"?>
<!-- Created with Inkscape (http://www.inkscape.org/) -->

<svg
   width="104.40041mm"
   height="33.875324mm"
   viewBox="0 0 104.40041 33.875324"
   version="1.1"
   id="svg1"
   inkscape:version="1.3 (1:1.3+202307231459+0e150ed6c4)"
   sodipodi:docname="Uf.svg"
   xmlns:inkscape="http://www.inkscape.org/namespaces/inkscape"
   xmlns:sodipodi="http://sodipodi.sourceforge.net/DTD/sodipodi-0.dtd"
   xmlns="http://www.w3.org/2000/svg"
   xmlns:svg="http://www.w3.org/2000/svg">
  <sodipodi:namedview
     id="namedview1"
     pagecolor="#ffffff"
     bordercolor="#666666"
     borderopacity="1.0"
     inkscape:showpageshadow="2"
     inkscape:pageopacity="0.0"
     inkscape:pagecheckerboard="0"
     inkscape:deskcolor="#d1d1d1"
     inkscape:document-units="mm"
     inkscape:zoom="2"
     inkscape:cx="277.5"
     inkscape:cy="816.50001"
     inkscape:window-width="1920"
     inkscape:window-height="1016"
     inkscape:window-x="0"
     inkscape:window-y="27"
     inkscape:window-maximized="1"
     inkscape:current-layer="layer1" />
  <defs
     id="defs1">
    <inkscape:path-effect
       effect="spiro"
       id="path-effect738"
       is_visible="true"
       lpeversion="1" />
    <inkscape:path-effect
       effect="spiro"
       id="path-effect731"
       is_visible="true"
       lpeversion="1" />
    <inkscape:path-effect
       effect="spiro"
       id="path-effect715"
       is_visible="true"
       lpeversion="1" />
    <inkscape:path-effect
       effect="spiro"
       id="path-effect713"
       is_visible="true"
       lpeversion="1" />
    <inkscape:path-effect
       effect="spiro"
       id="path-effect711"
       is_visible="true"
       lpeversion="1" />
    <inkscape:path-effect
       effect="spiro"
       id="path-effect709"
       is_visible="true"
       lpeversion="1" />
    <inkscape:path-effect
       effect="spiro"
       id="path-effect707"
       is_visible="true"
       lpeversion="1" />
    <inkscape:path-effect
       effect="spiro"
       id="path-effect705"
       is_visible="true"
       lpeversion="1" />
    <inkscape:path-effect
       effect="spiro"
       id="path-effect703"
       is_visible="true"
       lpeversion="1" />
    <inkscape:path-effect
       effect="spiro"
       id="path-effect701"
       is_visible="true"
       lpeversion="1" />
    <inkscape:path-effect
       effect="spiro"
       id="path-effect699"
       is_visible="true"
       lpeversion="1" />
    <inkscape:path-effect
       effect="spiro"
       id="path-effect697"
       is_visible="true"
       lpeversion="1" />
    <inkscape:path-effect
       effect="spiro"
       id="path-effect695"
       is_visible="true"
       lpeversion="1" />
    <inkscape:path-effect
       effect="spiro"
       id="path-effect693"
       is_visible="true"
       lpeversion="1" />
    <inkscape:path-effect
       effect="spiro"
       id="path-effect691"
       is_visible="true"
       lpeversion="1" />
    <inkscape:path-effect
       effect="spiro"
       id="path-effect689"
       is_visible="true"
       lpeversion="1" />
    <inkscape:path-effect
       effect="spiro"
       id="path-effect687"
       is_visible="true"
       lpeversion="1" />
    <inkscape:path-effect
       effect="spiro"
       id="path-effect685"
       is_visible="true"
       lpeversion="1" />
    <inkscape:path-effect
       effect="spiro"
       id="path-effect683"
       is_visible="true"
       lpeversion="1" />
    <marker
       style="overflow:visible"
       id="DartArrow"
       refX="0"
       refY="0"
       orient="auto-start-reverse"
       inkscape:stockid="Dart arrow"
       markerWidth="1"
       markerHeight="1"
       viewBox="0 0 1 1"
       inkscape:isstock="true"
       inkscape:collect="always"
       preserveAspectRatio="xMidYMid">
      <path
         style="fill:context-stroke;fill-rule:evenodd;stroke:none"
         d="M 0,0 5,-5 -12.5,0 5,5 Z"
         transform="scale(-0.5)"
         id="path325" />
    </marker>
  </defs>
  <g
     inkscape:label="Capa 1"
     inkscape:groupmode="layer"
     id="layer1"
     transform="translate(-32.416993,-221.48843)">
    <g
       id="g738">
      <rect
         style="fill:none;fill-opacity:0.434037;stroke:#000000;stroke-width:0.264999"
         id="rect522"
         width="31.495415"
         height="27.605169"
         x="69.43969"
         y="221.62094" />
      <g
         inkscape:label=""
         transform="matrix(2.0291859,0,0,2.0291859,81.548023,232.8033)"
         id="g528">
        <g
           id="g527"
           transform="matrix(0.352778,0,0,0.352778,-0.940109,-0.701146)">
          <g
             style="fill:#000000;fill-opacity:1"
             id="g524">
            <g
               id="g523"
               transform="translate(1.993,8.8000002)">
              <path
                 style="stroke:none"
                 d="M 6.328125,-5.765625 C 6.4375,-6.171875 6.609375,-6.46875 7.40625,-6.5 c 0.046875,0 0.171875,-0.015625 0.171875,-0.203125 0,0 0,-0.109375 -0.125,-0.109375 -0.328125,0 -0.6875,0.03125 -1.015625,0.03125 -0.34375,0 -0.71875,-0.03125 -1.046875,-0.03125 -0.0625,0 -0.171875,0 -0.171875,0.203125 C 5.21875,-6.5 5.3125,-6.5 5.390625,-6.5 c 0.578125,0.015625 0.6875,0.21875 0.6875,0.4375 0,0.03125 -0.03125,0.1875 -0.03125,0.203125 l -0.90625,3.5625 C 4.8125,-0.953125 3.65625,-0.09375 2.65625,-0.09375 c -0.671875,0 -1.203125,-0.4375 -1.203125,-1.296875 0,-0.015625 0,-0.328125 0.109375,-0.765625 L 2.515625,-6.046875 C 2.609375,-6.40625 2.625,-6.5 3.359375,-6.5 c 0.265625,0 0.34375,0 0.34375,-0.203125 0,-0.109375 -0.109375,-0.109375 -0.140625,-0.109375 -0.28125,0 -1,0.03125 -1.28125,0.03125 -0.28125,0 -1,-0.03125 -1.28125,-0.03125 -0.078125,0 -0.1875,0 -0.1875,0.203125 C 0.8125,-6.5 0.890625,-6.5 1.09375,-6.5 c 0.015625,0 0.203125,0 0.375,0.015625 0.171875,0.03125 0.265625,0.03125 0.265625,0.171875 0,0.046875 -0.109375,0.46875 -0.171875,0.703125 l -0.21875,0.875 C 1.25,-4.34375 0.78125,-2.46875 0.734375,-2.265625 0.671875,-2 0.671875,-1.84375 0.671875,-1.6875 c 0,1.203125 0.90625,1.90625 1.953125,1.90625 1.25,0 2.484375,-1.125 2.8125,-2.4375 z m 0,0"
                 id="path522" />
            </g>
          </g>
          <g
             style="fill:#000000;fill-opacity:1"
             id="g526">
            <g
               id="g525"
               transform="translate(8.7950001,10.294)">
              <path
                 style="stroke:none"
                 d="M 2.84375,-2.75 H 3.515625 C 3.65625,-2.75 3.75,-2.75 3.75,-2.90625 3.75,-3 3.65625,-3 3.53125,-3 H 2.890625 c 0.15625,-0.890625 0.203125,-1.203125 0.265625,-1.40625 0.03125,-0.15625 0.1875,-0.296875 0.359375,-0.296875 0,0 0.1875,0 0.328125,0.078125 -0.296875,0.09375 -0.3125,0.34375 -0.3125,0.375 0,0.15625 0.125,0.265625 0.28125,0.265625 0.1875,0 0.390625,-0.15625 0.390625,-0.421875 0,-0.328125 -0.328125,-0.5 -0.6875,-0.5 -0.3125,0 -0.65625,0.171875 -0.84375,0.515625 C 2.53125,-4.125 2.484375,-3.8125 2.328125,-3 H 1.78125 c -0.140625,0 -0.234375,0 -0.234375,0.15625 0,0.09375 0.09375,0.09375 0.21875,0.09375 H 2.28125 c 0,0.046875 -0.4375,2.546875 -0.609375,3.296875 -0.03125,0.15625 -0.15625,0.671875 -0.484375,0.671875 -0.015625,0 -0.171875,0 -0.3125,-0.078125 0.28125,-0.09375 0.3125,-0.34375 0.3125,-0.375 C 1.1875,0.609375 1.0625,0.5 0.90625,0.5 c -0.1875,0 -0.390625,0.15625 -0.390625,0.421875 0,0.3125 0.328125,0.5 0.671875,0.5 0.4375,0 0.75,-0.453125 0.828125,-0.609375 0.25,-0.46875 0.421875,-1.328125 0.4375,-1.40625 z m 0,0"
                 id="path524" />
            </g>
          </g>
        </g>
      </g>
      <g
         inkscape:label=""
         transform="translate(82.802649,241.83465)"
         id="g546">
        <g
           id="g545"
           transform="matrix(0.352778,0,0,0.352778,-1.20469,-0.702116)">
          <g
             style="fill:#000000;fill-opacity:1"
             id="g530">
            <g
               id="g529"
               transform="translate(1.993,10.959)">
              <path
                 style="stroke:none"
                 d="m 1.90625,-8.53125 c 0,-0.21875 0,-0.4375 -0.25,-0.4375 -0.234375,0 -0.234375,0.21875 -0.234375,0.4375 V 2.5625 c 0,0.203125 0,0.421875 0.234375,0.421875 0.25,0 0.25,-0.21875 0.25,-0.421875 z m 0,0"
                 id="path528" />
            </g>
          </g>
          <g
             style="fill:#000000;fill-opacity:1"
             id="g532">
            <g
               id="g531"
               transform="translate(5.3130002,10.959)">
              <path
                 style="stroke:none"
                 d="m 3.140625,1.34375 c -0.3125,0.453125 -0.78125,0.859375 -1.375,0.859375 C 1.625,2.203125 1.046875,2.171875 0.875,1.625 c 0.03125,0.015625 0.09375,0.015625 0.109375,0.015625 0.359375,0 0.609375,-0.3125 0.609375,-0.59375 C 1.59375,0.78125 1.359375,0.6875 1.1875,0.6875 c -0.203125,0 -0.609375,0.140625 -0.609375,0.71875 0,0.609375 0.515625,1.03125 1.1875,1.03125 C 2.96875,2.4375 4.171875,1.34375 4.5,0.015625 L 5.671875,-4.65625 C 5.6875,-4.703125 5.71875,-4.78125 5.71875,-4.859375 5.71875,-5.03125 5.5625,-5.15625 5.390625,-5.15625 5.28125,-5.15625 5.03125,-5.109375 4.9375,-4.75 L 4.046875,-1.234375 C 4,-1.015625 4,-0.984375 3.890625,-0.859375 3.65625,-0.53125 3.265625,-0.125 2.6875,-0.125 c -0.671875,0 -0.734375,-0.65625 -0.734375,-0.96875 0,-0.6875 0.328125,-1.609375 0.65625,-2.46875 0.125,-0.34375 0.203125,-0.515625 0.203125,-0.75 0,-0.5 -0.359375,-0.953125 -0.953125,-0.953125 -1.09375,0 -1.53125,1.734375 -1.53125,1.828125 0,0.046875 0.046875,0.109375 0.125,0.109375 0.109375,0 0.125,-0.046875 0.171875,-0.21875 0.28125,-1 0.734375,-1.484375 1.203125,-1.484375 0.109375,0 0.3125,0 0.3125,0.390625 0,0.3125 -0.125,0.65625 -0.3125,1.109375 C 1.25,-1.953125 1.25,-1.5625 1.25,-1.28125 1.25,-0.140625 2.0625,0.125 2.65625,0.125 3,0.125 3.4375,0.015625 3.84375,-0.4375 l 0.015625,0.015625 C 3.6875,0.28125 3.5625,0.75 3.140625,1.34375 Z m 0,0"
                 id="path530" />
            </g>
          </g>
          <g
             style="fill:#000000;fill-opacity:1"
             id="g534">
            <g
               id="g533"
               transform="translate(14.107,10.959)">
              <path
                 style="stroke:none"
                 d="m 8.625,-2.984375 c 0,-2.203125 -1.78125,-3.984375 -3.96875,-3.984375 -2.234375,0 -4,1.8125 -4,3.984375 0,2.203125 1.796875,3.96875 3.984375,3.96875 2.21875,0 3.984375,-1.796875 3.984375,-3.96875 z M 0.953125,-3.140625 C 1.078125,-5.15625 2.625,-6.578125 4.5,-6.671875 v 3.53125 z m 3.84375,-3.53125 c 1.875,0.09375 3.421875,1.53125 3.53125,3.53125 H 4.796875 Z M 4.5,0.6875 C 2.640625,0.59375 1.078125,-0.796875 0.953125,-2.84375 H 4.5 Z m 3.828125,-3.53125 c -0.109375,2.046875 -1.6875,3.4375 -3.53125,3.53125 v -3.53125 z m 0,0"
                 id="path532" />
            </g>
          </g>
          <g
             style="fill:#000000;fill-opacity:1"
             id="g536">
            <g
               id="g535"
               transform="translate(26.062,10.959)">
              <path
                 style="stroke:none"
                 d="m 5.328125,-4.8125 c 0.234375,0 0.34375,0 0.34375,-0.21875 0,-0.125 -0.109375,-0.125 -0.3125,-0.125 H 4.390625 C 4.609375,-6.390625 4.78125,-7.234375 4.875,-7.609375 c 0.078125,-0.296875 0.328125,-0.5625 0.640625,-0.5625 0.25,0 0.5,0.109375 0.609375,0.21875 -0.453125,0.046875 -0.609375,0.390625 -0.609375,0.59375 0,0.234375 0.1875,0.375 0.40625,0.375 0.25,0 0.609375,-0.203125 0.609375,-0.65625 0,-0.5 -0.5,-0.78125 -1.03125,-0.78125 -0.515625,0 -1.015625,0.390625 -1.25,0.859375 -0.21875,0.421875 -0.34375,0.84375 -0.609375,2.40625 h -0.8125 c -0.21875,0 -0.34375,0 -0.34375,0.21875 0,0.125 0.078125,0.125 0.3125,0.125 H 3.5625 C 3.34375,-3.6875 2.859375,-0.984375 2.578125,0.28125 2.375,1.328125 2.203125,2.203125 1.609375,2.203125 1.5625,2.203125 1.21875,2.203125 1,1.96875 1.609375,1.921875 1.609375,1.40625 1.609375,1.390625 1.609375,1.140625 1.4375,1 1.203125,1 0.96875,1 0.609375,1.203125 0.609375,1.65625 c 0,0.515625 0.53125,0.78125 1,0.78125 1.21875,0 1.71875,-2.1875 1.84375,-2.78125 C 3.671875,-1.265625 4.25,-4.453125 4.3125,-4.8125 Z m 0,0"
                 id="path534" />
            </g>
          </g>
          <g
             style="fill:#000000;fill-opacity:1"
             id="g538">
            <g
               id="g537"
               transform="translate(33.108002,10.959)">
              <path
                 style="stroke:none"
                 d="m 3.890625,2.90625 c 0,-0.03125 0,-0.0625 -0.203125,-0.265625 C 2.484375,1.4375 1.8125,-0.53125 1.8125,-2.96875 c 0,-2.328125 0.5625,-4.328125 1.953125,-5.734375 0.125,-0.109375 0.125,-0.125 0.125,-0.171875 0,-0.0625 -0.0625,-0.09375 -0.109375,-0.09375 -0.15625,0 -1.140625,0.859375 -1.71875,2.03125 -0.609375,1.21875 -0.890625,2.484375 -0.890625,3.96875 0,1.0625 0.171875,2.484375 0.78125,3.75 C 2.671875,2.21875 3.640625,3 3.78125,3 3.828125,3 3.890625,2.96875 3.890625,2.90625 Z m 0,0"
                 id="path536" />
            </g>
          </g>
          <g
             style="fill:#000000;fill-opacity:1"
             id="g540">
            <g
               id="g539"
               transform="translate(37.660999,10.959)">
              <path
                 style="stroke:none"
                 d="m 5.671875,-4.875 c -0.390625,0.0625 -0.53125,0.359375 -0.53125,0.578125 0,0.296875 0.21875,0.390625 0.390625,0.390625 0.359375,0 0.609375,-0.3125 0.609375,-0.640625 0,-0.5 -0.578125,-0.71875 -1.078125,-0.71875 -0.71875,0 -1.125,0.71875 -1.234375,0.9375 -0.28125,-0.890625 -1.015625,-0.9375 -1.234375,-0.9375 -1.21875,0 -1.859375,1.5625 -1.859375,1.828125 0,0.046875 0.046875,0.109375 0.125,0.109375 0.09375,0 0.125,-0.078125 0.140625,-0.125 0.40625,-1.328125 1.21875,-1.578125 1.5625,-1.578125 0.53125,0 0.640625,0.5 0.640625,0.78125 0,0.265625 -0.078125,0.546875 -0.21875,1.125 L 2.578125,-1.5 c -0.171875,0.71875 -0.515625,1.375 -1.15625,1.375 -0.0625,0 -0.359375,0 -0.609375,-0.15625 C 1.25,-0.359375 1.34375,-0.71875 1.34375,-0.859375 1.34375,-1.09375 1.15625,-1.25 0.9375,-1.25 c -0.296875,0 -0.609375,0.265625 -0.609375,0.640625 0,0.5 0.5625,0.734375 1.078125,0.734375 0.578125,0 0.984375,-0.453125 1.234375,-0.953125 C 2.828125,-0.125 3.4375,0.125 3.875,0.125 5.09375,0.125 5.734375,-1.453125 5.734375,-1.703125 5.734375,-1.765625 5.6875,-1.8125 5.625,-1.8125 5.515625,-1.8125 5.5,-1.75 5.46875,-1.65625 5.140625,-0.609375 4.453125,-0.125 3.90625,-0.125 3.484375,-0.125 3.265625,-0.4375 3.265625,-0.921875 3.265625,-1.1875 3.3125,-1.375 3.5,-2.15625 L 3.921875,-3.796875 C 4.09375,-4.5 4.5,-5.03125 5.0625,-5.03125 c 0.015625,0 0.359375,0 0.609375,0.15625 z m 0,0"
                 id="path538" />
            </g>
          </g>
          <g
             style="fill:#000000;fill-opacity:1"
             id="g542">
            <g
               id="g541"
               transform="translate(44.313,10.959)">
              <path
                 style="stroke:none"
                 d="M 3.375,-2.96875 C 3.375,-3.890625 3.25,-5.359375 2.578125,-6.75 1.875,-8.1875 0.890625,-8.96875 0.765625,-8.96875 c -0.046875,0 -0.109375,0.03125 -0.109375,0.09375 0,0.046875 0,0.0625 0.203125,0.265625 1.203125,1.203125 1.859375,3.1875 1.859375,5.625 0,2.3125 -0.5625,4.3125 -1.9375,5.71875 C 0.65625,2.84375 0.65625,2.875 0.65625,2.90625 0.65625,2.96875 0.71875,3 0.765625,3 0.921875,3 1.90625,2.140625 2.484375,0.96875 3.09375,-0.25 3.375,-1.546875 3.375,-2.96875 Z m 0,0"
                 id="path540" />
            </g>
          </g>
          <g
             style="fill:#000000;fill-opacity:1"
             id="g544">
            <g
               id="g543"
               transform="translate(48.865002,10.959)">
              <path
                 style="stroke:none"
                 d="m 3.265625,-2.78125 c 0.0625,-0.140625 0.0625,-0.171875 0.0625,-0.203125 0,-0.046875 0,-0.0625 -0.0625,-0.203125 l -2.09375,-5.5 C 1.09375,-8.890625 1.03125,-8.96875 0.890625,-8.96875 c -0.125,0 -0.234375,0.109375 -0.234375,0.25 0,0.03125 0,0.046875 0.0625,0.1875 L 2.828125,-2.984375 0.71875,2.53125 C 0.65625,2.671875 0.65625,2.6875 0.65625,2.75 c 0,0.125 0.109375,0.234375 0.234375,0.234375 0.15625,0 0.203125,-0.109375 0.25,-0.234375 z m 0,0"
                 id="path542" />
            </g>
          </g>
        </g>
      </g>
      <g
         inkscape:label=""
         transform="translate(70.421797,224.89483)"
         id="g554">
        <g
           id="g553"
           transform="matrix(0.352778,0,0,0.352778,-1.20469,-0.702116)">
          <g
             style="fill:#000000;fill-opacity:1"
             id="g548">
            <g
               id="g547"
               transform="translate(1.993,10.959)">
              <path
                 style="stroke:none"
                 d="m 1.90625,-8.53125 c 0,-0.21875 0,-0.4375 -0.25,-0.4375 -0.234375,0 -0.234375,0.21875 -0.234375,0.4375 V 2.5625 c 0,0.203125 0,0.421875 0.234375,0.421875 0.25,0 0.25,-0.21875 0.25,-0.421875 z m 0,0"
                 id="path546" />
            </g>
          </g>
          <g
             style="fill:#000000;fill-opacity:1"
             id="g550">
            <g
               id="g549"
               transform="translate(5.3130002,10.959)">
              <path
                 style="stroke:none"
                 d="m 5.671875,-4.875 c -0.390625,0.0625 -0.53125,0.359375 -0.53125,0.578125 0,0.296875 0.21875,0.390625 0.390625,0.390625 0.359375,0 0.609375,-0.3125 0.609375,-0.640625 0,-0.5 -0.578125,-0.71875 -1.078125,-0.71875 -0.71875,0 -1.125,0.71875 -1.234375,0.9375 -0.28125,-0.890625 -1.015625,-0.9375 -1.234375,-0.9375 -1.21875,0 -1.859375,1.5625 -1.859375,1.828125 0,0.046875 0.046875,0.109375 0.125,0.109375 0.09375,0 0.125,-0.078125 0.140625,-0.125 0.40625,-1.328125 1.21875,-1.578125 1.5625,-1.578125 0.53125,0 0.640625,0.5 0.640625,0.78125 0,0.265625 -0.078125,0.546875 -0.21875,1.125 L 2.578125,-1.5 c -0.171875,0.71875 -0.515625,1.375 -1.15625,1.375 -0.0625,0 -0.359375,0 -0.609375,-0.15625 C 1.25,-0.359375 1.34375,-0.71875 1.34375,-0.859375 1.34375,-1.09375 1.15625,-1.25 0.9375,-1.25 c -0.296875,0 -0.609375,0.265625 -0.609375,0.640625 0,0.5 0.5625,0.734375 1.078125,0.734375 0.578125,0 0.984375,-0.453125 1.234375,-0.953125 C 2.828125,-0.125 3.4375,0.125 3.875,0.125 5.09375,0.125 5.734375,-1.453125 5.734375,-1.703125 5.734375,-1.765625 5.6875,-1.8125 5.625,-1.8125 5.515625,-1.8125 5.5,-1.75 5.46875,-1.65625 5.140625,-0.609375 4.453125,-0.125 3.90625,-0.125 3.484375,-0.125 3.265625,-0.4375 3.265625,-0.921875 3.265625,-1.1875 3.3125,-1.375 3.5,-2.15625 L 3.921875,-3.796875 C 4.09375,-4.5 4.5,-5.03125 5.0625,-5.03125 c 0.015625,0 0.359375,0 0.609375,0.15625 z m 0,0"
                 id="path548" />
            </g>
          </g>
          <g
             style="fill:#000000;fill-opacity:1"
             id="g552">
            <g
               id="g551"
               transform="translate(11.965,10.959)">
              <path
                 style="stroke:none"
                 d="m 3.265625,-2.78125 c 0.0625,-0.140625 0.0625,-0.171875 0.0625,-0.203125 0,-0.046875 0,-0.0625 -0.0625,-0.203125 l -2.09375,-5.5 C 1.09375,-8.890625 1.03125,-8.96875 0.890625,-8.96875 c -0.125,0 -0.234375,0.109375 -0.234375,0.25 0,0.03125 0,0.046875 0.0625,0.1875 L 2.828125,-2.984375 0.71875,2.53125 C 0.65625,2.671875 0.65625,2.6875 0.65625,2.75 c 0,0.125 0.109375,0.234375 0.234375,0.234375 0.15625,0 0.203125,-0.109375 0.25,-0.234375 z m 0,0"
                 id="path550" />
            </g>
          </g>
        </g>
      </g>
      <g
         inkscape:label=""
         transform="translate(95.820158,224.95239)"
         id="g562">
        <g
           id="g561"
           transform="matrix(0.352778,0,0,0.352778,-1.20469,-0.702116)">
          <g
             style="fill:#000000;fill-opacity:1"
             id="g556">
            <g
               id="g555"
               transform="translate(1.993,10.959)">
              <path
                 style="stroke:none"
                 d="m 1.90625,-8.53125 c 0,-0.21875 0,-0.4375 -0.25,-0.4375 -0.234375,0 -0.234375,0.21875 -0.234375,0.4375 V 2.5625 c 0,0.203125 0,0.421875 0.234375,0.421875 0.25,0 0.25,-0.21875 0.25,-0.421875 z m 0,0"
                 id="path554" />
            </g>
          </g>
          <g
             style="fill:#000000;fill-opacity:1"
             id="g558">
            <g
               id="g557"
               transform="translate(5.3130002,10.959)">
              <path
                 style="stroke:none"
                 d="m 5.671875,-4.875 c -0.390625,0.0625 -0.53125,0.359375 -0.53125,0.578125 0,0.296875 0.21875,0.390625 0.390625,0.390625 0.359375,0 0.609375,-0.3125 0.609375,-0.640625 0,-0.5 -0.578125,-0.71875 -1.078125,-0.71875 -0.71875,0 -1.125,0.71875 -1.234375,0.9375 -0.28125,-0.890625 -1.015625,-0.9375 -1.234375,-0.9375 -1.21875,0 -1.859375,1.5625 -1.859375,1.828125 0,0.046875 0.046875,0.109375 0.125,0.109375 0.09375,0 0.125,-0.078125 0.140625,-0.125 0.40625,-1.328125 1.21875,-1.578125 1.5625,-1.578125 0.53125,0 0.640625,0.5 0.640625,0.78125 0,0.265625 -0.078125,0.546875 -0.21875,1.125 L 2.578125,-1.5 c -0.171875,0.71875 -0.515625,1.375 -1.15625,1.375 -0.0625,0 -0.359375,0 -0.609375,-0.15625 C 1.25,-0.359375 1.34375,-0.71875 1.34375,-0.859375 1.34375,-1.09375 1.15625,-1.25 0.9375,-1.25 c -0.296875,0 -0.609375,0.265625 -0.609375,0.640625 0,0.5 0.5625,0.734375 1.078125,0.734375 0.578125,0 0.984375,-0.453125 1.234375,-0.953125 C 2.828125,-0.125 3.4375,0.125 3.875,0.125 5.09375,0.125 5.734375,-1.453125 5.734375,-1.703125 5.734375,-1.765625 5.6875,-1.8125 5.625,-1.8125 5.515625,-1.8125 5.5,-1.75 5.46875,-1.65625 5.140625,-0.609375 4.453125,-0.125 3.90625,-0.125 3.484375,-0.125 3.265625,-0.4375 3.265625,-0.921875 3.265625,-1.1875 3.3125,-1.375 3.5,-2.15625 L 3.921875,-3.796875 C 4.09375,-4.5 4.5,-5.03125 5.0625,-5.03125 c 0.015625,0 0.359375,0 0.609375,0.15625 z m 0,0"
                 id="path556" />
            </g>
          </g>
          <g
             style="fill:#000000;fill-opacity:1"
             id="g560">
            <g
               id="g559"
               transform="translate(11.965,10.959)">
              <path
                 style="stroke:none"
                 d="m 3.265625,-2.78125 c 0.0625,-0.140625 0.0625,-0.171875 0.0625,-0.203125 0,-0.046875 0,-0.0625 -0.0625,-0.203125 l -2.09375,-5.5 C 1.09375,-8.890625 1.03125,-8.96875 0.890625,-8.96875 c -0.125,0 -0.234375,0.109375 -0.234375,0.25 0,0.03125 0,0.046875 0.0625,0.1875 L 2.828125,-2.984375 0.71875,2.53125 C 0.65625,2.671875 0.65625,2.6875 0.65625,2.75 c 0,0.125 0.109375,0.234375 0.234375,0.234375 0.15625,0 0.203125,-0.109375 0.25,-0.234375 z m 0,0"
                 id="path558" />
            </g>
          </g>
        </g>
      </g>
      <g
         inkscape:label=""
         transform="translate(70.421797,241.8374)"
         id="g570">
        <g
           id="g569"
           transform="matrix(0.352778,0,0,0.352778,-1.20469,-0.702116)">
          <g
             style="fill:#000000;fill-opacity:1"
             id="g564">
            <g
               id="g563"
               transform="translate(1.993,10.959)">
              <path
                 style="stroke:none"
                 d="m 1.90625,-8.53125 c 0,-0.21875 0,-0.4375 -0.25,-0.4375 -0.234375,0 -0.234375,0.21875 -0.234375,0.4375 V 2.5625 c 0,0.203125 0,0.421875 0.234375,0.421875 0.25,0 0.25,-0.21875 0.25,-0.421875 z m 0,0"
                 id="path562" />
            </g>
          </g>
          <g
             style="fill:#000000;fill-opacity:1"
             id="g566">
            <g
               id="g565"
               transform="translate(5.3130002,10.959)">
              <path
                 style="stroke:none"
                 d="m 3.140625,1.34375 c -0.3125,0.453125 -0.78125,0.859375 -1.375,0.859375 C 1.625,2.203125 1.046875,2.171875 0.875,1.625 c 0.03125,0.015625 0.09375,0.015625 0.109375,0.015625 0.359375,0 0.609375,-0.3125 0.609375,-0.59375 C 1.59375,0.78125 1.359375,0.6875 1.1875,0.6875 c -0.203125,0 -0.609375,0.140625 -0.609375,0.71875 0,0.609375 0.515625,1.03125 1.1875,1.03125 C 2.96875,2.4375 4.171875,1.34375 4.5,0.015625 L 5.671875,-4.65625 C 5.6875,-4.703125 5.71875,-4.78125 5.71875,-4.859375 5.71875,-5.03125 5.5625,-5.15625 5.390625,-5.15625 5.28125,-5.15625 5.03125,-5.109375 4.9375,-4.75 L 4.046875,-1.234375 C 4,-1.015625 4,-0.984375 3.890625,-0.859375 3.65625,-0.53125 3.265625,-0.125 2.6875,-0.125 c -0.671875,0 -0.734375,-0.65625 -0.734375,-0.96875 0,-0.6875 0.328125,-1.609375 0.65625,-2.46875 0.125,-0.34375 0.203125,-0.515625 0.203125,-0.75 0,-0.5 -0.359375,-0.953125 -0.953125,-0.953125 -1.09375,0 -1.53125,1.734375 -1.53125,1.828125 0,0.046875 0.046875,0.109375 0.125,0.109375 0.109375,0 0.125,-0.046875 0.171875,-0.21875 0.28125,-1 0.734375,-1.484375 1.203125,-1.484375 0.109375,0 0.3125,0 0.3125,0.390625 0,0.3125 -0.125,0.65625 -0.3125,1.109375 C 1.25,-1.953125 1.25,-1.5625 1.25,-1.28125 1.25,-0.140625 2.0625,0.125 2.65625,0.125 3,0.125 3.4375,0.015625 3.84375,-0.4375 l 0.015625,0.015625 C 3.6875,0.28125 3.5625,0.75 3.140625,1.34375 Z m 0,0"
                 id="path564" />
            </g>
          </g>
          <g
             style="fill:#000000;fill-opacity:1"
             id="g568">
            <g
               id="g567"
               transform="translate(11.45,10.959)">
              <path
                 style="stroke:none"
                 d="m 3.265625,-2.78125 c 0.0625,-0.140625 0.0625,-0.171875 0.0625,-0.203125 0,-0.046875 0,-0.0625 -0.0625,-0.203125 l -2.09375,-5.5 C 1.09375,-8.890625 1.03125,-8.96875 0.890625,-8.96875 c -0.125,0 -0.234375,0.109375 -0.234375,0.25 0,0.03125 0,0.046875 0.0625,0.1875 L 2.828125,-2.984375 0.71875,2.53125 C 0.65625,2.671875 0.65625,2.6875 0.65625,2.75 c 0,0.125 0.109375,0.234375 0.234375,0.234375 0.15625,0 0.203125,-0.109375 0.25,-0.234375 z m 0,0"
                 id="path566" />
            </g>
          </g>
        </g>
      </g>
      <path
         style="fill:none;stroke:#000000;stroke-width:0.264583px;stroke-linecap:butt;stroke-linejoin:miter;stroke-opacity:1"
         d="m 106.34147,46.550495 h 6.35865"
         id="path580"
         inkscape:path-effect="#path-effect683"
         inkscape:original-d="m 106.34147,46.550495 c 9.18309,-0.03612 -2.77292,0 6.35865,0"
         transform="translate(-43.134055,197.39531)"
         sodipodi:nodetypes="cc" />
      <path
         style="fill:none;stroke:#000000;stroke-width:0.264583px;stroke-linecap:butt;stroke-linejoin:miter;stroke-opacity:1"
         d="m 106.03843,46.550495 h 15.72884"
         id="path581"
         inkscape:path-effect="#path-effect685"
         inkscape:original-d="m 106.03843,46.550495 c 9.18309,-0.03612 6.59727,0 15.72884,0"
         transform="translate(-58.479898,197.39531)"
         sodipodi:nodetypes="cc" />
      <path
         style="fill:none;stroke:#000000;stroke-width:0.264583px;stroke-linecap:butt;stroke-linejoin:miter;stroke-opacity:1"
         d="M 99.768395,46.550495 H 112.70012"
         id="path582"
         inkscape:path-effect="#path-effect687"
         inkscape:original-d="m 99.768395,46.550495 c 9.183095,-0.03612 3.800155,0 12.931725,0"
         transform="translate(-58.479898,180.4261)"
         sodipodi:nodetypes="cc" />
      <path
         style="fill:none;stroke:#000000;stroke-width:0.264583px;stroke-linecap:butt;stroke-linejoin:miter;stroke-opacity:1"
         d="m 106.03843,46.550495 h 6.66169"
         id="path583"
         inkscape:path-effect="#path-effect689"
         inkscape:original-d="m 106.03843,46.550495 c 9.18309,-0.03612 -2.46988,0 6.66169,0"
         transform="translate(-64.829902,197.39531)"
         sodipodi:nodetypes="cc" />
      <path
         style="fill:none;stroke:#000000;stroke-width:0.264583px;stroke-linecap:butt;stroke-linejoin:miter;stroke-opacity:1"
         d="m 106.34147,46.550495 h 6.35865"
         id="path584"
         inkscape:path-effect="#path-effect691"
         inkscape:original-d="m 106.34147,46.550495 c 9.18309,-0.03612 -2.77292,0 6.35865,0"
         transform="translate(-43.134055,180.46187)"
         sodipodi:nodetypes="cc" />
      <g
         inkscape:label=""
         transform="translate(47.685656,251.14696)"
         id="g594">
        <g
           id="g593"
           transform="matrix(0.352778,0,0,0.352778,-1.20469,-0.702116)">
          <g
             style="fill:#000000;fill-opacity:1"
             id="g586">
            <g
               id="g585"
               transform="translate(1.993,10.959)">
              <path
                 style="stroke:none"
                 d="m 1.90625,-8.53125 c 0,-0.21875 0,-0.4375 -0.25,-0.4375 -0.234375,0 -0.234375,0.21875 -0.234375,0.4375 V 2.5625 c 0,0.203125 0,0.421875 0.234375,0.421875 0.25,0 0.25,-0.21875 0.25,-0.421875 z m 0,0"
                 id="path585" />
            </g>
          </g>
          <g
             style="fill:#000000;fill-opacity:1"
             id="g588">
            <g
               id="g587"
               transform="translate(5.3130002,10.959)">
              <path
                 style="stroke:none"
                 d="m 5.625,-8.015625 c 0,0 0.046875,-0.15625 0.046875,-0.171875 0,-0.109375 -0.109375,-0.109375 -0.140625,-0.109375 -0.109375,0 -0.109375,0.0625 -0.171875,0.234375 l -1.96875,7.921875 c -0.984375,-0.125 -1.359375,-0.625 -1.359375,-1.34375 0,-0.265625 0,-0.53125 0.5625,-2.015625 C 2.75,-3.9375 2.8125,-4.09375 2.8125,-4.296875 c 0,-0.546875 -0.390625,-0.96875 -0.953125,-0.96875 -1.09375,0 -1.53125,1.734375 -1.53125,1.828125 0,0.046875 0.046875,0.109375 0.125,0.109375 0.109375,0 0.125,-0.046875 0.171875,-0.21875 0.28125,-1.046875 0.765625,-1.484375 1.203125,-1.484375 0.109375,0 0.3125,0.015625 0.3125,0.390625 0,0.046875 0,0.3125 -0.203125,0.84375 -0.640625,1.6875 -0.640625,1.953125 -0.640625,2.234375 0,1.140625 0.953125,1.59375 2.03125,1.671875 -0.09375,0.375 -0.1875,0.75 -0.28125,1.125 -0.1875,0.71875 -0.28125,1.046875 -0.28125,1.09375 0,0.109375 0.109375,0.109375 0.140625,0.109375 0.015625,0 0.0625,0 0.09375,-0.046875 C 3.046875,2.34375 3.53125,0.328125 3.578125,0.125 c 0.453125,0 1.390625,0 2.46875,-1.109375 0.390625,-0.4375 0.75,-0.984375 0.953125,-1.5 0.125,-0.3125 0.40625,-1.375 0.40625,-1.984375 0,-0.71875 -0.359375,-0.796875 -0.46875,-0.796875 -0.296875,0 -0.546875,0.28125 -0.546875,0.515625 0,0.140625 0.078125,0.234375 0.125,0.28125 0.109375,0.109375 0.421875,0.421875 0.421875,1.046875 0,0.4375 -0.234375,1.3125 -1,2.171875 -1,1.125 -1.921875,1.125 -2.28125,1.125 z m 0,0"
                 id="path586" />
            </g>
          </g>
          <g
             style="fill:#000000;fill-opacity:1"
             id="g590">
            <g
               id="g589"
               transform="translate(12.924,12.752)">
              <path
                 style="stroke:none"
                 d="m 3.890625,-2.546875 c 0,-0.84375 -0.078125,-1.359375 -0.34375,-1.875 -0.34375,-0.703125 -1,-0.875 -1.4375,-0.875 -1,0 -1.375,0.75 -1.484375,0.96875 -0.28125,0.578125 -0.296875,1.375 -0.296875,1.78125 0,0.53125 0.015625,1.328125 0.40625,1.96875 0.359375,0.59375 0.953125,0.75 1.375,0.75 0.390625,0 1.0625,-0.125 1.46875,-0.90625 0.296875,-0.578125 0.3125,-1.296875 0.3125,-1.8125 z M 2.109375,-0.0625 C 1.84375,-0.0625 1.296875,-0.1875 1.125,-1.015625 1.03125,-1.46875 1.03125,-2.21875 1.03125,-2.640625 1.03125,-3.1875 1.03125,-3.75 1.125,-4.1875 1.296875,-5 1.90625,-5.078125 2.109375,-5.078125 c 0.265625,0 0.828125,0.140625 0.984375,0.859375 0.09375,0.4375 0.09375,1.046875 0.09375,1.578125 0,0.46875 0,1.1875 -0.09375,1.640625 -0.171875,0.828125 -0.71875,0.9375 -0.984375,0.9375 z m 0,0"
                 id="path588" />
            </g>
          </g>
          <g
             style="fill:#000000;fill-opacity:1"
             id="g592">
            <g
               id="g591"
               transform="translate(17.656,10.959)">
              <path
                 style="stroke:none"
                 d="m 3.265625,-2.78125 c 0.0625,-0.140625 0.0625,-0.171875 0.0625,-0.203125 0,-0.046875 0,-0.0625 -0.0625,-0.203125 l -2.09375,-5.5 C 1.09375,-8.890625 1.03125,-8.96875 0.890625,-8.96875 c -0.125,0 -0.234375,0.109375 -0.234375,0.25 0,0.03125 0,0.046875 0.0625,0.1875 L 2.828125,-2.984375 0.71875,2.53125 C 0.65625,2.671875 0.65625,2.6875 0.65625,2.75 c 0,0.125 0.109375,0.234375 0.234375,0.234375 0.15625,0 0.203125,-0.109375 0.25,-0.234375 z m 0,0"
                 id="path590" />
            </g>
          </g>
        </g>
      </g>
      <g
         id="g605"
         transform="translate(7.4083337,97.482961)">
        <g
           inkscape:label=""
           transform="translate(55.607113,153.66371)"
           id="g604">
          <g
             id="g603"
             transform="matrix(0.352778,0,0,0.352778,-1.20469,-0.702116)">
            <g
               style="fill:#000000;fill-opacity:1"
               id="g596">
              <g
                 id="g595"
                 transform="translate(1.993,10.959)">
                <path
                   style="stroke:none"
                   d="m 1.90625,-8.53125 c 0,-0.21875 0,-0.4375 -0.25,-0.4375 -0.234375,0 -0.234375,0.21875 -0.234375,0.4375 V 2.5625 c 0,0.203125 0,0.421875 0.234375,0.421875 0.25,0 0.25,-0.21875 0.25,-0.421875 z m 0,0"
                   id="path594" />
              </g>
            </g>
            <g
               style="fill:#000000;fill-opacity:1"
               id="g598">
              <g
                 id="g597"
                 transform="translate(5.3130002,10.959)">
                <path
                   style="stroke:none"
                   d="m 5.625,-8.015625 c 0,0 0.046875,-0.15625 0.046875,-0.171875 0,-0.109375 -0.109375,-0.109375 -0.140625,-0.109375 -0.109375,0 -0.109375,0.0625 -0.171875,0.234375 l -1.96875,7.921875 c -0.984375,-0.125 -1.359375,-0.625 -1.359375,-1.34375 0,-0.265625 0,-0.53125 0.5625,-2.015625 C 2.75,-3.9375 2.8125,-4.09375 2.8125,-4.296875 c 0,-0.546875 -0.390625,-0.96875 -0.953125,-0.96875 -1.09375,0 -1.53125,1.734375 -1.53125,1.828125 0,0.046875 0.046875,0.109375 0.125,0.109375 0.109375,0 0.125,-0.046875 0.171875,-0.21875 0.28125,-1.046875 0.765625,-1.484375 1.203125,-1.484375 0.109375,0 0.3125,0.015625 0.3125,0.390625 0,0.046875 0,0.3125 -0.203125,0.84375 -0.640625,1.6875 -0.640625,1.953125 -0.640625,2.234375 0,1.140625 0.953125,1.59375 2.03125,1.671875 -0.09375,0.375 -0.1875,0.75 -0.28125,1.125 -0.1875,0.71875 -0.28125,1.046875 -0.28125,1.09375 0,0.109375 0.109375,0.109375 0.140625,0.109375 0.015625,0 0.0625,0 0.09375,-0.046875 C 3.046875,2.34375 3.53125,0.328125 3.578125,0.125 c 0.453125,0 1.390625,0 2.46875,-1.109375 0.390625,-0.4375 0.75,-0.984375 0.953125,-1.5 0.125,-0.3125 0.40625,-1.375 0.40625,-1.984375 0,-0.71875 -0.359375,-0.796875 -0.46875,-0.796875 -0.296875,0 -0.546875,0.28125 -0.546875,0.515625 0,0.140625 0.078125,0.234375 0.125,0.28125 0.109375,0.109375 0.421875,0.421875 0.421875,1.046875 0,0.4375 -0.234375,1.3125 -1,2.171875 -1,1.125 -1.921875,1.125 -2.28125,1.125 z m 0,0"
                   id="path596" />
              </g>
            </g>
            <g
               style="fill:#000000;fill-opacity:1"
               id="g600">
              <g
                 id="g599"
                 transform="translate(12.924,12.752)">
                <path
                   style="stroke:none"
                   d="m 2.5,-5.078125 c 0,-0.21875 -0.015625,-0.21875 -0.234375,-0.21875 -0.328125,0.3125 -0.75,0.5 -1.5,0.5 v 0.265625 c 0.21875,0 0.640625,0 1.109375,-0.203125 v 4.078125 c 0,0.296875 -0.03125,0.390625 -0.78125,0.390625 H 0.8125 V 0 c 0.328125,-0.03125 1.015625,-0.03125 1.375,-0.03125 0.359375,0 1.046875,0 1.375,0.03125 V -0.265625 H 3.28125 c -0.75,0 -0.78125,-0.09375 -0.78125,-0.390625 z m 0,0"
                   id="path598" />
              </g>
            </g>
            <g
               style="fill:#000000;fill-opacity:1"
               id="g602">
              <g
                 id="g601"
                 transform="translate(17.656,10.959)">
                <path
                   style="stroke:none"
                   d="m 3.265625,-2.78125 c 0.0625,-0.140625 0.0625,-0.171875 0.0625,-0.203125 0,-0.046875 0,-0.0625 -0.0625,-0.203125 l -2.09375,-5.5 C 1.09375,-8.890625 1.03125,-8.96875 0.890625,-8.96875 c -0.125,0 -0.234375,0.109375 -0.234375,0.25 0,0.03125 0,0.046875 0.0625,0.1875 L 2.828125,-2.984375 0.71875,2.53125 C 0.65625,2.671875 0.65625,2.6875 0.65625,2.75 c 0,0.125 0.109375,0.234375 0.234375,0.234375 0.15625,0 0.203125,-0.109375 0.25,-0.234375 z m 0,0"
                   id="path600" />
              </g>
            </g>
          </g>
        </g>
      </g>
      <g
         inkscape:label=""
         transform="translate(105.57447,251.14696)"
         id="g615">
        <g
           id="g614"
           transform="matrix(0.352778,0,0,0.352778,-1.20469,-0.702116)">
          <g
             style="fill:#000000;fill-opacity:1"
             id="g607">
            <g
               id="g606"
               transform="translate(1.993,10.959)">
              <path
                 style="stroke:none"
                 d="m 1.90625,-8.53125 c 0,-0.21875 0,-0.4375 -0.25,-0.4375 -0.234375,0 -0.234375,0.21875 -0.234375,0.4375 V 2.5625 c 0,0.203125 0,0.421875 0.234375,0.421875 0.25,0 0.25,-0.21875 0.25,-0.421875 z m 0,0"
                 id="path605" />
            </g>
          </g>
          <g
             style="fill:#000000;fill-opacity:1"
             id="g609">
            <g
               id="g608"
               transform="translate(5.3130002,10.959)">
              <path
                 style="stroke:none"
                 d="m 5.625,-8.015625 c 0,0 0.046875,-0.15625 0.046875,-0.171875 0,-0.109375 -0.109375,-0.109375 -0.140625,-0.109375 -0.109375,0 -0.109375,0.0625 -0.171875,0.234375 l -1.96875,7.921875 c -0.984375,-0.125 -1.359375,-0.625 -1.359375,-1.34375 0,-0.265625 0,-0.53125 0.5625,-2.015625 C 2.75,-3.9375 2.8125,-4.09375 2.8125,-4.296875 c 0,-0.546875 -0.390625,-0.96875 -0.953125,-0.96875 -1.09375,0 -1.53125,1.734375 -1.53125,1.828125 0,0.046875 0.046875,0.109375 0.125,0.109375 0.109375,0 0.125,-0.046875 0.171875,-0.21875 0.28125,-1.046875 0.765625,-1.484375 1.203125,-1.484375 0.109375,0 0.3125,0.015625 0.3125,0.390625 0,0.046875 0,0.3125 -0.203125,0.84375 -0.640625,1.6875 -0.640625,1.953125 -0.640625,2.234375 0,1.140625 0.953125,1.59375 2.03125,1.671875 -0.09375,0.375 -0.1875,0.75 -0.28125,1.125 -0.1875,0.71875 -0.28125,1.046875 -0.28125,1.09375 0,0.109375 0.109375,0.109375 0.140625,0.109375 0.015625,0 0.0625,0 0.09375,-0.046875 C 3.046875,2.34375 3.53125,0.328125 3.578125,0.125 c 0.453125,0 1.390625,0 2.46875,-1.109375 0.390625,-0.4375 0.75,-0.984375 0.953125,-1.5 0.125,-0.3125 0.40625,-1.375 0.40625,-1.984375 0,-0.71875 -0.359375,-0.796875 -0.46875,-0.796875 -0.296875,0 -0.546875,0.28125 -0.546875,0.515625 0,0.140625 0.078125,0.234375 0.125,0.28125 0.109375,0.109375 0.421875,0.421875 0.421875,1.046875 0,0.4375 -0.234375,1.3125 -1,2.171875 -1,1.125 -1.921875,1.125 -2.28125,1.125 z m 0,0"
                 id="path607" />
            </g>
          </g>
          <g
             style="fill:#000000;fill-opacity:1"
             id="g611">
            <g
               id="g610"
               transform="translate(12.924,12.752)">
              <path
                 style="stroke:none"
                 d="m 2.25,-1.625 c 0.125,-0.125 0.453125,-0.390625 0.59375,-0.5 0.484375,-0.453125 0.953125,-0.890625 0.953125,-1.609375 0,-0.953125 -0.796875,-1.5625 -1.78125,-1.5625 -0.96875,0 -1.59375,0.71875 -1.59375,1.4375 0,0.390625 0.3125,0.4375 0.421875,0.4375 0.171875,0 0.421875,-0.109375 0.421875,-0.421875 0,-0.40625 -0.40625,-0.40625 -0.5,-0.40625 C 1,-4.84375 1.53125,-5.03125 1.921875,-5.03125 c 0.734375,0 1.125,0.625 1.125,1.296875 0,0.828125 -0.578125,1.4375 -1.53125,2.390625 l -1,1.046875 C 0.421875,-0.21875 0.421875,-0.203125 0.421875,0 H 3.5625 l 0.234375,-1.421875 h -0.25 C 3.53125,-1.265625 3.46875,-0.875 3.375,-0.71875 c -0.046875,0.0625 -0.65625,0.0625 -0.78125,0.0625 H 1.171875 Z m 0,0"
                 id="path609" />
            </g>
          </g>
          <g
             style="fill:#000000;fill-opacity:1"
             id="g613">
            <g
               id="g612"
               transform="translate(17.656,10.959)">
              <path
                 style="stroke:none"
                 d="m 3.265625,-2.78125 c 0.0625,-0.140625 0.0625,-0.171875 0.0625,-0.203125 0,-0.046875 0,-0.0625 -0.0625,-0.203125 l -2.09375,-5.5 C 1.09375,-8.890625 1.03125,-8.96875 0.890625,-8.96875 c -0.125,0 -0.234375,0.109375 -0.234375,0.25 0,0.03125 0,0.046875 0.0625,0.1875 L 2.828125,-2.984375 0.71875,2.53125 C 0.65625,2.671875 0.65625,2.6875 0.65625,2.75 c 0,0.125 0.109375,0.234375 0.234375,0.234375 0.15625,0 0.203125,-0.109375 0.25,-0.234375 z m 0,0"
                 id="path611" />
            </g>
          </g>
        </g>
      </g>
      <g
         inkscape:label=""
         transform="translate(120.76455,251.14696)"
         id="g625">
        <g
           id="g624"
           transform="matrix(0.352778,0,0,0.352778,-1.20469,-0.702116)">
          <g
             style="fill:#000000;fill-opacity:1"
             id="g617">
            <g
               id="g616"
               transform="translate(1.993,10.959)">
              <path
                 style="stroke:none"
                 d="m 1.90625,-8.53125 c 0,-0.21875 0,-0.4375 -0.25,-0.4375 -0.234375,0 -0.234375,0.21875 -0.234375,0.4375 V 2.5625 c 0,0.203125 0,0.421875 0.234375,0.421875 0.25,0 0.25,-0.21875 0.25,-0.421875 z m 0,0"
                 id="path615" />
            </g>
          </g>
          <g
             style="fill:#000000;fill-opacity:1"
             id="g619">
            <g
               id="g618"
               transform="translate(5.3130002,10.959)">
              <path
                 style="stroke:none"
                 d="m 5.625,-8.015625 c 0,0 0.046875,-0.15625 0.046875,-0.171875 0,-0.109375 -0.109375,-0.109375 -0.140625,-0.109375 -0.109375,0 -0.109375,0.0625 -0.171875,0.234375 l -1.96875,7.921875 c -0.984375,-0.125 -1.359375,-0.625 -1.359375,-1.34375 0,-0.265625 0,-0.53125 0.5625,-2.015625 C 2.75,-3.9375 2.8125,-4.09375 2.8125,-4.296875 c 0,-0.546875 -0.390625,-0.96875 -0.953125,-0.96875 -1.09375,0 -1.53125,1.734375 -1.53125,1.828125 0,0.046875 0.046875,0.109375 0.125,0.109375 0.109375,0 0.125,-0.046875 0.171875,-0.21875 0.28125,-1.046875 0.765625,-1.484375 1.203125,-1.484375 0.109375,0 0.3125,0.015625 0.3125,0.390625 0,0.046875 0,0.3125 -0.203125,0.84375 -0.640625,1.6875 -0.640625,1.953125 -0.640625,2.234375 0,1.140625 0.953125,1.59375 2.03125,1.671875 -0.09375,0.375 -0.1875,0.75 -0.28125,1.125 -0.1875,0.71875 -0.28125,1.046875 -0.28125,1.09375 0,0.109375 0.109375,0.109375 0.140625,0.109375 0.015625,0 0.0625,0 0.09375,-0.046875 C 3.046875,2.34375 3.53125,0.328125 3.578125,0.125 c 0.453125,0 1.390625,0 2.46875,-1.109375 0.390625,-0.4375 0.75,-0.984375 0.953125,-1.5 0.125,-0.3125 0.40625,-1.375 0.40625,-1.984375 0,-0.71875 -0.359375,-0.796875 -0.46875,-0.796875 -0.296875,0 -0.546875,0.28125 -0.546875,0.515625 0,0.140625 0.078125,0.234375 0.125,0.28125 0.109375,0.109375 0.421875,0.421875 0.421875,1.046875 0,0.4375 -0.234375,1.3125 -1,2.171875 -1,1.125 -1.921875,1.125 -2.28125,1.125 z m 0,0"
                 id="path617" />
            </g>
          </g>
          <g
             style="fill:#000000;fill-opacity:1"
             id="g621">
            <g
               id="g620"
               transform="translate(12.924,12.752)">
              <path
                 style="stroke:none"
                 d="m 2.015625,-2.65625 c 0.625,0 1.03125,0.453125 1.03125,1.296875 0,1 -0.5625,1.28125 -0.984375,1.28125 -0.4375,0 -1.046875,-0.15625 -1.328125,-0.578125 0.296875,0 0.5,-0.1875 0.5,-0.4375 0,-0.265625 -0.1875,-0.4375 -0.453125,-0.4375 -0.203125,0 -0.4375,0.125 -0.4375,0.453125 0,0.75 0.8125,1.25 1.734375,1.25 C 3.125,0.171875 3.875,-0.5625 3.875,-1.359375 3.875,-2.03125 3.34375,-2.625 2.53125,-2.8125 c 0.625,-0.21875 1.109375,-0.75 1.109375,-1.390625 0,-0.640625 -0.71875,-1.09375 -1.546875,-1.09375 -0.859375,0 -1.5,0.453125 -1.5,1.0625 0,0.296875 0.1875,0.421875 0.40625,0.421875 0.25,0 0.40625,-0.171875 0.40625,-0.40625 0,-0.296875 -0.265625,-0.40625 -0.4375,-0.40625 0.34375,-0.4375 0.953125,-0.46875 1.09375,-0.46875 0.203125,0 0.8125,0.0625 0.8125,0.890625 0,0.546875 -0.234375,0.890625 -0.34375,1.015625 -0.234375,0.25 -0.421875,0.265625 -0.90625,0.296875 -0.15625,0 -0.21875,0.015625 -0.21875,0.125 0,0.109375 0.078125,0.109375 0.21875,0.109375 z m 0,0"
                 id="path619" />
            </g>
          </g>
          <g
             style="fill:#000000;fill-opacity:1"
             id="g623">
            <g
               id="g622"
               transform="translate(17.656,10.959)">
              <path
                 style="stroke:none"
                 d="m 3.265625,-2.78125 c 0.0625,-0.140625 0.0625,-0.171875 0.0625,-0.203125 0,-0.046875 0,-0.0625 -0.0625,-0.203125 l -2.09375,-5.5 C 1.09375,-8.890625 1.03125,-8.96875 0.890625,-8.96875 c -0.125,0 -0.234375,0.109375 -0.234375,0.25 0,0.03125 0,0.046875 0.0625,0.1875 L 2.828125,-2.984375 0.71875,2.53125 C 0.65625,2.671875 0.65625,2.6875 0.65625,2.75 c 0,0.125 0.109375,0.234375 0.234375,0.234375 0.15625,0 0.203125,-0.109375 0.25,-0.234375 z m 0,0"
                 id="path621" />
            </g>
          </g>
        </g>
      </g>
      <path
         style="fill:none;stroke:#000000;stroke-width:0.264583px;stroke-linecap:butt;stroke-linejoin:miter;stroke-dasharray:0.264583, 0.793749;stroke-dashoffset:0;stroke-opacity:1"
         d="m 42.619593,124.6145 v 27.4919"
         id="path633"
         inkscape:path-effect="#path-effect693"
         inkscape:original-d="m 42.619593,124.6145 c 0,9.16397 0,18.32793 0,27.4919"
         transform="translate(8.466667,97.366716)" />
      <path
         style="fill:none;stroke:#000000;stroke-width:0.264583px;stroke-linecap:butt;stroke-linejoin:miter;stroke-dasharray:0.264583, 0.793749;stroke-dashoffset:0;stroke-opacity:1"
         d="m 42.619593,124.6145 v 27.4919"
         id="path634"
         inkscape:path-effect="#path-effect695"
         inkscape:original-d="m 42.619593,124.6145 c 0,9.16397 0,18.32793 0,27.4919"
         transform="translate(23.812505,97.366716)" />
      <path
         style="fill:none;stroke:#000000;stroke-width:0.264583px;stroke-linecap:butt;stroke-linejoin:miter;stroke-dasharray:0.264583, 0.793749;stroke-dashoffset:0;stroke-opacity:1"
         d="m 42.619593,124.6145 v 27.4919"
         id="path635"
         inkscape:path-effect="#path-effect697"
         inkscape:original-d="m 42.619593,124.6145 c 0,9.16397 0,18.32793 0,27.4919"
         transform="translate(23.812505,97.366716)" />
      <path
         style="fill:none;stroke:#000000;stroke-width:0.264583px;stroke-linecap:butt;stroke-linejoin:miter;stroke-dasharray:0.264583, 0.793749;stroke-dashoffset:0;stroke-opacity:1"
         d="m 42.619593,124.6145 v 27.4919"
         id="path636"
         inkscape:path-effect="#path-effect699"
         inkscape:original-d="m 42.619593,124.6145 c 0,9.16397 0,18.32793 0,27.4919"
         transform="translate(66.145865,97.366716)" />
      <path
         style="fill:none;stroke:#000000;stroke-width:0.264583px;stroke-linecap:butt;stroke-linejoin:miter;stroke-opacity:1"
         d="m 106.34147,46.550495 h 11.26729"
         id="path637"
         inkscape:path-effect="#path-effect701"
         inkscape:original-d="m 106.34147,46.550495 c 9.18309,-0.03612 2.13572,0 11.26729,0"
         transform="translate(-5.5631983,180.46187)"
         sodipodi:nodetypes="cc" />
      <path
         style="fill:none;stroke:#000000;stroke-width:0.264583px;stroke-linecap:butt;stroke-linejoin:miter;stroke-opacity:1"
         d="m 106.34147,46.550495 h 11.58611"
         id="path638"
         inkscape:path-effect="#path-effect703"
         inkscape:original-d="m 106.34147,46.550495 c 9.18309,-0.03612 2.45454,0 11.58611,0"
         transform="translate(-5.5631983,197.39531)"
         sodipodi:nodetypes="cc" />
      <path
         style="fill:none;stroke:#000000;stroke-width:0.264583px;stroke-linecap:butt;stroke-linejoin:miter;stroke-opacity:1"
         d="m 106.34147,46.550495 h 6.35865"
         id="path639"
         inkscape:path-effect="#path-effect705"
         inkscape:original-d="m 106.34147,46.550495 c 9.18309,-0.03612 -2.77292,0 6.35865,0"
         transform="translate(14.545137,180.46187)"
         sodipodi:nodetypes="cc" />
      <g
         id="g642"
         transform="translate(76.026744,45.974977)">
        <rect
           style="fill:none;fill-opacity:0.434037;stroke:#000000;stroke-width:0.264999;stroke-dasharray:none;stroke-dashoffset:0"
           id="rect639"
           width="9.3181553"
           height="5.7925262"
           x="51.340015"
           y="177.88193" />
        <g
           id="g641"
           transform="translate(-3.1619998,-10.713896)">
          <path
             style="fill:none;stroke:#000000;stroke-width:0.264583px;stroke-linecap:butt;stroke-linejoin:miter;stroke-opacity:1"
             d="m 70.677015,186.73488 c 0.215711,-0.73821 0.681827,-1.4008 1.303723,-1.85326 0.621896,-0.45247 1.395777,-0.69204 2.164541,-0.6701 0.738957,0.0211 1.469108,0.28312 2.052861,0.7367 0.583753,0.45358 1.018063,1.09635 1.221088,1.80718"
             id="path640"
             inkscape:path-effect="#path-effect707"
             inkscape:original-d="m 70.677015,186.73488 c 1.104969,-0.85496 2.312178,-1.68224 3.468264,-2.52336 1.156089,-0.84113 2.182633,1.69592 3.273949,2.54388"
             transform="translate(-15.295058,5.5027181)" />
          <path
             style="fill:none;stroke:#000000;stroke-width:0.264583px;stroke-linecap:butt;stroke-linejoin:miter;stroke-opacity:1;marker-end:url(#DartArrow)"
             d="m 58.520374,193.32302 3.928576,-2.95004"
             id="path641"
             inkscape:path-effect="#path-effect709"
             inkscape:original-d="m 58.520374,193.32302 c 1.251458,-0.96505 2.61905,-1.96669 3.928576,-2.95004"
             transform="translate(-0.70407185,0.08767498)" />
        </g>
      </g>
      <path
         style="fill:none;stroke:#000000;stroke-width:0.264583px;stroke-linecap:butt;stroke-linejoin:miter;stroke-dasharray:0.264583, 0.793749;stroke-dashoffset:0;stroke-opacity:1"
         d="m 42.619593,124.6145 v 27.4919"
         id="path642"
         inkscape:path-effect="#path-effect711"
         inkscape:original-d="m 42.619593,124.6145 c 0,9.16397 0,18.32793 0,27.4919"
         transform="translate(81.491708,97.366716)" />
      <g
         id="g651"
         transform="translate(7.4083337,48.683358)">
        <rect
           style="fill:none;fill-opacity:0.434037;stroke:#000000;stroke-width:0.264999"
           id="rect642"
           width="8.871088"
           height="8.0501518"
           x="46.888306"
           y="174.27094" />
        <g
           inkscape:label=""
           transform="translate(47.201153,176.35247)"
           id="g650">
          <g
             id="g649"
             transform="matrix(0.352778,0,0,0.352778,-0.912548,-0.702557)">
            <g
               style="fill:#000000;fill-opacity:1"
               id="g644">
              <g
                 id="g643"
                 transform="translate(1.993,13.01)">
                <path
                   style="stroke:none"
                   d="m 8.5625,-8.703125 c 0,-0.53125 0.046875,-0.671875 1.078125,-0.671875 h 0.28125 v -0.421875 c -0.34375,0.03125 -1.515625,0.03125 -1.9375,0.03125 -0.421875,0 -1.59375,0 -1.953125,-0.03125 V -9.375 h 0.296875 c 1.03125,0 1.078125,0.140625 1.078125,0.671875 V -5.3125 H 3.109375 V -8.703125 C 3.109375,-9.234375 3.15625,-9.375 4.1875,-9.375 h 0.28125 v -0.421875 c -0.34375,0.03125 -1.515625,0.03125 -1.9375,0.03125 -0.421875,0 -1.59375,0 -1.9375,-0.03125 V -9.375 H 0.875 c 1.03125,0 1.078125,0.140625 1.078125,0.671875 v 7.609375 c 0,0.53125 -0.046875,0.671875 -1.078125,0.671875 H 0.59375 V 0 c 0.34375,-0.03125 1.515625,-0.03125 1.9375,-0.03125 0.421875,0 1.59375,0 1.9375,0.03125 V -0.421875 H 4.1875 c -1.03125,0 -1.078125,-0.140625 -1.078125,-0.671875 V -4.890625 H 7.40625 v 3.796875 c 0,0.53125 -0.046875,0.671875 -1.078125,0.671875 H 6.03125 V 0 c 0.359375,-0.03125 1.53125,-0.03125 1.9375,-0.03125 0.4375,0 1.609375,0 1.953125,0.03125 V -0.421875 H 9.640625 C 8.609375,-0.421875 8.5625,-0.5625 8.5625,-1.09375 Z m 0,0"
                   id="path643" />
              </g>
            </g>
            <g
               style="fill:#000000;fill-opacity:1"
               id="g646">
              <g
                 id="g645"
                 transform="translate(12.523,7.8039999)">
                <path
                   style="stroke:none"
                   d="m 7.203125,-2.5 c 0,-1.828125 -1.5,-3.3125 -3.328125,-3.3125 -1.84375,0 -3.328125,1.5 -3.328125,3.3125 0,1.84375 1.5,3.328125 3.328125,3.328125 1.84375,0 3.328125,-1.5 3.328125,-3.328125 z m -5.3125,-2.140625 C 1.875,-4.65625 1.796875,-4.71875 1.796875,-4.75 c 0,-0.03125 0.8125,-0.8125 2.078125,-0.8125 0.34375,0 1.265625,0.046875 2.078125,0.8125 L 3.875,-2.65625 Z M 1.609375,-0.40625 C 1,-1.09375 0.796875,-1.859375 0.796875,-2.5 c 0,-0.765625 0.296875,-1.484375 0.8125,-2.078125 L 3.6875,-2.5 Z M 6.125,-4.578125 C 6.609375,-4.0625 6.953125,-3.3125 6.953125,-2.5 c 0,0.78125 -0.296875,1.5 -0.8125,2.09375 L 4.0625,-2.5 Z M 5.859375,-0.34375 C 5.875,-0.328125 5.9375,-0.265625 5.9375,-0.234375 c 0,0.03125 -0.796875,0.8125 -2.0625,0.8125 -0.34375,0 -1.265625,-0.046875 -2.078125,-0.8125 L 3.875,-2.328125 Z m 0,0"
                   id="path644" />
              </g>
            </g>
            <g
               style="fill:#000000;fill-opacity:1"
               id="g648">
              <g
                 id="g647"
                 transform="translate(20.271999,7.8039999)">
                <path
                   style="stroke:none"
                   d="m 0.875,-0.59375 c -0.03125,0.15625 -0.09375,0.390625 -0.09375,0.4375 0,0.171875 0.140625,0.265625 0.296875,0.265625 0.125,0 0.296875,-0.078125 0.375,-0.28125 0,-0.015625 0.125,-0.484375 0.1875,-0.734375 l 0.21875,-0.890625 C 1.90625,-2.03125 1.96875,-2.25 2.03125,-2.46875 c 0.03125,-0.171875 0.109375,-0.46875 0.125,-0.5 0.140625,-0.3125 0.671875,-1.21875 1.625,-1.21875 0.453125,0 0.53125,0.375 0.53125,0.703125 0,0.609375 -0.484375,1.890625 -0.640625,2.3125 C 3.578125,-0.9375 3.5625,-0.8125 3.5625,-0.703125 c 0,0.46875 0.359375,0.8125 0.828125,0.8125 0.9375,0 1.296875,-1.453125 1.296875,-1.53125 0,-0.109375 -0.078125,-0.109375 -0.109375,-0.109375 -0.109375,0 -0.109375,0.03125 -0.15625,0.1875 -0.203125,0.671875 -0.53125,1.234375 -1.015625,1.234375 -0.171875,0 -0.234375,-0.09375 -0.234375,-0.328125 0,-0.25 0.078125,-0.484375 0.171875,-0.703125 0.1875,-0.53125 0.609375,-1.625 0.609375,-2.203125 0,-0.65625 -0.421875,-1.0625 -1.140625,-1.0625 -0.90625,0 -1.390625,0.640625 -1.5625,0.875 -0.046875,-0.5625 -0.453125,-0.875 -0.921875,-0.875 -0.453125,0 -0.640625,0.390625 -0.734375,0.5625 C 0.421875,-3.5 0.296875,-2.90625 0.296875,-2.875 c 0,0.109375 0.09375,0.109375 0.109375,0.109375 0.109375,0 0.109375,-0.015625 0.171875,-0.234375 0.171875,-0.703125 0.375,-1.1875 0.734375,-1.1875 0.1875,0 0.296875,0.125 0.296875,0.453125 0,0.21875 -0.03125,0.328125 -0.15625,0.84375 z m 0,0"
                   id="path646" />
              </g>
            </g>
          </g>
        </g>
      </g>
      <g
         id="g660"
         transform="translate(65.087531,48.683358)">
        <rect
           style="fill:none;fill-opacity:0.434037;stroke:#000000;stroke-width:0.264999"
           id="rect651"
           width="8.871088"
           height="8.0501518"
           x="46.888306"
           y="174.27094" />
        <g
           inkscape:label=""
           transform="translate(47.201153,176.35247)"
           id="g659">
          <g
             id="g658"
             transform="matrix(0.352778,0,0,0.352778,-0.912548,-0.702557)">
            <g
               style="fill:#000000;fill-opacity:1"
               id="g653">
              <g
                 id="g652"
                 transform="translate(1.993,13.01)">
                <path
                   style="stroke:none"
                   d="m 8.5625,-8.703125 c 0,-0.53125 0.046875,-0.671875 1.078125,-0.671875 h 0.28125 v -0.421875 c -0.34375,0.03125 -1.515625,0.03125 -1.9375,0.03125 -0.421875,0 -1.59375,0 -1.953125,-0.03125 V -9.375 h 0.296875 c 1.03125,0 1.078125,0.140625 1.078125,0.671875 V -5.3125 H 3.109375 V -8.703125 C 3.109375,-9.234375 3.15625,-9.375 4.1875,-9.375 h 0.28125 v -0.421875 c -0.34375,0.03125 -1.515625,0.03125 -1.9375,0.03125 -0.421875,0 -1.59375,0 -1.9375,-0.03125 V -9.375 H 0.875 c 1.03125,0 1.078125,0.140625 1.078125,0.671875 v 7.609375 c 0,0.53125 -0.046875,0.671875 -1.078125,0.671875 H 0.59375 V 0 c 0.34375,-0.03125 1.515625,-0.03125 1.9375,-0.03125 0.421875,0 1.59375,0 1.9375,0.03125 V -0.421875 H 4.1875 c -1.03125,0 -1.078125,-0.140625 -1.078125,-0.671875 V -4.890625 H 7.40625 v 3.796875 c 0,0.53125 -0.046875,0.671875 -1.078125,0.671875 H 6.03125 V 0 c 0.359375,-0.03125 1.53125,-0.03125 1.9375,-0.03125 0.4375,0 1.609375,0 1.953125,0.03125 V -0.421875 H 9.640625 C 8.609375,-0.421875 8.5625,-0.5625 8.5625,-1.09375 Z m 0,0"
                   id="path651" />
              </g>
            </g>
            <g
               style="fill:#000000;fill-opacity:1"
               id="g655">
              <g
                 id="g654"
                 transform="translate(12.523,7.8039999)">
                <path
                   style="stroke:none"
                   d="m 7.203125,-2.5 c 0,-1.828125 -1.5,-3.3125 -3.328125,-3.3125 -1.84375,0 -3.328125,1.5 -3.328125,3.3125 0,1.84375 1.5,3.328125 3.328125,3.328125 1.84375,0 3.328125,-1.5 3.328125,-3.328125 z m -5.3125,-2.140625 C 1.875,-4.65625 1.796875,-4.71875 1.796875,-4.75 c 0,-0.03125 0.8125,-0.8125 2.078125,-0.8125 0.34375,0 1.265625,0.046875 2.078125,0.8125 L 3.875,-2.65625 Z M 1.609375,-0.40625 C 1,-1.09375 0.796875,-1.859375 0.796875,-2.5 c 0,-0.765625 0.296875,-1.484375 0.8125,-2.078125 L 3.6875,-2.5 Z M 6.125,-4.578125 C 6.609375,-4.0625 6.953125,-3.3125 6.953125,-2.5 c 0,0.78125 -0.296875,1.5 -0.8125,2.09375 L 4.0625,-2.5 Z M 5.859375,-0.34375 C 5.875,-0.328125 5.9375,-0.265625 5.9375,-0.234375 c 0,0.03125 -0.796875,0.8125 -2.0625,0.8125 -0.34375,0 -1.265625,-0.046875 -2.078125,-0.8125 L 3.875,-2.328125 Z m 0,0"
                   id="path653" />
              </g>
            </g>
            <g
               style="fill:#000000;fill-opacity:1"
               id="g657">
              <g
                 id="g656"
                 transform="translate(20.271999,7.8039999)">
                <path
                   style="stroke:none"
                   d="m 0.875,-0.59375 c -0.03125,0.15625 -0.09375,0.390625 -0.09375,0.4375 0,0.171875 0.140625,0.265625 0.296875,0.265625 0.125,0 0.296875,-0.078125 0.375,-0.28125 0,-0.015625 0.125,-0.484375 0.1875,-0.734375 l 0.21875,-0.890625 C 1.90625,-2.03125 1.96875,-2.25 2.03125,-2.46875 c 0.03125,-0.171875 0.109375,-0.46875 0.125,-0.5 0.140625,-0.3125 0.671875,-1.21875 1.625,-1.21875 0.453125,0 0.53125,0.375 0.53125,0.703125 0,0.609375 -0.484375,1.890625 -0.640625,2.3125 C 3.578125,-0.9375 3.5625,-0.8125 3.5625,-0.703125 c 0,0.46875 0.359375,0.8125 0.828125,0.8125 0.9375,0 1.296875,-1.453125 1.296875,-1.53125 0,-0.109375 -0.078125,-0.109375 -0.109375,-0.109375 -0.109375,0 -0.109375,0.03125 -0.15625,0.1875 -0.203125,0.671875 -0.53125,1.234375 -1.015625,1.234375 -0.171875,0 -0.234375,-0.09375 -0.234375,-0.328125 0,-0.25 0.078125,-0.484375 0.171875,-0.703125 0.1875,-0.53125 0.609375,-1.625 0.609375,-2.203125 0,-0.65625 -0.421875,-1.0625 -1.140625,-1.0625 -0.90625,0 -1.390625,0.640625 -1.5625,0.875 -0.046875,-0.5625 -0.453125,-0.875 -0.921875,-0.875 -0.453125,0 -0.640625,0.390625 -0.734375,0.5625 C 0.421875,-3.5 0.296875,-2.90625 0.296875,-2.875 c 0,0.109375 0.09375,0.109375 0.109375,0.109375 0.109375,0 0.109375,-0.015625 0.171875,-0.234375 0.171875,-0.703125 0.375,-1.1875 0.734375,-1.1875 0.1875,0 0.296875,0.125 0.296875,0.453125 0,0.21875 -0.03125,0.328125 -0.15625,0.84375 z m 0,0"
                   id="path655" />
              </g>
            </g>
          </g>
        </g>
      </g>
      <path
         style="fill:none;stroke:#000000;stroke-width:0.264583px;stroke-linecap:butt;stroke-linejoin:miter;stroke-opacity:1"
         d="m 33.260567,180.57568 3.905297,-4.36155"
         id="path660"
         inkscape:path-effect="#path-effect713"
         inkscape:original-d="m 33.260567,180.57568 c 1.301766,-1.45385 2.603531,-2.9077 3.905297,-4.36155"
         transform="translate(11.68474,48.683358)" />
      <path
         style="fill:none;stroke:#000000;stroke-width:0.264583px;stroke-linecap:butt;stroke-linejoin:miter;stroke-opacity:1"
         d="m 33.260567,180.57568 3.905297,-4.36155"
         id="path661"
         inkscape:path-effect="#path-effect715"
         inkscape:original-d="m 33.260567,180.57568 c 1.301766,-1.45385 2.603531,-2.9077 3.905297,-4.36155"
         transform="translate(70.379201,48.683358)" />
      <g
         inkscape:label=""
         transform="translate(102.89554,223.77219)"
         id="g665">
        <g
           id="g664"
           transform="matrix(0.352778,0,0,0.352778,-0.818841,-0.660885)">
          <g
             style="fill:#000000;fill-opacity:1"
             id="g663">
            <g
               id="g662"
               transform="translate(1.993,7.1389999)">
              <path
                 style="stroke:none"
                 d="M 2.46875,-3.5 C 2.484375,-3.578125 2.78125,-4.171875 3.234375,-4.546875 3.53125,-4.84375 3.9375,-5.03125 4.40625,-5.03125 c 0.484375,0 0.65625,0.359375 0.65625,0.828125 0,0.6875 -0.5,2.046875 -0.734375,2.703125 -0.109375,0.28125 -0.171875,0.4375 -0.171875,0.65625 0,0.53125 0.375,0.96875 0.953125,0.96875 1.109375,0 1.53125,-1.765625 1.53125,-1.828125 0,-0.0625 -0.046875,-0.109375 -0.125,-0.109375 -0.109375,0 -0.125,0.03125 -0.1875,0.234375 C 6.0625,-0.59375 5.609375,-0.125 5.140625,-0.125 c -0.125,0 -0.3125,0 -0.3125,-0.390625 0,-0.296875 0.125,-0.65625 0.203125,-0.828125 C 5.265625,-2 5.765625,-3.328125 5.765625,-4.015625 c 0,-0.71875 -0.40625,-1.25 -1.3125,-1.25 -1.078125,0 -1.625,0.75 -1.84375,1.046875 -0.046875,-0.6875 -0.53125,-1.046875 -1.0625,-1.046875 -0.375,0 -0.640625,0.21875 -0.84375,0.625 -0.21875,0.4375 -0.375,1.15625 -0.375,1.203125 0,0.046875 0.046875,0.109375 0.125,0.109375 0.09375,0 0.109375,-0.015625 0.1875,-0.296875 0.1875,-0.71875 0.40625,-1.40625 0.875,-1.40625 0.28125,0 0.375,0.1875 0.375,0.546875 0,0.265625 -0.125,0.734375 -0.203125,1.109375 l -0.34375,1.28125 c -0.046875,0.234375 -0.171875,0.765625 -0.234375,0.984375 -0.078125,0.3125 -0.21875,0.875 -0.21875,0.9375 0,0.15625 0.140625,0.296875 0.3125,0.296875 0.140625,0 0.3125,-0.078125 0.40625,-0.25 C 1.640625,-0.1875 1.75,-0.609375 1.8125,-0.84375 l 0.25,-1.078125 z m 0,0"
                 id="path662" />
            </g>
          </g>
        </g>
      </g>
      <g
         inkscape:label=""
         transform="translate(44.205038,223.52316)"
         id="g669">
        <g
           id="g668"
           transform="matrix(0.352778,0,0,0.352778,-0.818841,-0.660885)">
          <g
             style="fill:#000000;fill-opacity:1"
             id="g667">
            <g
               id="g666"
               transform="translate(1.993,7.1389999)">
              <path
                 style="stroke:none"
                 d="M 2.46875,-3.5 C 2.484375,-3.578125 2.78125,-4.171875 3.234375,-4.546875 3.53125,-4.84375 3.9375,-5.03125 4.40625,-5.03125 c 0.484375,0 0.65625,0.359375 0.65625,0.828125 0,0.6875 -0.5,2.046875 -0.734375,2.703125 -0.109375,0.28125 -0.171875,0.4375 -0.171875,0.65625 0,0.53125 0.375,0.96875 0.953125,0.96875 1.109375,0 1.53125,-1.765625 1.53125,-1.828125 0,-0.0625 -0.046875,-0.109375 -0.125,-0.109375 -0.109375,0 -0.125,0.03125 -0.1875,0.234375 C 6.0625,-0.59375 5.609375,-0.125 5.140625,-0.125 c -0.125,0 -0.3125,0 -0.3125,-0.390625 0,-0.296875 0.125,-0.65625 0.203125,-0.828125 C 5.265625,-2 5.765625,-3.328125 5.765625,-4.015625 c 0,-0.71875 -0.40625,-1.25 -1.3125,-1.25 -1.078125,0 -1.625,0.75 -1.84375,1.046875 -0.046875,-0.6875 -0.53125,-1.046875 -1.0625,-1.046875 -0.375,0 -0.640625,0.21875 -0.84375,0.625 -0.21875,0.4375 -0.375,1.15625 -0.375,1.203125 0,0.046875 0.046875,0.109375 0.125,0.109375 0.09375,0 0.109375,-0.015625 0.1875,-0.296875 0.1875,-0.71875 0.40625,-1.40625 0.875,-1.40625 0.28125,0 0.375,0.1875 0.375,0.546875 0,0.265625 -0.125,0.734375 -0.203125,1.109375 l -0.34375,1.28125 c -0.046875,0.234375 -0.171875,0.765625 -0.234375,0.984375 -0.078125,0.3125 -0.21875,0.875 -0.21875,0.9375 0,0.15625 0.140625,0.296875 0.3125,0.296875 0.140625,0 0.3125,-0.078125 0.40625,-0.25 C 1.640625,-0.1875 1.75,-0.609375 1.8125,-0.84375 l 0.25,-1.078125 z m 0,0"
                 id="path665" />
            </g>
          </g>
        </g>
      </g>
      <g
         inkscape:label=""
         transform="translate(32.416988,224.86258)"
         id="g681">
        <g
           id="g680"
           transform="matrix(0.352778,0,0,0.352778,-1.20469,-0.703968)">
          <g
             style="fill:#000000;fill-opacity:1"
             id="g671">
            <g
               id="g670"
               transform="translate(1.993,11.147)">
              <path
                 style="stroke:none"
                 d="m 1.90625,-8.53125 c 0,-0.21875 0,-0.4375 -0.25,-0.4375 -0.234375,0 -0.234375,0.21875 -0.234375,0.4375 V 2.5625 c 0,0.203125 0,0.421875 0.234375,0.421875 0.25,0 0.25,-0.21875 0.25,-0.421875 z m 0,0"
                 id="path669" />
            </g>
          </g>
          <g
             style="fill:#000000;fill-opacity:1"
             id="g673">
            <g
               id="g672"
               transform="translate(5.3130002,11.147)">
              <path
                 style="stroke:none"
                 d="m 5.359375,-3.828125 c 0,-0.984375 -0.0625,-1.953125 -0.5,-2.859375 -0.484375,-1 -1.34375,-1.265625 -1.9375,-1.265625 -0.6875,0 -1.53125,0.34375 -1.984375,1.34375 -0.328125,0.75 -0.453125,1.5 -0.453125,2.78125 0,1.15625 0.09375,2.03125 0.515625,2.890625 0.46875,0.90625 1.296875,1.1875 1.921875,1.1875 1.03125,0 1.625,-0.625 1.984375,-1.3125 0.421875,-0.890625 0.453125,-2.0625 0.453125,-2.765625 z m -2.4375,3.84375 C 2.53125,0.015625 1.75,-0.203125 1.53125,-1.5 c -0.125,-0.71875 -0.125,-1.625 -0.125,-2.46875 0,-0.984375 0,-1.859375 0.1875,-2.5625 0.203125,-0.8125 0.8125,-1.171875 1.328125,-1.171875 0.453125,0 1.140625,0.265625 1.375,1.296875 0.15625,0.6875 0.15625,1.625 0.15625,2.4375 0,0.796875 0,1.703125 -0.140625,2.4375 -0.21875,1.3125 -0.984375,1.546875 -1.390625,1.546875 z m 0,0"
                 id="path671" />
            </g>
          </g>
          <g
             style="fill:#000000;fill-opacity:1"
             id="g675">
            <g
               id="g674"
               transform="translate(11.166,6.8080001)">
              <path
                 style="stroke:none"
                 d="m 6.109375,-1.984375 c 0,-1.578125 -1.28125,-2.828125 -2.8125,-2.828125 -1.578125,0 -2.828125,1.28125 -2.828125,2.828125 0,1.5625 1.28125,2.8125 2.8125,2.8125 1.578125,0 2.828125,-1.28125 2.828125,-2.8125 z M 1.5625,-3.890625 C 2.1875,-4.46875 2.90625,-4.5625 3.28125,-4.5625 c 0.484375,0 1.171875,0.140625 1.734375,0.671875 l -1.71875,1.71875 z m -0.171875,3.625 C 0.9375,-0.734375 0.71875,-1.375 0.71875,-1.984375 0.71875,-2.59375 0.9375,-3.25 1.390625,-3.71875 l 1.71875,1.734375 z M 5.1875,-3.71875 c 0.453125,0.46875 0.671875,1.109375 0.671875,1.734375 0,0.59375 -0.21875,1.25 -0.671875,1.71875 l -1.734375,-1.71875 z m -0.171875,3.625 C 4.390625,0.484375 3.671875,0.578125 3.296875,0.578125 2.8125,0.578125 2.125,0.4375 1.5625,-0.09375 L 3.28125,-1.8125 Z m 0,0"
                 id="path673" />
            </g>
          </g>
          <g
             style="fill:#000000;fill-opacity:1"
             id="g677">
            <g
               id="g676"
               transform="translate(17.753,6.8080001)">
              <path
                 style="stroke:none"
                 d="m 1.59375,-1.3125 c 0.03125,-0.109375 0.109375,-0.421875 0.125,-0.53125 0.109375,-0.4375 0.109375,-0.4375 0.296875,-0.703125 0.265625,-0.390625 0.640625,-0.75 1.171875,-0.75 0.28125,0 0.453125,0.171875 0.453125,0.546875 0,0.4375 -0.328125,1.34375 -0.484375,1.734375 -0.109375,0.265625 -0.109375,0.3125 -0.109375,0.421875 0,0.453125 0.375,0.671875 0.71875,0.671875 0.78125,0 1.109375,-1.109375 1.109375,-1.21875 C 4.875,-1.21875 4.8125,-1.25 4.75,-1.25 c -0.09375,0 -0.109375,0.0625 -0.125,0.140625 -0.1875,0.65625 -0.53125,0.96875 -0.828125,0.96875 -0.125,0 -0.1875,-0.078125 -0.1875,-0.265625 0,-0.1875 0.0625,-0.359375 0.140625,-0.5625 0.109375,-0.296875 0.46875,-1.21875 0.46875,-1.65625 0,-0.609375 -0.421875,-0.890625 -0.984375,-0.890625 -0.65625,0 -1.0625,0.390625 -1.296875,0.6875 -0.0625,-0.4375 -0.40625,-0.6875 -0.8125,-0.6875 -0.28125,0 -0.484375,0.1875 -0.609375,0.4375 -0.203125,0.375 -0.28125,0.765625 -0.28125,0.78125 0,0.078125 0.0625,0.109375 0.125,0.109375 0.109375,0 0.109375,-0.03125 0.171875,-0.25 0.09375,-0.390625 0.234375,-0.859375 0.5625,-0.859375 0.21875,0 0.265625,0.203125 0.265625,0.375 0,0.15625 -0.046875,0.296875 -0.109375,0.5625 -0.015625,0.0625 -0.140625,0.53125 -0.171875,0.640625 L 0.78125,-0.515625 c -0.03125,0.125 -0.078125,0.3125 -0.078125,0.34375 0,0.1875 0.15625,0.25 0.265625,0.25 0.140625,0 0.265625,-0.09375 0.3125,-0.1875 C 1.3125,-0.15625 1.375,-0.4375 1.40625,-0.59375 Z m 0,0"
                 id="path675" />
            </g>
          </g>
          <g
             style="fill:#000000;fill-opacity:1"
             id="g679">
            <g
               id="g678"
               transform="translate(23.389,11.147)">
              <path
                 style="stroke:none"
                 d="m 3.265625,-2.78125 c 0.0625,-0.140625 0.0625,-0.171875 0.0625,-0.203125 0,-0.046875 0,-0.0625 -0.0625,-0.203125 l -2.09375,-5.5 C 1.09375,-8.890625 1.03125,-8.96875 0.890625,-8.96875 c -0.125,0 -0.234375,0.109375 -0.234375,0.25 0,0.03125 0,0.046875 0.0625,0.1875 L 2.828125,-2.984375 0.71875,2.53125 C 0.65625,2.671875 0.65625,2.6875 0.65625,2.75 c 0,0.125 0.109375,0.234375 0.234375,0.234375 0.15625,0 0.203125,-0.109375 0.25,-0.234375 z m 0,0"
                 id="path677" />
            </g>
          </g>
        </g>
      </g>
      <g
         inkscape:label=""
         transform="translate(32.416988,241.79602)"
         id="g726">
        <g
           id="g725"
           transform="matrix(0.352778,0,0,0.352778,-1.20469,-0.703968)">
          <g
             style="fill:#000000;fill-opacity:1"
             id="g716">
            <g
               id="g715"
               transform="translate(1.993,11.147)">
              <path
                 style="stroke:none"
                 d="m 1.90625,-8.53125 c 0,-0.21875 0,-0.4375 -0.25,-0.4375 -0.234375,0 -0.234375,0.21875 -0.234375,0.4375 V 2.5625 c 0,0.203125 0,0.421875 0.234375,0.421875 0.25,0 0.25,-0.21875 0.25,-0.421875 z m 0,0"
                 id="path715" />
            </g>
          </g>
          <g
             style="fill:#000000;fill-opacity:1"
             id="g718">
            <g
               id="g717"
               transform="translate(5.3130002,11.147)">
              <path
                 style="stroke:none"
                 d="m 5.359375,-3.828125 c 0,-0.984375 -0.0625,-1.953125 -0.5,-2.859375 -0.484375,-1 -1.34375,-1.265625 -1.9375,-1.265625 -0.6875,0 -1.53125,0.34375 -1.984375,1.34375 -0.328125,0.75 -0.453125,1.5 -0.453125,2.78125 0,1.15625 0.09375,2.03125 0.515625,2.890625 0.46875,0.90625 1.296875,1.1875 1.921875,1.1875 1.03125,0 1.625,-0.625 1.984375,-1.3125 0.421875,-0.890625 0.453125,-2.0625 0.453125,-2.765625 z m -2.4375,3.84375 C 2.53125,0.015625 1.75,-0.203125 1.53125,-1.5 c -0.125,-0.71875 -0.125,-1.625 -0.125,-2.46875 0,-0.984375 0,-1.859375 0.1875,-2.5625 0.203125,-0.8125 0.8125,-1.171875 1.328125,-1.171875 0.453125,0 1.140625,0.265625 1.375,1.296875 0.15625,0.6875 0.15625,1.625 0.15625,2.4375 0,0.796875 0,1.703125 -0.140625,2.4375 -0.21875,1.3125 -0.984375,1.546875 -1.390625,1.546875 z m 0,0"
                 id="path716" />
            </g>
          </g>
          <g
             style="fill:#000000;fill-opacity:1"
             id="g720">
            <g
               id="g719"
               transform="translate(11.166,6.8080001)">
              <path
                 style="stroke:none"
                 d="m 6.109375,-1.984375 c 0,-1.578125 -1.28125,-2.828125 -2.8125,-2.828125 -1.578125,0 -2.828125,1.28125 -2.828125,2.828125 0,1.5625 1.28125,2.8125 2.8125,2.8125 1.578125,0 2.828125,-1.28125 2.828125,-2.8125 z M 1.5625,-3.890625 C 2.1875,-4.46875 2.90625,-4.5625 3.28125,-4.5625 c 0.484375,0 1.171875,0.140625 1.734375,0.671875 l -1.71875,1.71875 z m -0.171875,3.625 C 0.9375,-0.734375 0.71875,-1.375 0.71875,-1.984375 0.71875,-2.59375 0.9375,-3.25 1.390625,-3.71875 l 1.71875,1.734375 z M 5.1875,-3.71875 c 0.453125,0.46875 0.671875,1.109375 0.671875,1.734375 0,0.59375 -0.21875,1.25 -0.671875,1.71875 l -1.734375,-1.71875 z m -0.171875,3.625 C 4.390625,0.484375 3.671875,0.578125 3.296875,0.578125 2.8125,0.578125 2.125,0.4375 1.5625,-0.09375 L 3.28125,-1.8125 Z m 0,0"
                 id="path718" />
            </g>
          </g>
          <g
             style="fill:#000000;fill-opacity:1"
             id="g722">
            <g
               id="g721"
               transform="translate(17.753,6.8080001)">
              <path
                 style="stroke:none"
                 d="m 1.59375,-1.3125 c 0.03125,-0.109375 0.109375,-0.421875 0.125,-0.53125 0.109375,-0.4375 0.109375,-0.4375 0.296875,-0.703125 0.265625,-0.390625 0.640625,-0.75 1.171875,-0.75 0.28125,0 0.453125,0.171875 0.453125,0.546875 0,0.4375 -0.328125,1.34375 -0.484375,1.734375 -0.109375,0.265625 -0.109375,0.3125 -0.109375,0.421875 0,0.453125 0.375,0.671875 0.71875,0.671875 0.78125,0 1.109375,-1.109375 1.109375,-1.21875 C 4.875,-1.21875 4.8125,-1.25 4.75,-1.25 c -0.09375,0 -0.109375,0.0625 -0.125,0.140625 -0.1875,0.65625 -0.53125,0.96875 -0.828125,0.96875 -0.125,0 -0.1875,-0.078125 -0.1875,-0.265625 0,-0.1875 0.0625,-0.359375 0.140625,-0.5625 0.109375,-0.296875 0.46875,-1.21875 0.46875,-1.65625 0,-0.609375 -0.421875,-0.890625 -0.984375,-0.890625 -0.65625,0 -1.0625,0.390625 -1.296875,0.6875 -0.0625,-0.4375 -0.40625,-0.6875 -0.8125,-0.6875 -0.28125,0 -0.484375,0.1875 -0.609375,0.4375 -0.203125,0.375 -0.28125,0.765625 -0.28125,0.78125 0,0.078125 0.0625,0.109375 0.125,0.109375 0.109375,0 0.109375,-0.03125 0.171875,-0.25 0.09375,-0.390625 0.234375,-0.859375 0.5625,-0.859375 0.21875,0 0.265625,0.203125 0.265625,0.375 0,0.15625 -0.046875,0.296875 -0.109375,0.5625 -0.015625,0.0625 -0.140625,0.53125 -0.171875,0.640625 L 0.78125,-0.515625 c -0.03125,0.125 -0.078125,0.3125 -0.078125,0.34375 0,0.1875 0.15625,0.25 0.265625,0.25 0.140625,0 0.265625,-0.09375 0.3125,-0.1875 C 1.3125,-0.15625 1.375,-0.4375 1.40625,-0.59375 Z m 0,0"
                 id="path720" />
            </g>
          </g>
          <g
             style="fill:#000000;fill-opacity:1"
             id="g724">
            <g
               id="g723"
               transform="translate(23.389,11.147)">
              <path
                 style="stroke:none"
                 d="m 3.265625,-2.78125 c 0.0625,-0.140625 0.0625,-0.171875 0.0625,-0.203125 0,-0.046875 0,-0.0625 -0.0625,-0.203125 l -2.09375,-5.5 C 1.09375,-8.890625 1.03125,-8.96875 0.890625,-8.96875 c -0.125,0 -0.234375,0.109375 -0.234375,0.25 0,0.03125 0,0.046875 0.0625,0.1875 L 2.828125,-2.984375 0.71875,2.53125 C 0.65625,2.671875 0.65625,2.6875 0.65625,2.75 c 0,0.125 0.109375,0.234375 0.234375,0.234375 0.15625,0 0.203125,-0.109375 0.25,-0.234375 z m 0,0"
                 id="path722" />
            </g>
          </g>
        </g>
      </g>
      <path
         style="fill:none;stroke:#000000;stroke-width:0.264583px;stroke-linecap:butt;stroke-linejoin:miter;stroke-opacity:1"
         d="m 33.260567,180.57568 3.905297,-4.36155"
         id="path726"
         inkscape:path-effect="#path-effect731"
         inkscape:original-d="m 33.260567,180.57568 c 1.301766,-1.45385 2.603531,-2.9077 3.905297,-4.36155"
         transform="translate(12.271268,65.62848)" />
      <g
         inkscape:label=""
         transform="translate(44.205038,241.0745)"
         id="g730">
        <g
           id="g729"
           transform="matrix(0.352778,0,0,0.352778,-0.818841,-0.660885)">
          <g
             style="fill:#000000;fill-opacity:1"
             id="g728">
            <g
               id="g727"
               transform="translate(1.993,7.1389999)">
              <path
                 style="stroke:none"
                 d="M 2.46875,-3.5 C 2.484375,-3.578125 2.78125,-4.171875 3.234375,-4.546875 3.53125,-4.84375 3.9375,-5.03125 4.40625,-5.03125 c 0.484375,0 0.65625,0.359375 0.65625,0.828125 0,0.6875 -0.5,2.046875 -0.734375,2.703125 -0.109375,0.28125 -0.171875,0.4375 -0.171875,0.65625 0,0.53125 0.375,0.96875 0.953125,0.96875 1.109375,0 1.53125,-1.765625 1.53125,-1.828125 0,-0.0625 -0.046875,-0.109375 -0.125,-0.109375 -0.109375,0 -0.125,0.03125 -0.1875,0.234375 C 6.0625,-0.59375 5.609375,-0.125 5.140625,-0.125 c -0.125,0 -0.3125,0 -0.3125,-0.390625 0,-0.296875 0.125,-0.65625 0.203125,-0.828125 C 5.265625,-2 5.765625,-3.328125 5.765625,-4.015625 c 0,-0.71875 -0.40625,-1.25 -1.3125,-1.25 -1.078125,0 -1.625,0.75 -1.84375,1.046875 -0.046875,-0.6875 -0.53125,-1.046875 -1.0625,-1.046875 -0.375,0 -0.640625,0.21875 -0.84375,0.625 -0.21875,0.4375 -0.375,1.15625 -0.375,1.203125 0,0.046875 0.046875,0.109375 0.125,0.109375 0.09375,0 0.109375,-0.015625 0.1875,-0.296875 0.1875,-0.71875 0.40625,-1.40625 0.875,-1.40625 0.28125,0 0.375,0.1875 0.375,0.546875 0,0.265625 -0.125,0.734375 -0.203125,1.109375 l -0.34375,1.28125 c -0.046875,0.234375 -0.171875,0.765625 -0.234375,0.984375 -0.078125,0.3125 -0.21875,0.875 -0.21875,0.9375 0,0.15625 0.140625,0.296875 0.3125,0.296875 0.140625,0 0.3125,-0.078125 0.40625,-0.25 C 1.640625,-0.1875 1.75,-0.609375 1.8125,-0.84375 l 0.25,-1.078125 z m 0,0"
                 id="path727" />
            </g>
          </g>
        </g>
      </g>
      <path
         style="fill:none;stroke:#000000;stroke-width:0.264583px;stroke-linecap:butt;stroke-linejoin:miter;stroke-opacity:1"
         d="m 33.260567,180.57568 3.905297,-4.36155"
         id="path733"
         inkscape:path-effect="#path-effect738"
         inkscape:original-d="m 33.260567,180.57568 c 1.301766,-1.45385 2.603531,-2.9077 3.905297,-4.36155"
         transform="translate(70.379201,65.616702)" />
      <g
         inkscape:label=""
         transform="translate(102.89554,240.70563)"
         id="g737">
        <g
           id="g736"
           transform="matrix(0.352778,0,0,0.352778,-0.818841,-0.660885)">
          <g
             style="fill:#000000;fill-opacity:1"
             id="g735">
            <g
               id="g734"
               transform="translate(1.993,7.1389999)">
              <path
                 style="stroke:none"
                 d="M 2.46875,-3.5 C 2.484375,-3.578125 2.78125,-4.171875 3.234375,-4.546875 3.53125,-4.84375 3.9375,-5.03125 4.40625,-5.03125 c 0.484375,0 0.65625,0.359375 0.65625,0.828125 0,0.6875 -0.5,2.046875 -0.734375,2.703125 -0.109375,0.28125 -0.171875,0.4375 -0.171875,0.65625 0,0.53125 0.375,0.96875 0.953125,0.96875 1.109375,0 1.53125,-1.765625 1.53125,-1.828125 0,-0.0625 -0.046875,-0.109375 -0.125,-0.109375 -0.109375,0 -0.125,0.03125 -0.1875,0.234375 C 6.0625,-0.59375 5.609375,-0.125 5.140625,-0.125 c -0.125,0 -0.3125,0 -0.3125,-0.390625 0,-0.296875 0.125,-0.65625 0.203125,-0.828125 C 5.265625,-2 5.765625,-3.328125 5.765625,-4.015625 c 0,-0.71875 -0.40625,-1.25 -1.3125,-1.25 -1.078125,0 -1.625,0.75 -1.84375,1.046875 -0.046875,-0.6875 -0.53125,-1.046875 -1.0625,-1.046875 -0.375,0 -0.640625,0.21875 -0.84375,0.625 -0.21875,0.4375 -0.375,1.15625 -0.375,1.203125 0,0.046875 0.046875,0.109375 0.125,0.109375 0.09375,0 0.109375,-0.015625 0.1875,-0.296875 0.1875,-0.71875 0.40625,-1.40625 0.875,-1.40625 0.28125,0 0.375,0.1875 0.375,0.546875 0,0.265625 -0.125,0.734375 -0.203125,1.109375 l -0.34375,1.28125 c -0.046875,0.234375 -0.171875,0.765625 -0.234375,0.984375 -0.078125,0.3125 -0.21875,0.875 -0.21875,0.9375 0,0.15625 0.140625,0.296875 0.3125,0.296875 0.140625,0 0.3125,-0.078125 0.40625,-0.25 C 1.640625,-0.1875 1.75,-0.609375 1.8125,-0.84375 l 0.25,-1.078125 z m 0,0"
                 id="path734" />
            </g>
          </g>
        </g>
      </g>
    </g>
  </g>
</svg>
