<?xml version="1.0" encoding="UTF-8" standalone="no"?>
<!-- Created with Inkscape (http://www.inkscape.org/) -->

<svg
   width="139.48808mm"
   height="23.412922mm"
   viewBox="0 0 139.48808 23.412922"
   version="1.1"
   id="svg1"
   inkscape:version="1.3 (1:1.3+202307231459+0e150ed6c4)"
   sodipodi:docname="Uf.svg"
   xmlns:inkscape="http://www.inkscape.org/namespaces/inkscape"
   xmlns:sodipodi="http://sodipodi.sourceforge.net/DTD/sodipodi-0.dtd"
   xmlns="http://www.w3.org/2000/svg"
   xmlns:svg="http://www.w3.org/2000/svg">
  <sodipodi:namedview
     id="namedview1"
     pagecolor="#ffffff"
     bordercolor="#666666"
     borderopacity="1.0"
     inkscape:showpageshadow="2"
     inkscape:pageopacity="0.0"
     inkscape:pagecheckerboard="0"
     inkscape:deskcolor="#d1d1d1"
     inkscape:document-units="mm"
     inkscape:zoom="1.6890572"
     inkscape:cx="396.67099"
     inkscape:cy="561.25986"
     inkscape:window-width="3840"
     inkscape:window-height="2096"
     inkscape:window-x="0"
     inkscape:window-y="27"
     inkscape:window-maximized="1"
     inkscape:current-layer="layer1" />
  <defs
     id="defs1">
    <inkscape:path-effect
       effect="spiro"
       id="path-effect153"
       is_visible="true"
       lpeversion="1" />
    <inkscape:path-effect
       effect="spiro"
       id="path-effect147"
       is_visible="true"
       lpeversion="1" />
    <inkscape:path-effect
       effect="spiro"
       id="path-effect96"
       is_visible="true"
       lpeversion="1" />
    <inkscape:path-effect
       effect="spiro"
       id="path-effect94"
       is_visible="true"
       lpeversion="1" />
    <inkscape:path-effect
       effect="spiro"
       id="path-effect92"
       is_visible="true"
       lpeversion="1" />
    <inkscape:path-effect
       effect="spiro"
       id="path-effect90"
       is_visible="true"
       lpeversion="1" />
  </defs>
  <g
     inkscape:label="Capa 1"
     inkscape:groupmode="layer"
     id="layer1"
     transform="translate(-37.35687,-81.279813)">
    <g
       id="g89"
       transform="translate(0,39.158352)">
      <rect
         style="fill:none;fill-opacity:0.434037;stroke:#000000;stroke-width:0.264999"
         id="rect2"
         width="22.480396"
         height="23.147923"
         x="53.307049"
         y="42.253956" />
      <path
         style="fill:none;stroke:#000000;stroke-width:0.264583px;stroke-linecap:butt;stroke-linejoin:miter;stroke-opacity:1"
         d="M 85.305425,46.550495 H 107.25892"
         id="path3"
         inkscape:path-effect="#path-effect90"
         inkscape:original-d="m 85.305425,46.550495 c 9.183098,-0.03612 12.821929,0 21.953495,0"
         transform="translate(-9.5250005,13.758336)"
         sodipodi:nodetypes="cc" />
      <path
         style="fill:none;stroke:#000000;stroke-width:0.264583px;stroke-linecap:butt;stroke-linejoin:miter;stroke-opacity:1"
         d="M 96.623565,46.550495 H 112.70012"
         id="path5"
         inkscape:path-effect="#path-effect92"
         inkscape:original-d="m 96.623565,46.550495 c 9.183095,-0.03612 6.944985,0 16.076555,0"
         transform="translate(-59.266698,13.758336)"
         sodipodi:nodetypes="cc" />
      <g
         inkscape:label=""
         transform="matrix(2.0291859,0,0,2.0291859,60.848707,50.345877)"
         id="g13">
        <g
           id="g12"
           transform="matrix(0.352778,0,0,0.352778,-0.940109,-0.701146)">
          <g
             style="fill:#000000;fill-opacity:1"
             id="g9">
            <g
               id="g8"
               transform="translate(1.993,8.8000002)">
              <path
                 style="stroke:none"
                 d="M 6.328125,-5.765625 C 6.4375,-6.171875 6.609375,-6.46875 7.40625,-6.5 c 0.046875,0 0.171875,-0.015625 0.171875,-0.203125 0,0 0,-0.109375 -0.125,-0.109375 -0.328125,0 -0.6875,0.03125 -1.015625,0.03125 -0.34375,0 -0.71875,-0.03125 -1.046875,-0.03125 -0.0625,0 -0.171875,0 -0.171875,0.203125 C 5.21875,-6.5 5.3125,-6.5 5.390625,-6.5 c 0.578125,0.015625 0.6875,0.21875 0.6875,0.4375 0,0.03125 -0.03125,0.1875 -0.03125,0.203125 l -0.90625,3.5625 C 4.8125,-0.953125 3.65625,-0.09375 2.65625,-0.09375 c -0.671875,0 -1.203125,-0.4375 -1.203125,-1.296875 0,-0.015625 0,-0.328125 0.109375,-0.765625 L 2.515625,-6.046875 C 2.609375,-6.40625 2.625,-6.5 3.359375,-6.5 c 0.265625,0 0.34375,0 0.34375,-0.203125 0,-0.109375 -0.109375,-0.109375 -0.140625,-0.109375 -0.28125,0 -1,0.03125 -1.28125,0.03125 -0.28125,0 -1,-0.03125 -1.28125,-0.03125 -0.078125,0 -0.1875,0 -0.1875,0.203125 C 0.8125,-6.5 0.890625,-6.5 1.09375,-6.5 c 0.015625,0 0.203125,0 0.375,0.015625 0.171875,0.03125 0.265625,0.03125 0.265625,0.171875 0,0.046875 -0.109375,0.46875 -0.171875,0.703125 l -0.21875,0.875 C 1.25,-4.34375 0.78125,-2.46875 0.734375,-2.265625 0.671875,-2 0.671875,-1.84375 0.671875,-1.6875 c 0,1.203125 0.90625,1.90625 1.953125,1.90625 1.25,0 2.484375,-1.125 2.8125,-2.4375 z m 0,0"
                 id="path8" />
            </g>
          </g>
          <g
             style="fill:#000000;fill-opacity:1"
             id="g11">
            <g
               id="g10"
               transform="translate(8.7950001,10.294)">
              <path
                 style="stroke:none"
                 d="M 2.84375,-2.75 H 3.515625 C 3.65625,-2.75 3.75,-2.75 3.75,-2.90625 3.75,-3 3.65625,-3 3.53125,-3 H 2.890625 c 0.15625,-0.890625 0.203125,-1.203125 0.265625,-1.40625 0.03125,-0.15625 0.1875,-0.296875 0.359375,-0.296875 0,0 0.1875,0 0.328125,0.078125 -0.296875,0.09375 -0.3125,0.34375 -0.3125,0.375 0,0.15625 0.125,0.265625 0.28125,0.265625 0.1875,0 0.390625,-0.15625 0.390625,-0.421875 0,-0.328125 -0.328125,-0.5 -0.6875,-0.5 -0.3125,0 -0.65625,0.171875 -0.84375,0.515625 C 2.53125,-4.125 2.484375,-3.8125 2.328125,-3 H 1.78125 c -0.140625,0 -0.234375,0 -0.234375,0.15625 0,0.09375 0.09375,0.09375 0.21875,0.09375 H 2.28125 c 0,0.046875 -0.4375,2.546875 -0.609375,3.296875 -0.03125,0.15625 -0.15625,0.671875 -0.484375,0.671875 -0.015625,0 -0.171875,0 -0.3125,-0.078125 0.28125,-0.09375 0.3125,-0.34375 0.3125,-0.375 C 1.1875,0.609375 1.0625,0.5 0.90625,0.5 c -0.1875,0 -0.390625,0.15625 -0.390625,0.421875 0,0.3125 0.328125,0.5 0.671875,0.5 0.4375,0 0.75,-0.453125 0.828125,-0.609375 0.25,-0.46875 0.421875,-1.328125 0.4375,-1.40625 z m 0,0"
                 id="path9" />
            </g>
          </g>
        </g>
      </g>
      <g
         inkscape:label=""
         transform="translate(79.202647,54.698892)"
         id="g64">
        <g
           id="g63"
           transform="matrix(0.352778,0,0,0.352778,-1.20469,-0.702116)">
          <g
             style="fill:#000000;fill-opacity:1"
             id="g25">
            <g
               id="g24"
               transform="translate(1.993,10.959)">
              <path
                 style="stroke:none"
                 d="m 1.90625,-8.53125 c 0,-0.21875 0,-0.4375 -0.25,-0.4375 -0.234375,0 -0.234375,0.21875 -0.234375,0.4375 V 2.5625 c 0,0.203125 0,0.421875 0.234375,0.421875 0.25,0 0.25,-0.21875 0.25,-0.421875 z m 0,0"
                 id="path13" />
            </g>
          </g>
          <g
             style="fill:#000000;fill-opacity:1"
             id="g34">
            <g
               id="g33"
               transform="translate(5.3130002,10.959)">
              <path
                 style="stroke:none"
                 d="m 3.140625,1.34375 c -0.3125,0.453125 -0.78125,0.859375 -1.375,0.859375 C 1.625,2.203125 1.046875,2.171875 0.875,1.625 c 0.03125,0.015625 0.09375,0.015625 0.109375,0.015625 0.359375,0 0.609375,-0.3125 0.609375,-0.59375 C 1.59375,0.78125 1.359375,0.6875 1.1875,0.6875 c -0.203125,0 -0.609375,0.140625 -0.609375,0.71875 0,0.609375 0.515625,1.03125 1.1875,1.03125 C 2.96875,2.4375 4.171875,1.34375 4.5,0.015625 L 5.671875,-4.65625 C 5.6875,-4.703125 5.71875,-4.78125 5.71875,-4.859375 5.71875,-5.03125 5.5625,-5.15625 5.390625,-5.15625 5.28125,-5.15625 5.03125,-5.109375 4.9375,-4.75 L 4.046875,-1.234375 C 4,-1.015625 4,-0.984375 3.890625,-0.859375 3.65625,-0.53125 3.265625,-0.125 2.6875,-0.125 c -0.671875,0 -0.734375,-0.65625 -0.734375,-0.96875 0,-0.6875 0.328125,-1.609375 0.65625,-2.46875 0.125,-0.34375 0.203125,-0.515625 0.203125,-0.75 0,-0.5 -0.359375,-0.953125 -0.953125,-0.953125 -1.09375,0 -1.53125,1.734375 -1.53125,1.828125 0,0.046875 0.046875,0.109375 0.125,0.109375 0.109375,0 0.125,-0.046875 0.171875,-0.21875 0.28125,-1 0.734375,-1.484375 1.203125,-1.484375 0.109375,0 0.3125,0 0.3125,0.390625 0,0.3125 -0.125,0.65625 -0.3125,1.109375 C 1.25,-1.953125 1.25,-1.5625 1.25,-1.28125 1.25,-0.140625 2.0625,0.125 2.65625,0.125 3,0.125 3.4375,0.015625 3.84375,-0.4375 l 0.015625,0.015625 C 3.6875,0.28125 3.5625,0.75 3.140625,1.34375 Z m 0,0"
                 id="path29" />
            </g>
          </g>
          <g
             style="fill:#000000;fill-opacity:1"
             id="g36">
            <g
               id="g35"
               transform="translate(14.107,10.959)">
              <path
                 style="stroke:none"
                 d="m 8.625,-2.984375 c 0,-2.203125 -1.78125,-3.984375 -3.96875,-3.984375 -2.234375,0 -4,1.8125 -4,3.984375 0,2.203125 1.796875,3.96875 3.984375,3.96875 2.21875,0 3.984375,-1.796875 3.984375,-3.96875 z M 0.953125,-3.140625 C 1.078125,-5.15625 2.625,-6.578125 4.5,-6.671875 v 3.53125 z m 3.84375,-3.53125 c 1.875,0.09375 3.421875,1.53125 3.53125,3.53125 H 4.796875 Z M 4.5,0.6875 C 2.640625,0.59375 1.078125,-0.796875 0.953125,-2.84375 H 4.5 Z m 3.828125,-3.53125 c -0.109375,2.046875 -1.6875,3.4375 -3.53125,3.53125 v -3.53125 z m 0,0"
                 id="path34" />
            </g>
          </g>
          <g
             style="fill:#000000;fill-opacity:1"
             id="g38">
            <g
               id="g37"
               transform="translate(26.062,10.959)">
              <path
                 style="stroke:none"
                 d="m 5.328125,-4.8125 c 0.234375,0 0.34375,0 0.34375,-0.21875 0,-0.125 -0.109375,-0.125 -0.3125,-0.125 H 4.390625 C 4.609375,-6.390625 4.78125,-7.234375 4.875,-7.609375 c 0.078125,-0.296875 0.328125,-0.5625 0.640625,-0.5625 0.25,0 0.5,0.109375 0.609375,0.21875 -0.453125,0.046875 -0.609375,0.390625 -0.609375,0.59375 0,0.234375 0.1875,0.375 0.40625,0.375 0.25,0 0.609375,-0.203125 0.609375,-0.65625 0,-0.5 -0.5,-0.78125 -1.03125,-0.78125 -0.515625,0 -1.015625,0.390625 -1.25,0.859375 -0.21875,0.421875 -0.34375,0.84375 -0.609375,2.40625 h -0.8125 c -0.21875,0 -0.34375,0 -0.34375,0.21875 0,0.125 0.078125,0.125 0.3125,0.125 H 3.5625 C 3.34375,-3.6875 2.859375,-0.984375 2.578125,0.28125 2.375,1.328125 2.203125,2.203125 1.609375,2.203125 1.5625,2.203125 1.21875,2.203125 1,1.96875 1.609375,1.921875 1.609375,1.40625 1.609375,1.390625 1.609375,1.140625 1.4375,1 1.203125,1 0.96875,1 0.609375,1.203125 0.609375,1.65625 c 0,0.515625 0.53125,0.78125 1,0.78125 1.21875,0 1.71875,-2.1875 1.84375,-2.78125 C 3.671875,-1.265625 4.25,-4.453125 4.3125,-4.8125 Z m 0,0"
                 id="path36" />
            </g>
          </g>
          <g
             style="fill:#000000;fill-opacity:1"
             id="g40">
            <g
               id="g39"
               transform="translate(33.108002,10.959)">
              <path
                 style="stroke:none"
                 d="m 3.890625,2.90625 c 0,-0.03125 0,-0.0625 -0.203125,-0.265625 C 2.484375,1.4375 1.8125,-0.53125 1.8125,-2.96875 c 0,-2.328125 0.5625,-4.328125 1.953125,-5.734375 0.125,-0.109375 0.125,-0.125 0.125,-0.171875 0,-0.0625 -0.0625,-0.09375 -0.109375,-0.09375 -0.15625,0 -1.140625,0.859375 -1.71875,2.03125 -0.609375,1.21875 -0.890625,2.484375 -0.890625,3.96875 0,1.0625 0.171875,2.484375 0.78125,3.75 C 2.671875,2.21875 3.640625,3 3.78125,3 3.828125,3 3.890625,2.96875 3.890625,2.90625 Z m 0,0"
                 id="path38" />
            </g>
          </g>
          <g
             style="fill:#000000;fill-opacity:1"
             id="g58">
            <g
               id="g57"
               transform="translate(37.660999,10.959)">
              <path
                 style="stroke:none"
                 d="m 5.671875,-4.875 c -0.390625,0.0625 -0.53125,0.359375 -0.53125,0.578125 0,0.296875 0.21875,0.390625 0.390625,0.390625 0.359375,0 0.609375,-0.3125 0.609375,-0.640625 0,-0.5 -0.578125,-0.71875 -1.078125,-0.71875 -0.71875,0 -1.125,0.71875 -1.234375,0.9375 -0.28125,-0.890625 -1.015625,-0.9375 -1.234375,-0.9375 -1.21875,0 -1.859375,1.5625 -1.859375,1.828125 0,0.046875 0.046875,0.109375 0.125,0.109375 0.09375,0 0.125,-0.078125 0.140625,-0.125 0.40625,-1.328125 1.21875,-1.578125 1.5625,-1.578125 0.53125,0 0.640625,0.5 0.640625,0.78125 0,0.265625 -0.078125,0.546875 -0.21875,1.125 L 2.578125,-1.5 c -0.171875,0.71875 -0.515625,1.375 -1.15625,1.375 -0.0625,0 -0.359375,0 -0.609375,-0.15625 C 1.25,-0.359375 1.34375,-0.71875 1.34375,-0.859375 1.34375,-1.09375 1.15625,-1.25 0.9375,-1.25 c -0.296875,0 -0.609375,0.265625 -0.609375,0.640625 0,0.5 0.5625,0.734375 1.078125,0.734375 0.578125,0 0.984375,-0.453125 1.234375,-0.953125 C 2.828125,-0.125 3.4375,0.125 3.875,0.125 5.09375,0.125 5.734375,-1.453125 5.734375,-1.703125 5.734375,-1.765625 5.6875,-1.8125 5.625,-1.8125 5.515625,-1.8125 5.5,-1.75 5.46875,-1.65625 5.140625,-0.609375 4.453125,-0.125 3.90625,-0.125 3.484375,-0.125 3.265625,-0.4375 3.265625,-0.921875 3.265625,-1.1875 3.3125,-1.375 3.5,-2.15625 L 3.921875,-3.796875 C 4.09375,-4.5 4.5,-5.03125 5.0625,-5.03125 c 0.015625,0 0.359375,0 0.609375,0.15625 z m 0,0"
                 id="path41" />
            </g>
          </g>
          <g
             style="fill:#000000;fill-opacity:1"
             id="g60">
            <g
               id="g59"
               transform="translate(44.313,10.959)">
              <path
                 style="stroke:none"
                 d="M 3.375,-2.96875 C 3.375,-3.890625 3.25,-5.359375 2.578125,-6.75 1.875,-8.1875 0.890625,-8.96875 0.765625,-8.96875 c -0.046875,0 -0.109375,0.03125 -0.109375,0.09375 0,0.046875 0,0.0625 0.203125,0.265625 1.203125,1.203125 1.859375,3.1875 1.859375,5.625 0,2.3125 -0.5625,4.3125 -1.9375,5.71875 C 0.65625,2.84375 0.65625,2.875 0.65625,2.90625 0.65625,2.96875 0.71875,3 0.765625,3 0.921875,3 1.90625,2.140625 2.484375,0.96875 3.09375,-0.25 3.375,-1.546875 3.375,-2.96875 Z m 0,0"
                 id="path58" />
            </g>
          </g>
          <g
             style="fill:#000000;fill-opacity:1"
             id="g62">
            <g
               id="g61"
               transform="translate(48.865002,10.959)">
              <path
                 style="stroke:none"
                 d="m 3.265625,-2.78125 c 0.0625,-0.140625 0.0625,-0.171875 0.0625,-0.203125 0,-0.046875 0,-0.0625 -0.0625,-0.203125 l -2.09375,-5.5 C 1.09375,-8.890625 1.03125,-8.96875 0.890625,-8.96875 c -0.125,0 -0.234375,0.109375 -0.234375,0.25 0,0.03125 0,0.046875 0.0625,0.1875 L 2.828125,-2.984375 0.71875,2.53125 C 0.65625,2.671875 0.65625,2.6875 0.65625,2.75 c 0,0.125 0.109375,0.234375 0.234375,0.234375 0.15625,0 0.203125,-0.109375 0.25,-0.234375 z m 0,0"
                 id="path60" />
            </g>
          </g>
        </g>
      </g>
      <g
         inkscape:label=""
         transform="translate(42.319707,42.176834)"
         id="g72">
        <g
           id="g71"
           transform="matrix(0.352778,0,0,0.352778,-1.20469,-0.702116)">
          <g
             style="fill:#000000;fill-opacity:1"
             id="g66">
            <g
               id="g65"
               transform="translate(1.993,10.959)">
              <path
                 style="stroke:none"
                 d="m 1.90625,-8.53125 c 0,-0.21875 0,-0.4375 -0.25,-0.4375 -0.234375,0 -0.234375,0.21875 -0.234375,0.4375 V 2.5625 c 0,0.203125 0,0.421875 0.234375,0.421875 0.25,0 0.25,-0.21875 0.25,-0.421875 z m 0,0"
                 id="path64" />
            </g>
          </g>
          <g
             style="fill:#000000;fill-opacity:1"
             id="g68">
            <g
               id="g67"
               transform="translate(5.3130002,10.959)">
              <path
                 style="stroke:none"
                 d="m 5.671875,-4.875 c -0.390625,0.0625 -0.53125,0.359375 -0.53125,0.578125 0,0.296875 0.21875,0.390625 0.390625,0.390625 0.359375,0 0.609375,-0.3125 0.609375,-0.640625 0,-0.5 -0.578125,-0.71875 -1.078125,-0.71875 -0.71875,0 -1.125,0.71875 -1.234375,0.9375 -0.28125,-0.890625 -1.015625,-0.9375 -1.234375,-0.9375 -1.21875,0 -1.859375,1.5625 -1.859375,1.828125 0,0.046875 0.046875,0.109375 0.125,0.109375 0.09375,0 0.125,-0.078125 0.140625,-0.125 0.40625,-1.328125 1.21875,-1.578125 1.5625,-1.578125 0.53125,0 0.640625,0.5 0.640625,0.78125 0,0.265625 -0.078125,0.546875 -0.21875,1.125 L 2.578125,-1.5 c -0.171875,0.71875 -0.515625,1.375 -1.15625,1.375 -0.0625,0 -0.359375,0 -0.609375,-0.15625 C 1.25,-0.359375 1.34375,-0.71875 1.34375,-0.859375 1.34375,-1.09375 1.15625,-1.25 0.9375,-1.25 c -0.296875,0 -0.609375,0.265625 -0.609375,0.640625 0,0.5 0.5625,0.734375 1.078125,0.734375 0.578125,0 0.984375,-0.453125 1.234375,-0.953125 C 2.828125,-0.125 3.4375,0.125 3.875,0.125 5.09375,0.125 5.734375,-1.453125 5.734375,-1.703125 5.734375,-1.765625 5.6875,-1.8125 5.625,-1.8125 5.515625,-1.8125 5.5,-1.75 5.46875,-1.65625 5.140625,-0.609375 4.453125,-0.125 3.90625,-0.125 3.484375,-0.125 3.265625,-0.4375 3.265625,-0.921875 3.265625,-1.1875 3.3125,-1.375 3.5,-2.15625 L 3.921875,-3.796875 C 4.09375,-4.5 4.5,-5.03125 5.0625,-5.03125 c 0.015625,0 0.359375,0 0.609375,0.15625 z m 0,0"
                 id="path66" />
            </g>
          </g>
          <g
             style="fill:#000000;fill-opacity:1"
             id="g70">
            <g
               id="g69"
               transform="translate(11.965,10.959)">
              <path
                 style="stroke:none"
                 d="m 3.265625,-2.78125 c 0.0625,-0.140625 0.0625,-0.171875 0.0625,-0.203125 0,-0.046875 0,-0.0625 -0.0625,-0.203125 l -2.09375,-5.5 C 1.09375,-8.890625 1.03125,-8.96875 0.890625,-8.96875 c -0.125,0 -0.234375,0.109375 -0.234375,0.25 0,0.03125 0,0.046875 0.0625,0.1875 L 2.828125,-2.984375 0.71875,2.53125 C 0.65625,2.671875 0.65625,2.6875 0.65625,2.75 c 0,0.125 0.109375,0.234375 0.234375,0.234375 0.15625,0 0.203125,-0.109375 0.25,-0.234375 z m 0,0"
                 id="path68" />
            </g>
          </g>
        </g>
      </g>
      <g
         inkscape:label=""
         transform="translate(79.361397,42.176834)"
         id="g80">
        <g
           id="g79"
           transform="matrix(0.352778,0,0,0.352778,-1.20469,-0.702116)">
          <g
             style="fill:#000000;fill-opacity:1"
             id="g74">
            <g
               id="g73"
               transform="translate(1.993,10.959)">
              <path
                 style="stroke:none"
                 d="m 1.90625,-8.53125 c 0,-0.21875 0,-0.4375 -0.25,-0.4375 -0.234375,0 -0.234375,0.21875 -0.234375,0.4375 V 2.5625 c 0,0.203125 0,0.421875 0.234375,0.421875 0.25,0 0.25,-0.21875 0.25,-0.421875 z m 0,0"
                 id="path72" />
            </g>
          </g>
          <g
             style="fill:#000000;fill-opacity:1"
             id="g76">
            <g
               id="g75"
               transform="translate(5.3130002,10.959)">
              <path
                 style="stroke:none"
                 d="m 5.671875,-4.875 c -0.390625,0.0625 -0.53125,0.359375 -0.53125,0.578125 0,0.296875 0.21875,0.390625 0.390625,0.390625 0.359375,0 0.609375,-0.3125 0.609375,-0.640625 0,-0.5 -0.578125,-0.71875 -1.078125,-0.71875 -0.71875,0 -1.125,0.71875 -1.234375,0.9375 -0.28125,-0.890625 -1.015625,-0.9375 -1.234375,-0.9375 -1.21875,0 -1.859375,1.5625 -1.859375,1.828125 0,0.046875 0.046875,0.109375 0.125,0.109375 0.09375,0 0.125,-0.078125 0.140625,-0.125 0.40625,-1.328125 1.21875,-1.578125 1.5625,-1.578125 0.53125,0 0.640625,0.5 0.640625,0.78125 0,0.265625 -0.078125,0.546875 -0.21875,1.125 L 2.578125,-1.5 c -0.171875,0.71875 -0.515625,1.375 -1.15625,1.375 -0.0625,0 -0.359375,0 -0.609375,-0.15625 C 1.25,-0.359375 1.34375,-0.71875 1.34375,-0.859375 1.34375,-1.09375 1.15625,-1.25 0.9375,-1.25 c -0.296875,0 -0.609375,0.265625 -0.609375,0.640625 0,0.5 0.5625,0.734375 1.078125,0.734375 0.578125,0 0.984375,-0.453125 1.234375,-0.953125 C 2.828125,-0.125 3.4375,0.125 3.875,0.125 5.09375,0.125 5.734375,-1.453125 5.734375,-1.703125 5.734375,-1.765625 5.6875,-1.8125 5.625,-1.8125 5.515625,-1.8125 5.5,-1.75 5.46875,-1.65625 5.140625,-0.609375 4.453125,-0.125 3.90625,-0.125 3.484375,-0.125 3.265625,-0.4375 3.265625,-0.921875 3.265625,-1.1875 3.3125,-1.375 3.5,-2.15625 L 3.921875,-3.796875 C 4.09375,-4.5 4.5,-5.03125 5.0625,-5.03125 c 0.015625,0 0.359375,0 0.609375,0.15625 z m 0,0"
                 id="path74" />
            </g>
          </g>
          <g
             style="fill:#000000;fill-opacity:1"
             id="g78">
            <g
               id="g77"
               transform="translate(11.965,10.959)">
              <path
                 style="stroke:none"
                 d="m 3.265625,-2.78125 c 0.0625,-0.140625 0.0625,-0.171875 0.0625,-0.203125 0,-0.046875 0,-0.0625 -0.0625,-0.203125 l -2.09375,-5.5 C 1.09375,-8.890625 1.03125,-8.96875 0.890625,-8.96875 c -0.125,0 -0.234375,0.109375 -0.234375,0.25 0,0.03125 0,0.046875 0.0625,0.1875 L 2.828125,-2.984375 0.71875,2.53125 C 0.65625,2.671875 0.65625,2.6875 0.65625,2.75 c 0,0.125 0.109375,0.234375 0.234375,0.234375 0.15625,0 0.203125,-0.109375 0.25,-0.234375 z m 0,0"
                 id="path76" />
            </g>
          </g>
        </g>
      </g>
      <g
         inkscape:label=""
         transform="translate(42.410547,55.076737)"
         id="g88">
        <g
           id="g87"
           transform="matrix(0.352778,0,0,0.352778,-1.20469,-0.702116)">
          <g
             style="fill:#000000;fill-opacity:1"
             id="g82">
            <g
               id="g81"
               transform="translate(1.993,10.959)">
              <path
                 style="stroke:none"
                 d="m 1.90625,-8.53125 c 0,-0.21875 0,-0.4375 -0.25,-0.4375 -0.234375,0 -0.234375,0.21875 -0.234375,0.4375 V 2.5625 c 0,0.203125 0,0.421875 0.234375,0.421875 0.25,0 0.25,-0.21875 0.25,-0.421875 z m 0,0"
                 id="path80" />
            </g>
          </g>
          <g
             style="fill:#000000;fill-opacity:1"
             id="g84">
            <g
               id="g83"
               transform="translate(5.3130002,10.959)">
              <path
                 style="stroke:none"
                 d="m 3.140625,1.34375 c -0.3125,0.453125 -0.78125,0.859375 -1.375,0.859375 C 1.625,2.203125 1.046875,2.171875 0.875,1.625 c 0.03125,0.015625 0.09375,0.015625 0.109375,0.015625 0.359375,0 0.609375,-0.3125 0.609375,-0.59375 C 1.59375,0.78125 1.359375,0.6875 1.1875,0.6875 c -0.203125,0 -0.609375,0.140625 -0.609375,0.71875 0,0.609375 0.515625,1.03125 1.1875,1.03125 C 2.96875,2.4375 4.171875,1.34375 4.5,0.015625 L 5.671875,-4.65625 C 5.6875,-4.703125 5.71875,-4.78125 5.71875,-4.859375 5.71875,-5.03125 5.5625,-5.15625 5.390625,-5.15625 5.28125,-5.15625 5.03125,-5.109375 4.9375,-4.75 L 4.046875,-1.234375 C 4,-1.015625 4,-0.984375 3.890625,-0.859375 3.65625,-0.53125 3.265625,-0.125 2.6875,-0.125 c -0.671875,0 -0.734375,-0.65625 -0.734375,-0.96875 0,-0.6875 0.328125,-1.609375 0.65625,-2.46875 0.125,-0.34375 0.203125,-0.515625 0.203125,-0.75 0,-0.5 -0.359375,-0.953125 -0.953125,-0.953125 -1.09375,0 -1.53125,1.734375 -1.53125,1.828125 0,0.046875 0.046875,0.109375 0.125,0.109375 0.109375,0 0.125,-0.046875 0.171875,-0.21875 0.28125,-1 0.734375,-1.484375 1.203125,-1.484375 0.109375,0 0.3125,0 0.3125,0.390625 0,0.3125 -0.125,0.65625 -0.3125,1.109375 C 1.25,-1.953125 1.25,-1.5625 1.25,-1.28125 1.25,-0.140625 2.0625,0.125 2.65625,0.125 3,0.125 3.4375,0.015625 3.84375,-0.4375 l 0.015625,0.015625 C 3.6875,0.28125 3.5625,0.75 3.140625,1.34375 Z m 0,0"
                 id="path82" />
            </g>
          </g>
          <g
             style="fill:#000000;fill-opacity:1"
             id="g86">
            <g
               id="g85"
               transform="translate(11.45,10.959)">
              <path
                 style="stroke:none"
                 d="m 3.265625,-2.78125 c 0.0625,-0.140625 0.0625,-0.171875 0.0625,-0.203125 0,-0.046875 0,-0.0625 -0.0625,-0.203125 l -2.09375,-5.5 C 1.09375,-8.890625 1.03125,-8.96875 0.890625,-8.96875 c -0.125,0 -0.234375,0.109375 -0.234375,0.25 0,0.03125 0,0.046875 0.0625,0.1875 L 2.828125,-2.984375 0.71875,2.53125 C 0.65625,2.671875 0.65625,2.6875 0.65625,2.75 c 0,0.125 0.109375,0.234375 0.234375,0.234375 0.15625,0 0.203125,-0.109375 0.25,-0.234375 z m 0,0"
                 id="path84" />
            </g>
          </g>
        </g>
      </g>
      <path
         style="fill:none;stroke:#000000;stroke-width:0.264583px;stroke-linecap:butt;stroke-linejoin:miter;stroke-opacity:1"
         d="M 96.623565,46.550495 H 112.70012"
         id="path88"
         inkscape:path-effect="#path-effect94"
         inkscape:original-d="m 96.623565,46.550495 c 9.183095,-0.03612 6.944985,0 16.076555,0"
         transform="translate(-59.266698,1.0583331)"
         sodipodi:nodetypes="cc" />
      <path
         style="fill:none;stroke:#000000;stroke-width:0.264583px;stroke-linecap:butt;stroke-linejoin:miter;stroke-opacity:1"
         d="M 85.305425,46.550495 H 107.25892"
         id="path89"
         inkscape:path-effect="#path-effect96"
         inkscape:original-d="m 85.305425,46.550495 c 9.183098,-0.03612 12.821929,0 21.953495,0"
         transform="translate(-9.5250005,1.0583331)"
         sodipodi:nodetypes="cc" />
    </g>
    <rect
       style="fill:none;fill-opacity:0.434037;stroke:#000000;stroke-width:0.264999"
       id="rect96"
       width="22.480396"
       height="23.147923"
       x="97.757111"
       y="81.412308" />
    <path
       style="fill:none;stroke:#000000;stroke-width:0.264583px;stroke-linecap:butt;stroke-linejoin:miter;stroke-opacity:1"
       d="M 85.305425,46.550495 H 107.25892"
       id="path96"
       inkscape:path-effect="#path-effect147"
       inkscape:original-d="m 85.305425,46.550495 c 9.183098,-0.03612 12.821929,0 21.953495,0"
       transform="translate(34.925021,52.916688)"
       sodipodi:nodetypes="cc" />
    <g
       inkscape:label=""
       transform="matrix(2.0291859,0,0,2.0291859,105.29862,89.504229)"
       id="g103">
      <g
         id="g102"
         transform="matrix(0.352778,0,0,0.352778,-0.940109,-0.701146)">
        <g
           style="fill:#000000;fill-opacity:1"
           id="g99">
          <g
             id="g98"
             transform="translate(1.993,8.8000002)">
            <path
               style="stroke:none"
               d="M 6.328125,-5.765625 C 6.4375,-6.171875 6.609375,-6.46875 7.40625,-6.5 c 0.046875,0 0.171875,-0.015625 0.171875,-0.203125 0,0 0,-0.109375 -0.125,-0.109375 -0.328125,0 -0.6875,0.03125 -1.015625,0.03125 -0.34375,0 -0.71875,-0.03125 -1.046875,-0.03125 -0.0625,0 -0.171875,0 -0.171875,0.203125 C 5.21875,-6.5 5.3125,-6.5 5.390625,-6.5 c 0.578125,0.015625 0.6875,0.21875 0.6875,0.4375 0,0.03125 -0.03125,0.1875 -0.03125,0.203125 l -0.90625,3.5625 C 4.8125,-0.953125 3.65625,-0.09375 2.65625,-0.09375 c -0.671875,0 -1.203125,-0.4375 -1.203125,-1.296875 0,-0.015625 0,-0.328125 0.109375,-0.765625 L 2.515625,-6.046875 C 2.609375,-6.40625 2.625,-6.5 3.359375,-6.5 c 0.265625,0 0.34375,0 0.34375,-0.203125 0,-0.109375 -0.109375,-0.109375 -0.140625,-0.109375 -0.28125,0 -1,0.03125 -1.28125,0.03125 -0.28125,0 -1,-0.03125 -1.28125,-0.03125 -0.078125,0 -0.1875,0 -0.1875,0.203125 C 0.8125,-6.5 0.890625,-6.5 1.09375,-6.5 c 0.015625,0 0.203125,0 0.375,0.015625 0.171875,0.03125 0.265625,0.03125 0.265625,0.171875 0,0.046875 -0.109375,0.46875 -0.171875,0.703125 l -0.21875,0.875 C 1.25,-4.34375 0.78125,-2.46875 0.734375,-2.265625 0.671875,-2 0.671875,-1.84375 0.671875,-1.6875 c 0,1.203125 0.90625,1.90625 1.953125,1.90625 1.25,0 2.484375,-1.125 2.8125,-2.4375 z m 0,0"
               id="path98" />
          </g>
        </g>
        <g
           style="fill:#000000;fill-opacity:1"
           id="g101">
          <g
             id="g100"
             transform="translate(8.7950001,10.294)">
            <path
               style="stroke:none"
               d="M 2.84375,-2.75 H 3.515625 C 3.65625,-2.75 3.75,-2.75 3.75,-2.90625 3.75,-3 3.65625,-3 3.53125,-3 H 2.890625 c 0.15625,-0.890625 0.203125,-1.203125 0.265625,-1.40625 0.03125,-0.15625 0.1875,-0.296875 0.359375,-0.296875 0,0 0.1875,0 0.328125,0.078125 -0.296875,0.09375 -0.3125,0.34375 -0.3125,0.375 0,0.15625 0.125,0.265625 0.28125,0.265625 0.1875,0 0.390625,-0.15625 0.390625,-0.421875 0,-0.328125 -0.328125,-0.5 -0.6875,-0.5 -0.3125,0 -0.65625,0.171875 -0.84375,0.515625 C 2.53125,-4.125 2.484375,-3.8125 2.328125,-3 H 1.78125 c -0.140625,0 -0.234375,0 -0.234375,0.15625 0,0.09375 0.09375,0.09375 0.21875,0.09375 H 2.28125 c 0,0.046875 -0.4375,2.546875 -0.609375,3.296875 -0.03125,0.15625 -0.15625,0.671875 -0.484375,0.671875 -0.015625,0 -0.171875,0 -0.3125,-0.078125 0.28125,-0.09375 0.3125,-0.34375 0.3125,-0.375 C 1.1875,0.609375 1.0625,0.5 0.90625,0.5 c -0.1875,0 -0.390625,0.15625 -0.390625,0.421875 0,0.3125 0.328125,0.5 0.671875,0.5 0.4375,0 0.75,-0.453125 0.828125,-0.609375 0.25,-0.46875 0.421875,-1.328125 0.4375,-1.40625 z m 0,0"
               id="path99" />
          </g>
        </g>
      </g>
    </g>
    <g
       inkscape:label=""
       transform="translate(123.81131,81.335186)"
       id="g137">
      <g
         id="g136"
         transform="matrix(0.352778,0,0,0.352778,-1.20469,-0.702116)">
        <g
           style="fill:#000000;fill-opacity:1"
           id="g131">
          <g
             id="g130"
             transform="translate(1.993,10.959)">
            <path
               style="stroke:none"
               d="m 1.90625,-8.53125 c 0,-0.21875 0,-0.4375 -0.25,-0.4375 -0.234375,0 -0.234375,0.21875 -0.234375,0.4375 V 2.5625 c 0,0.203125 0,0.421875 0.234375,0.421875 0.25,0 0.25,-0.21875 0.25,-0.421875 z m 0,0"
               id="path129" />
          </g>
        </g>
        <g
           style="fill:#000000;fill-opacity:1"
           id="g133">
          <g
             id="g132"
             transform="translate(5.3130002,10.959)">
            <path
               style="stroke:none"
               d="m 5.671875,-4.875 c -0.390625,0.0625 -0.53125,0.359375 -0.53125,0.578125 0,0.296875 0.21875,0.390625 0.390625,0.390625 0.359375,0 0.609375,-0.3125 0.609375,-0.640625 0,-0.5 -0.578125,-0.71875 -1.078125,-0.71875 -0.71875,0 -1.125,0.71875 -1.234375,0.9375 -0.28125,-0.890625 -1.015625,-0.9375 -1.234375,-0.9375 -1.21875,0 -1.859375,1.5625 -1.859375,1.828125 0,0.046875 0.046875,0.109375 0.125,0.109375 0.09375,0 0.125,-0.078125 0.140625,-0.125 0.40625,-1.328125 1.21875,-1.578125 1.5625,-1.578125 0.53125,0 0.640625,0.5 0.640625,0.78125 0,0.265625 -0.078125,0.546875 -0.21875,1.125 L 2.578125,-1.5 c -0.171875,0.71875 -0.515625,1.375 -1.15625,1.375 -0.0625,0 -0.359375,0 -0.609375,-0.15625 C 1.25,-0.359375 1.34375,-0.71875 1.34375,-0.859375 1.34375,-1.09375 1.15625,-1.25 0.9375,-1.25 c -0.296875,0 -0.609375,0.265625 -0.609375,0.640625 0,0.5 0.5625,0.734375 1.078125,0.734375 0.578125,0 0.984375,-0.453125 1.234375,-0.953125 C 2.828125,-0.125 3.4375,0.125 3.875,0.125 5.09375,0.125 5.734375,-1.453125 5.734375,-1.703125 5.734375,-1.765625 5.6875,-1.8125 5.625,-1.8125 5.515625,-1.8125 5.5,-1.75 5.46875,-1.65625 5.140625,-0.609375 4.453125,-0.125 3.90625,-0.125 3.484375,-0.125 3.265625,-0.4375 3.265625,-0.921875 3.265625,-1.1875 3.3125,-1.375 3.5,-2.15625 L 3.921875,-3.796875 C 4.09375,-4.5 4.5,-5.03125 5.0625,-5.03125 c 0.015625,0 0.359375,0 0.609375,0.15625 z m 0,0"
               id="path131" />
          </g>
        </g>
        <g
           style="fill:#000000;fill-opacity:1"
           id="g135">
          <g
             id="g134"
             transform="translate(11.965,10.959)">
            <path
               style="stroke:none"
               d="m 3.265625,-2.78125 c 0.0625,-0.140625 0.0625,-0.171875 0.0625,-0.203125 0,-0.046875 0,-0.0625 -0.0625,-0.203125 l -2.09375,-5.5 C 1.09375,-8.890625 1.03125,-8.96875 0.890625,-8.96875 c -0.125,0 -0.234375,0.109375 -0.234375,0.25 0,0.03125 0,0.046875 0.0625,0.1875 L 2.828125,-2.984375 0.71875,2.53125 C 0.65625,2.671875 0.65625,2.6875 0.65625,2.75 c 0,0.125 0.109375,0.234375 0.234375,0.234375 0.15625,0 0.203125,-0.109375 0.25,-0.234375 z m 0,0"
               id="path133" />
          </g>
        </g>
      </g>
    </g>
    <path
       style="fill:none;stroke:#000000;stroke-width:0.264583px;stroke-linecap:butt;stroke-linejoin:miter;stroke-opacity:1"
       d="M 85.305425,46.550495 H 107.25892"
       id="path146"
       inkscape:path-effect="#path-effect153"
       inkscape:original-d="m 85.305425,46.550495 c 9.183098,-0.03612 12.821929,0 21.953495,0"
       transform="translate(34.925021,40.216685)"
       sodipodi:nodetypes="cc" />
    <g
       inkscape:label=""
       transform="translate(123.86643,93.404834)"
       id="g178">
      <g
         id="g177"
         transform="matrix(0.352778,0,0,0.352778,-1.30391,-0.706261)">
        <g
           style="fill:#000000;fill-opacity:1"
           id="g154">
          <g
             id="g153"
             transform="translate(1.993,12.752)">
            <path
               style="stroke:none"
               d="M 2.28125,-10.234375 C 2.28125,-10.5 2.28125,-10.75 2,-10.75 c -0.296875,0 -0.296875,0.25 -0.296875,0.515625 V 3.0625 c 0,0.265625 0,0.515625 0.296875,0.515625 0.28125,0 0.28125,-0.25 0.28125,-0.515625 z m 0,0"
               id="path30" />
          </g>
        </g>
        <g
           style="fill:#000000;fill-opacity:1"
           id="g156">
          <g
             id="g155"
             transform="translate(5.9780002,12.752)">
            <path
               style="stroke:none"
               d="m 4.65625,3.484375 c 0,-0.046875 0,-0.078125 -0.234375,-0.3125 -1.4375,-1.453125 -2.234375,-3.8125 -2.234375,-6.75 0,-2.78125 0.671875,-5.171875 2.328125,-6.859375 0.140625,-0.140625 0.140625,-0.15625 0.140625,-0.203125 0,-0.09375 -0.0625,-0.109375 -0.125,-0.109375 -0.1875,0 -1.359375,1.03125 -2.0625,2.4375 -0.734375,1.4375 -1.0625,2.984375 -1.0625,4.734375 0,1.28125 0.203125,2.984375 0.953125,4.53125 0.84375,1.71875 2.015625,2.640625 2.171875,2.640625 0.0625,0 0.125,-0.015625 0.125,-0.109375 z m 0,0"
               id="path31" />
          </g>
        </g>
        <g
           style="fill:#000000;fill-opacity:1"
           id="g158">
          <g
             id="g157"
             transform="translate(11.44,12.752)">
            <path
               style="stroke:none"
               d="m 3.765625,1.609375 c -0.375,0.546875 -0.9375,1.03125 -1.640625,1.03125 -0.171875,0 -0.859375,-0.03125 -1.078125,-0.6875 C 1.09375,1.96875 1.15625,1.96875 1.1875,1.96875 c 0.4375,0 0.71875,-0.375 0.71875,-0.703125 C 1.90625,0.9375 1.640625,0.8125 1.421875,0.8125 1.1875,0.8125 0.6875,0.984375 0.6875,1.6875 c 0,0.734375 0.625,1.234375 1.4375,1.234375 1.4375,0 2.875,-1.3125 3.28125,-2.90625 l 1.40625,-5.59375 c 0.015625,-0.078125 0.046875,-0.15625 0.046875,-0.25 0,-0.203125 -0.171875,-0.359375 -0.390625,-0.359375 -0.125,0 -0.4375,0.0625 -0.546875,0.5 l -1.0625,4.203125 c -0.0625,0.265625 -0.0625,0.296875 -0.1875,0.453125 -0.28125,0.40625 -0.75,0.890625 -1.4375,0.890625 -0.8125,0 -0.875,-0.796875 -0.875,-1.171875 0,-0.828125 0.375,-1.921875 0.765625,-2.96875 0.15625,-0.40625 0.25,-0.609375 0.25,-0.890625 0,-0.609375 -0.4375,-1.15625 -1.140625,-1.15625 -1.3125,0 -1.84375,2.078125 -1.84375,2.203125 0,0.046875 0.046875,0.125 0.15625,0.125 C 0.671875,-4 0.6875,-4.0625 0.75,-4.265625 1.09375,-5.46875 1.640625,-6.03125 2.1875,-6.03125 c 0.140625,0 0.375,0 0.375,0.46875 0,0.375 -0.15625,0.78125 -0.375,1.328125 -0.703125,1.875 -0.703125,2.359375 -0.703125,2.703125 0,1.359375 0.984375,1.671875 1.703125,1.671875 0.40625,0 0.921875,-0.125 1.4375,-0.65625 L 4.640625,-0.5 c -0.21875,0.84375 -0.359375,1.40625 -0.875,2.109375 z m 0,0"
               id="path32" />
          </g>
        </g>
        <g
           style="fill:#000000;fill-opacity:1"
           id="g160">
          <g
             id="g159"
             transform="translate(21.992001,12.752)">
            <path
               style="stroke:none"
               d="m 10.359375,-3.578125 c 0,-2.640625 -2.15625,-4.78125 -4.78125,-4.78125 -2.671875,0 -4.796875,2.15625 -4.796875,4.78125 0,2.625 2.15625,4.765625 4.78125,4.765625 2.671875,0 4.796875,-2.15625 4.796875,-4.765625 z m -9.21875,-0.1875 C 1.296875,-6.1875 3.15625,-7.890625 5.390625,-8 v 4.234375 z M 5.75,-8 C 8,-7.890625 9.859375,-6.171875 10,-3.765625 H 5.75 Z M 5.390625,0.828125 C 3.171875,0.71875 1.296875,-0.96875 1.140625,-3.40625 h 4.25 z M 10,-3.40625 c -0.140625,2.4375 -2.046875,4.125 -4.25,4.234375 V -3.40625 Z m 0,0"
               id="path33" />
          </g>
        </g>
        <g
           style="fill:#000000;fill-opacity:1"
           id="g162">
          <g
             id="g161"
             transform="translate(36.338001,12.752)">
            <path
               style="stroke:none"
               d="m 6.390625,-5.765625 c 0.296875,0 0.40625,0 0.40625,-0.265625 0,-0.15625 -0.109375,-0.15625 -0.375,-0.15625 h -1.15625 c 0.265625,-1.46875 0.46875,-2.484375 0.59375,-2.953125 0.078125,-0.34375 0.375,-0.671875 0.75,-0.671875 0.296875,0 0.609375,0.125 0.75,0.265625 C 6.796875,-9.5 6.625,-9.078125 6.625,-8.828125 c 0,0.28125 0.21875,0.453125 0.484375,0.453125 0.296875,0 0.71875,-0.25 0.71875,-0.796875 0,-0.59375 -0.59375,-0.921875 -1.234375,-0.921875 -0.609375,0 -1.21875,0.453125 -1.5,1.015625 -0.265625,0.5 -0.40625,1.015625 -0.734375,2.890625 H 3.40625 c -0.28125,0 -0.421875,0 -0.421875,0.265625 0,0.15625 0.078125,0.15625 0.375,0.15625 H 4.28125 C 4.015625,-4.4375 3.421875,-1.1875 3.09375,0.34375 c -0.234375,1.25 -0.453125,2.296875 -1.171875,2.296875 -0.046875,0 -0.453125,0 -0.71875,-0.28125 C 1.9375,2.3125 1.9375,1.671875 1.9375,1.65625 1.9375,1.375 1.71875,1.203125 1.453125,1.203125 c -0.296875,0 -0.71875,0.25 -0.71875,0.796875 0,0.609375 0.625,0.921875 1.1875,0.921875 1.46875,0 2.0625,-2.625 2.21875,-3.34375 0.265625,-1.09375 0.96875,-4.90625 1.03125,-5.34375 z m 0,0"
               id="path160" />
          </g>
        </g>
        <g
           style="fill:#000000;fill-opacity:1"
           id="g164">
          <g
             id="g163"
             transform="translate(44.793999,12.752)">
            <path
               style="stroke:none"
               d="m 4.65625,3.484375 c 0,-0.046875 0,-0.078125 -0.234375,-0.3125 -1.4375,-1.453125 -2.234375,-3.8125 -2.234375,-6.75 0,-2.78125 0.671875,-5.171875 2.328125,-6.859375 0.140625,-0.140625 0.140625,-0.15625 0.140625,-0.203125 0,-0.09375 -0.0625,-0.109375 -0.125,-0.109375 -0.1875,0 -1.359375,1.03125 -2.0625,2.4375 -0.734375,1.4375 -1.0625,2.984375 -1.0625,4.734375 0,1.28125 0.203125,2.984375 0.953125,4.53125 0.84375,1.71875 2.015625,2.640625 2.171875,2.640625 0.0625,0 0.125,-0.015625 0.125,-0.109375 z m 0,0"
               id="path35" />
          </g>
        </g>
        <g
           style="fill:#000000;fill-opacity:1"
           id="g166">
          <g
             id="g165"
             transform="translate(50.257,12.752)">
            <path
               style="stroke:none"
               d="m 6.796875,-5.859375 c -0.453125,0.09375 -0.625,0.4375 -0.625,0.703125 0,0.34375 0.265625,0.46875 0.46875,0.46875 0.4375,0 0.734375,-0.375 0.734375,-0.765625 0,-0.59375 -0.6875,-0.875 -1.296875,-0.875 -0.875,0 -1.359375,0.859375 -1.484375,1.140625 C 4.265625,-6.265625 3.375,-6.328125 3.109375,-6.328125 1.65625,-6.328125 0.875,-4.453125 0.875,-4.125 0.875,-4.078125 0.9375,-4 1.03125,-4 1.140625,-4 1.171875,-4.09375 1.203125,-4.140625 1.6875,-5.734375 2.65625,-6.03125 3.0625,-6.03125 c 0.65625,0 0.78125,0.59375 0.78125,0.9375 0,0.3125 -0.078125,0.640625 -0.265625,1.328125 l -0.484375,1.96875 c -0.203125,0.859375 -0.625,1.65625 -1.390625,1.65625 -0.0625,0 -0.421875,0 -0.734375,-0.1875 0.515625,-0.109375 0.640625,-0.53125 0.640625,-0.703125 0,-0.28125 -0.21875,-0.453125 -0.484375,-0.453125 -0.34375,0 -0.71875,0.296875 -0.71875,0.75 0,0.609375 0.671875,0.875 1.28125,0.875 0.6875,0 1.1875,-0.546875 1.484375,-1.125 0.234375,0.84375 0.9375,1.125 1.46875,1.125 1.46875,0 2.25,-1.875 2.25,-2.1875 0,-0.078125 -0.0625,-0.140625 -0.15625,-0.140625 -0.125,0 -0.140625,0.078125 -0.171875,0.1875 -0.390625,1.265625 -1.234375,1.859375 -1.875,1.859375 -0.5,0 -0.765625,-0.375 -0.765625,-0.96875 0,-0.3125 0.046875,-0.546875 0.28125,-1.484375 l 0.5,-1.953125 C 4.921875,-5.40625 5.40625,-6.03125 6.0625,-6.03125 c 0.03125,0 0.4375,0 0.734375,0.171875 z m 0,0"
               id="path164" />
          </g>
        </g>
        <g
           style="fill:#000000;fill-opacity:1"
           id="g167">
          <g
             id="use19"
             transform="translate(58.238998,12.752)">
            <path
               style="stroke:none"
               d="M 4.046875,-3.578125 C 4.046875,-4.65625 3.90625,-6.4375 3.09375,-8.109375 2.25,-9.828125 1.078125,-10.75 0.921875,-10.75 c -0.0625,0 -0.140625,0.01563 -0.140625,0.109375 0,0.04687 0,0.0625 0.25,0.3125 1.4375,1.453125 2.234375,3.8125 2.234375,6.75 0,2.78125 -0.671875,5.171875 -2.328125,6.859375 -0.15625,0.125 -0.15625,0.15625 -0.15625,0.203125 0,0.09375 0.078125,0.109375 0.140625,0.109375 0.1875,0 1.359375,-1.03125 2.0625,-2.4375 0.734375,-1.453125 1.0625,-3 1.0625,-4.734375 z m 0,0"
               id="path37" />
          </g>
          <g
             id="use20"
             transform="translate(63.702034,12.752)">
            <path
               style="stroke:none"
               d="M 4.046875,-3.578125 C 4.046875,-4.65625 3.90625,-6.4375 3.09375,-8.109375 2.25,-9.828125 1.078125,-10.75 0.921875,-10.75 c -0.0625,0 -0.140625,0.01563 -0.140625,0.109375 0,0.04687 0,0.0625 0.25,0.3125 1.4375,1.453125 2.234375,3.8125 2.234375,6.75 0,2.78125 -0.671875,5.171875 -2.328125,6.859375 -0.15625,0.125 -0.15625,0.15625 -0.15625,0.203125 0,0.09375 0.078125,0.109375 0.140625,0.109375 0.1875,0 1.359375,-1.03125 2.0625,-2.4375 0.734375,-1.453125 1.0625,-3 1.0625,-4.734375 z m 0,0"
               id="path166" />
          </g>
        </g>
        <g
           style="fill:#000000;fill-opacity:1"
           id="g168">
          <g
             id="use21"
             transform="translate(72.352997,12.752)">
            <path
               style="stroke:none"
               d="m 10.359375,-3.578125 c 0,-2.640625 -2.15625,-4.78125 -4.78125,-4.78125 -2.671875,0 -4.796875,2.15625 -4.796875,4.78125 0,2.625 2.15625,4.765625 4.78125,4.765625 2.671875,0 4.796875,-2.15625 4.796875,-4.765625 z m -9.21875,-0.1875 C 1.296875,-6.1875 3.15625,-7.890625 5.390625,-8 v 4.234375 z M 5.75,-8 C 8,-7.890625 9.859375,-6.171875 10,-3.765625 H 5.75 Z M 5.390625,0.828125 C 3.171875,0.71875 1.296875,-0.96875 1.140625,-3.40625 h 4.25 z M 10,-3.40625 c -0.140625,2.4375 -2.046875,4.125 -4.25,4.234375 V -3.40625 Z m 0,0"
               id="path39" />
          </g>
        </g>
        <g
           style="fill:#000000;fill-opacity:1"
           id="g169">
          <g
             id="use22"
             transform="translate(86.698997,12.752)">
            <path
               style="stroke:none"
               d="m 6.390625,-5.765625 c 0.296875,0 0.40625,0 0.40625,-0.265625 0,-0.15625 -0.109375,-0.15625 -0.375,-0.15625 h -1.15625 c 0.265625,-1.46875 0.46875,-2.484375 0.59375,-2.953125 0.078125,-0.34375 0.375,-0.671875 0.75,-0.671875 0.296875,0 0.609375,0.125 0.75,0.265625 C 6.796875,-9.5 6.625,-9.078125 6.625,-8.828125 c 0,0.28125 0.21875,0.453125 0.484375,0.453125 0.296875,0 0.71875,-0.25 0.71875,-0.796875 0,-0.59375 -0.59375,-0.921875 -1.234375,-0.921875 -0.609375,0 -1.21875,0.453125 -1.5,1.015625 -0.265625,0.5 -0.40625,1.015625 -0.734375,2.890625 H 3.40625 c -0.28125,0 -0.421875,0 -0.421875,0.265625 0,0.15625 0.078125,0.15625 0.375,0.15625 H 4.28125 C 4.015625,-4.4375 3.421875,-1.1875 3.09375,0.34375 c -0.234375,1.25 -0.453125,2.296875 -1.171875,2.296875 -0.046875,0 -0.453125,0 -0.71875,-0.28125 C 1.9375,2.3125 1.9375,1.671875 1.9375,1.65625 1.9375,1.375 1.71875,1.203125 1.453125,1.203125 c -0.296875,0 -0.71875,0.25 -0.71875,0.796875 0,0.609375 0.625,0.921875 1.1875,0.921875 1.46875,0 2.0625,-2.625 2.21875,-3.34375 0.265625,-1.09375 0.96875,-4.90625 1.03125,-5.34375 z m 0,0"
               id="path168" />
          </g>
        </g>
        <g
           style="fill:#000000;fill-opacity:1"
           id="g170">
          <g
             id="use23"
             transform="translate(95.154999,12.752)">
            <path
               style="stroke:none"
               d="m 4.65625,3.484375 c 0,-0.046875 0,-0.078125 -0.234375,-0.3125 -1.4375,-1.453125 -2.234375,-3.8125 -2.234375,-6.75 0,-2.78125 0.671875,-5.171875 2.328125,-6.859375 0.140625,-0.140625 0.140625,-0.15625 0.140625,-0.203125 0,-0.09375 -0.0625,-0.109375 -0.125,-0.109375 -0.1875,0 -1.359375,1.03125 -2.0625,2.4375 -0.734375,1.4375 -1.0625,2.984375 -1.0625,4.734375 0,1.28125 0.203125,2.984375 0.953125,4.53125 0.84375,1.71875 2.015625,2.640625 2.171875,2.640625 0.0625,0 0.125,-0.015625 0.125,-0.109375 z m 0,0"
               id="path169" />
          </g>
        </g>
        <g
           style="fill:#000000;fill-opacity:1"
           id="g171">
          <g
             id="use24"
             transform="translate(100.618,12.752)">
            <path
               style="stroke:none"
               d="m 6.796875,-5.859375 c -0.453125,0.09375 -0.625,0.4375 -0.625,0.703125 0,0.34375 0.265625,0.46875 0.46875,0.46875 0.4375,0 0.734375,-0.375 0.734375,-0.765625 0,-0.59375 -0.6875,-0.875 -1.296875,-0.875 -0.875,0 -1.359375,0.859375 -1.484375,1.140625 C 4.265625,-6.265625 3.375,-6.328125 3.109375,-6.328125 1.65625,-6.328125 0.875,-4.453125 0.875,-4.125 0.875,-4.078125 0.9375,-4 1.03125,-4 1.140625,-4 1.171875,-4.09375 1.203125,-4.140625 1.6875,-5.734375 2.65625,-6.03125 3.0625,-6.03125 c 0.65625,0 0.78125,0.59375 0.78125,0.9375 0,0.3125 -0.078125,0.640625 -0.265625,1.328125 l -0.484375,1.96875 c -0.203125,0.859375 -0.625,1.65625 -1.390625,1.65625 -0.0625,0 -0.421875,0 -0.734375,-0.1875 0.515625,-0.109375 0.640625,-0.53125 0.640625,-0.703125 0,-0.28125 -0.21875,-0.453125 -0.484375,-0.453125 -0.34375,0 -0.71875,0.296875 -0.71875,0.75 0,0.609375 0.671875,0.875 1.28125,0.875 0.6875,0 1.1875,-0.546875 1.484375,-1.125 0.234375,0.84375 0.9375,1.125 1.46875,1.125 1.46875,0 2.25,-1.875 2.25,-2.1875 0,-0.078125 -0.0625,-0.140625 -0.15625,-0.140625 -0.125,0 -0.140625,0.078125 -0.171875,0.1875 -0.390625,1.265625 -1.234375,1.859375 -1.875,1.859375 -0.5,0 -0.765625,-0.375 -0.765625,-0.96875 0,-0.3125 0.046875,-0.546875 0.28125,-1.484375 l 0.5,-1.953125 C 4.921875,-5.40625 5.40625,-6.03125 6.0625,-6.03125 c 0.03125,0 0.4375,0 0.734375,0.171875 z m 0,0"
               id="path170" />
          </g>
        </g>
        <g
           style="fill:#000000;fill-opacity:1"
           id="g172">
          <g
             id="use25"
             transform="translate(108.6,12.752)">
            <path
               style="stroke:none"
               d="M 4.046875,-3.578125 C 4.046875,-4.65625 3.90625,-6.4375 3.09375,-8.109375 2.25,-9.828125 1.078125,-10.75 0.921875,-10.75 c -0.0625,0 -0.140625,0.01563 -0.140625,0.109375 0,0.04687 0,0.0625 0.25,0.3125 1.4375,1.453125 2.234375,3.8125 2.234375,6.75 0,2.78125 -0.671875,5.171875 -2.328125,6.859375 -0.15625,0.125 -0.15625,0.15625 -0.15625,0.203125 0,0.09375 0.078125,0.109375 0.140625,0.109375 0.1875,0 1.359375,-1.03125 2.0625,-2.4375 0.734375,-1.453125 1.0625,-3 1.0625,-4.734375 z m 0,0"
               id="path43" />
          </g>
        </g>
        <g
           style="fill:#000000;fill-opacity:1"
           id="g26">
          <g
             id="use26"
             transform="translate(114.063,12.752)">
            <path
               style="stroke:none"
               d="m 3.921875,-3.34375 c 0.0625,-0.171875 0.0625,-0.203125 0.0625,-0.234375 0,-0.046875 0,-0.078125 -0.0625,-0.25 L 1.40625,-10.421875 C 1.3125,-10.671875 1.234375,-10.75 1.078125,-10.75 c -0.15625,0 -0.296875,0.125 -0.296875,0.28125 0,0.04687 0,0.0625 0.078125,0.234375 l 2.546875,6.65625 -2.546875,6.625 c -0.078125,0.15625 -0.078125,0.1875 -0.078125,0.25 0,0.15625 0.140625,0.28125 0.296875,0.28125 0.1875,0 0.234375,-0.140625 0.296875,-0.28125 z m 0,0"
               id="path172" />
          </g>
        </g>
        <g
           style="fill:#000000;fill-opacity:1"
           id="g173">
          <g
             id="use27"
             transform="translate(123.627,12.752)">
            <path
               style="stroke:none"
               d="m 9.6875,-4.640625 c 0.203125,0 0.453125,0 0.453125,-0.265625 0,-0.265625 -0.25,-0.265625 -0.453125,-0.265625 H 1.234375 c -0.203125,0 -0.453125,0 -0.453125,0.25 0,0.28125 0.234375,0.28125 0.453125,0.28125 z m 0,2.65625 c 0.203125,0 0.453125,0 0.453125,-0.25 0,-0.28125 -0.25,-0.28125 -0.453125,-0.28125 H 1.234375 c -0.203125,0 -0.453125,0 -0.453125,0.265625 0,0.265625 0.234375,0.265625 0.453125,0.265625 z m 0,0"
               id="path45" />
          </g>
        </g>
        <g
           style="fill:#000000;fill-opacity:1"
           id="g174">
          <g
             id="use28"
             transform="translate(138.53799,12.752)">
            <path
               style="stroke:none"
               d="M 2.28125,-10.234375 C 2.28125,-10.5 2.28125,-10.75 2,-10.75 c -0.296875,0 -0.296875,0.25 -0.296875,0.515625 V 3.0625 c 0,0.265625 0,0.515625 0.296875,0.515625 0.28125,0 0.28125,-0.25 0.28125,-0.515625 z m 0,0"
               id="path46" />
          </g>
        </g>
        <g
           style="fill:#000000;fill-opacity:1"
           id="g175">
          <g
             id="use29"
             transform="translate(142.52299,12.752)">
            <path
               style="stroke:none"
               d="m 3.765625,1.609375 c -0.375,0.546875 -0.9375,1.03125 -1.640625,1.03125 -0.171875,0 -0.859375,-0.03125 -1.078125,-0.6875 C 1.09375,1.96875 1.15625,1.96875 1.1875,1.96875 c 0.4375,0 0.71875,-0.375 0.71875,-0.703125 C 1.90625,0.9375 1.640625,0.8125 1.421875,0.8125 1.1875,0.8125 0.6875,0.984375 0.6875,1.6875 c 0,0.734375 0.625,1.234375 1.4375,1.234375 1.4375,0 2.875,-1.3125 3.28125,-2.90625 l 1.40625,-5.59375 c 0.015625,-0.078125 0.046875,-0.15625 0.046875,-0.25 0,-0.203125 -0.171875,-0.359375 -0.390625,-0.359375 -0.125,0 -0.4375,0.0625 -0.546875,0.5 l -1.0625,4.203125 c -0.0625,0.265625 -0.0625,0.296875 -0.1875,0.453125 -0.28125,0.40625 -0.75,0.890625 -1.4375,0.890625 -0.8125,0 -0.875,-0.796875 -0.875,-1.171875 0,-0.828125 0.375,-1.921875 0.765625,-2.96875 0.15625,-0.40625 0.25,-0.609375 0.25,-0.890625 0,-0.609375 -0.4375,-1.15625 -1.140625,-1.15625 -1.3125,0 -1.84375,2.078125 -1.84375,2.203125 0,0.046875 0.046875,0.125 0.15625,0.125 C 0.671875,-4 0.6875,-4.0625 0.75,-4.265625 1.09375,-5.46875 1.640625,-6.03125 2.1875,-6.03125 c 0.140625,0 0.375,0 0.375,0.46875 0,0.375 -0.15625,0.78125 -0.375,1.328125 -0.703125,1.875 -0.703125,2.359375 -0.703125,2.703125 0,1.359375 0.984375,1.671875 1.703125,1.671875 0.40625,0 0.921875,-0.125 1.4375,-0.65625 L 4.640625,-0.5 c -0.21875,0.84375 -0.359375,1.40625 -0.875,2.109375 z m 0,0"
               id="path47" />
          </g>
        </g>
        <g
           style="fill:#000000;fill-opacity:1"
           id="g176">
          <g
             id="use30"
             transform="translate(149.88699,12.752)">
            <path
               style="stroke:none"
               d="m 3.921875,-3.34375 c 0.0625,-0.171875 0.0625,-0.203125 0.0625,-0.234375 0,-0.046875 0,-0.078125 -0.0625,-0.25 L 1.40625,-10.421875 C 1.3125,-10.671875 1.234375,-10.75 1.078125,-10.75 c -0.15625,0 -0.296875,0.125 -0.296875,0.28125 0,0.04687 0,0.0625 0.078125,0.234375 l 2.546875,6.65625 -2.546875,6.625 c -0.078125,0.15625 -0.078125,0.1875 -0.078125,0.25 0,0.15625 0.140625,0.28125 0.296875,0.28125 0.1875,0 0.234375,-0.140625 0.296875,-0.28125 z m 0,0"
               id="path175" />
          </g>
        </g>
      </g>
    </g>
  </g>
</svg>
