<?xml version="1.0" encoding="UTF-8" standalone="no"?>
<!-- Created with Inkscape (http://www.inkscape.org/) -->

<svg
   width="77.928001mm"
   height="47.473492mm"
   viewBox="0 0 77.928001 47.473492"
   version="1.1"
   id="svg1"
   inkscape:version="1.3 (1:1.3+202307231459+0e150ed6c4)"
   sodipodi:docname="difusor.svg"
   xmlns:inkscape="http://www.inkscape.org/namespaces/inkscape"
   xmlns:sodipodi="http://sodipodi.sourceforge.net/DTD/sodipodi-0.dtd"
   xmlns="http://www.w3.org/2000/svg"
   xmlns:svg="http://www.w3.org/2000/svg">
  <sodipodi:namedview
     id="namedview1"
     pagecolor="#ffffff"
     bordercolor="#666666"
     borderopacity="1.0"
     inkscape:showpageshadow="2"
     inkscape:pageopacity="0.0"
     inkscape:pagecheckerboard="0"
     inkscape:deskcolor="#d1d1d1"
     inkscape:document-units="mm"
     inkscape:zoom="2"
     inkscape:cx="313"
     inkscape:cy="537.5"
     inkscape:window-width="2560"
     inkscape:window-height="1376"
     inkscape:window-x="0"
     inkscape:window-y="27"
     inkscape:window-maximized="1"
     inkscape:current-layer="layer1"
     showgrid="false" />
  <defs
     id="defs1">
    <inkscape:path-effect
       effect="spiro"
       id="path-effect453"
       is_visible="true"
       lpeversion="1" />
    <inkscape:path-effect
       effect="spiro"
       id="path-effect451"
       is_visible="true"
       lpeversion="1" />
    <inkscape:path-effect
       effect="spiro"
       id="path-effect449"
       is_visible="true"
       lpeversion="1" />
    <inkscape:path-effect
       effect="spiro"
       id="path-effect443"
       is_visible="true"
       lpeversion="1" />
    <inkscape:path-effect
       effect="spiro"
       id="path-effect439"
       is_visible="true"
       lpeversion="1" />
    <inkscape:path-effect
       effect="spiro"
       id="path-effect435"
       is_visible="true"
       lpeversion="1" />
    <inkscape:path-effect
       effect="spiro"
       id="path-effect431"
       is_visible="true"
       lpeversion="1" />
    <inkscape:path-effect
       effect="spiro"
       id="path-effect427"
       is_visible="true"
       lpeversion="1" />
    <inkscape:path-effect
       effect="spiro"
       id="path-effect423"
       is_visible="true"
       lpeversion="1" />
    <inkscape:path-effect
       effect="spiro"
       id="path-effect419"
       is_visible="true"
       lpeversion="1" />
    <inkscape:path-effect
       effect="spiro"
       id="path-effect416"
       is_visible="true"
       lpeversion="1" />
    <inkscape:path-effect
       effect="spiro"
       id="path-effect414"
       is_visible="true"
       lpeversion="1" />
    <inkscape:path-effect
       effect="spiro"
       id="path-effect412"
       is_visible="true"
       lpeversion="1" />
  </defs>
  <g
     inkscape:label="Capa 1"
     inkscape:groupmode="layer"
     id="layer1"
     transform="translate(-51.134641,-190.07458)">
    <g
       id="g453">
      <path
         style="fill:none;stroke:#000000;stroke-width:0.264583px;stroke-linecap:butt;stroke-linejoin:miter;stroke-opacity:1"
         d="m 106.34147,46.550495 h 6.35865"
         id="path335"
         inkscape:path-effect="#path-effect412"
         inkscape:original-d="m 106.34147,46.550495 c 9.18309,-0.03612 -2.77292,0 6.35865,0"
         transform="translate(-46.163339,147.71444)"
         sodipodi:nodetypes="cc" />
      <path
         style="fill:none;stroke:#000000;stroke-width:0.264583px;stroke-linecap:butt;stroke-linejoin:miter;stroke-opacity:1"
         d="m 106.34147,46.550495 h 6.35865"
         id="path336"
         inkscape:path-effect="#path-effect414"
         inkscape:original-d="m 106.34147,46.550495 c 9.18309,-0.03612 -2.77292,0 6.35865,0"
         transform="translate(-30.817502,147.71444)"
         sodipodi:nodetypes="cc" />
      <path
         style="fill:none;stroke:#000000;stroke-width:0.264583px;stroke-linecap:butt;stroke-linejoin:miter;stroke-opacity:1"
         d="M 79.581559,89.74683 H 101.14121"
         id="path337"
         inkscape:path-effect="#path-effect416"
         inkscape:original-d="m 79.581559,89.74683 c 7.186549,0 14.373101,0 21.559651,0"
         transform="translate(-19.43784,114.40024)" />
      <path
         style="fill:none;stroke:#000000;stroke-width:0.264583px;stroke-linecap:butt;stroke-linejoin:miter;stroke-opacity:1"
         d="M 79.581559,89.74683 H 101.14121"
         id="path338"
         inkscape:path-effect="#path-effect419"
         inkscape:original-d="m 79.581559,89.74683 c 7.186549,0 14.373101,0 21.559651,0"
         transform="translate(-19.43784,133.45025)" />
      <path
         style="fill:none;stroke:#000000;stroke-width:0.264583px;stroke-linecap:butt;stroke-linejoin:miter;stroke-opacity:1"
         d="M 79.581559,89.74683 H 101.14121"
         id="path339"
         inkscape:path-effect="#path-effect423"
         inkscape:original-d="m 79.581559,89.74683 c 7.186549,0 14.373101,0 21.559651,0"
         transform="translate(-19.43784,144.03359)" />
      <path
         style="fill:none;stroke:#000000;stroke-width:0.465;stroke-linecap:butt;stroke-linejoin:miter;stroke-dasharray:0.465, 1.395;stroke-dashoffset:0;stroke-opacity:1"
         d="m 73.651657,44.207988 v 6.344547"
         id="path340"
         inkscape:path-effect="#path-effect427"
         inkscape:original-d="m 73.651657,44.207988 c 0,2.147845 0,4.229698 0,6.344547"
         transform="translate(-3.033663,166.2586)" />
      <g
         id="g345"
         transform="translate(12.212805,64.311151)">
        <rect
           style="fill:none;fill-opacity:0.434037;stroke:#000000;stroke-width:0.264999"
           id="rect340"
           width="8.871088"
           height="8.0501518"
           x="54.400387"
           y="125.89592" />
        <g
           inkscape:label=""
           transform="translate(57.602116,127.8997)"
           id="g344">
          <g
             id="g343"
             transform="matrix(0.352778,0,0,0.352778,-0.984206,-0.701454)">
            <g
               style="fill:#000000;fill-opacity:1"
               id="g342">
              <g
                 id="g341"
                 transform="translate(1.993,13.754)">
                <path
                   style="stroke:none"
                   d="M 8.890625,-11.421875 C 8.890625,-11.75 8.875,-11.765625 8.5,-11.765625 H 1.1875 l -0.171875,3.8125 h 0.3125 c 0.09375,-1.96875 0.625,-3.359375 3.40625,-3.359375 h 2.84375 L 0.90625,-0.546875 C 0.796875,-0.359375 0.796875,-0.34375 0.796875,-0.21875 0.796875,0 0.828125,0 1.171875,0 h 7.5625 L 8.96875,-4.5 H 8.65625 C 8.5,-2.234375 8.390625,-0.484375 5.09375,-0.484375 h -3 z m 0,0"
                   id="path341" />
              </g>
            </g>
          </g>
        </g>
      </g>
      <circle
         style="fill:#000000;fill-opacity:1;stroke:#000000;stroke-width:0.0468029;stroke-dasharray:none;stroke-dashoffset:0"
         id="circle345"
         cx="71.023392"
         cy="204.02048"
         r="0.9624719" />
      <circle
         style="fill:#000000;fill-opacity:1;stroke:#000000;stroke-width:0.0468029;stroke-dasharray:none;stroke-dashoffset:0"
         id="circle346"
         cx="71.023392"
         cy="223.07047"
         r="0.9624719" />
      <circle
         style="fill:#000000;fill-opacity:1;stroke:#000000;stroke-width:0.0468029;stroke-dasharray:none;stroke-dashoffset:0"
         id="circle347"
         cx="71.023392"
         cy="233.65378"
         r="0.9624719" />
      <path
         style="fill:none;stroke:#000000;stroke-width:0.264583px;stroke-linecap:butt;stroke-linejoin:miter;stroke-opacity:1"
         d="M 90.638751,122.93142 V 112.76931"
         id="path347"
         inkscape:path-effect="#path-effect431"
         inkscape:original-d="M 90.638751,122.93142 V 112.76931"
         transform="translate(-19.615265,110.1669)"
         sodipodi:nodetypes="cc" />
      <path
         style="fill:none;stroke:#000000;stroke-width:0.264583px;stroke-linecap:butt;stroke-linejoin:miter;stroke-opacity:1"
         d="m 90.638751,119.6639 v -5.68869"
         id="path348"
         inkscape:path-effect="#path-effect435"
         inkscape:original-d="m 90.638751,119.6639 v -5.68869"
         transform="translate(-19.615265,84.237731)"
         sodipodi:nodetypes="cc" />
      <g
         id="g353"
         transform="translate(-61.771195,104.34607)">
        <rect
           style="fill:none;fill-opacity:0.434037;stroke:#000000;stroke-width:0.264999"
           id="rect348"
           width="8.871088"
           height="8.0501518"
           x="143.73001"
           y="85.861" />
        <g
           inkscape:label=""
           transform="translate(146.14259,87.810748)"
           id="g352">
          <g
             id="g351"
             transform="matrix(0.352778,0,0,0.352778,-0.780256,-0.701454)">
            <g
               style="fill:#000000;fill-opacity:1"
               id="g350">
              <g
                 id="g349"
                 transform="translate(1.993,13.754)">
                <path
                   style="stroke:none"
                   d="m 6.28125,-6.53125 2.546875,-3.65625 c 0.265625,-0.375 0.78125,-1.109375 2.1875,-1.125 v -0.453125 c -0.390625,0.04687 -1.046875,0.04687 -1.453125,0.04687 -0.578125,0 -1.28125,0 -1.703125,-0.04687 v 0.453125 c 0.546875,0.04687 0.6875,0.390625 0.6875,0.671875 0,0.203125 -0.09375,0.34375 -0.21875,0.515625 L 6.0625,-6.828125 3.515625,-10.5625 C 3.390625,-10.75 3.375,-10.796875 3.375,-10.84375 3.375,-11 3.5625,-11.296875 4.125,-11.3125 v -0.453125 c -0.546875,0.04687 -1.390625,0.04687 -1.953125,0.04687 -0.453125,0 -1.3125,0 -1.71875,-0.04687 v 0.453125 c 0.9375,0 1.25,0.03125 1.625,0.5625 l 3.328125,4.859375 -3,4.359375 c -0.734375,1.0625 -1.859375,1.078125 -2.1875,1.078125 V 0 c 0.40625,-0.03125 1.0625,-0.03125 1.46875,-0.03125 0.46875,0 1.28125,0 1.703125,0.03125 V -0.453125 C 2.859375,-0.5 2.703125,-0.84375 2.703125,-1.125 c 0,-0.21875 0.09375,-0.34375 0.171875,-0.453125 l 2.75,-4 3,4.375 c 0.140625,0.1875 0.140625,0.234375 0.140625,0.296875 0,0.125 -0.15625,0.421875 -0.765625,0.453125 V 0 c 0.5625,-0.03125 1.40625,-0.03125 1.96875,-0.03125 0.453125,0 1.3125,0 1.71875,0.03125 v -0.453125 c -1.09375,0 -1.265625,-0.078125 -1.609375,-0.5625 z m 0,0"
                   id="path349" />
              </g>
            </g>
          </g>
        </g>
      </g>
      <g
         id="g358"
         transform="translate(-61.771195,114.40024)">
        <rect
           style="fill:none;fill-opacity:0.434037;stroke:#000000;stroke-width:0.264999"
           id="rect353"
           width="8.871088"
           height="8.0501518"
           x="143.73001"
           y="85.861" />
        <g
           inkscape:label=""
           transform="translate(146.14259,87.810748)"
           id="g357">
          <g
             id="g356"
             transform="matrix(0.352778,0,0,0.352778,-0.780256,-0.701454)">
            <g
               style="fill:#000000;fill-opacity:1"
               id="g355">
              <g
                 id="g354"
                 transform="translate(1.993,13.754)">
                <path
                   style="stroke:none"
                   d="m 6.28125,-6.53125 2.546875,-3.65625 c 0.265625,-0.375 0.78125,-1.109375 2.1875,-1.125 v -0.453125 c -0.390625,0.04687 -1.046875,0.04687 -1.453125,0.04687 -0.578125,0 -1.28125,0 -1.703125,-0.04687 v 0.453125 c 0.546875,0.04687 0.6875,0.390625 0.6875,0.671875 0,0.203125 -0.09375,0.34375 -0.21875,0.515625 L 6.0625,-6.828125 3.515625,-10.5625 C 3.390625,-10.75 3.375,-10.796875 3.375,-10.84375 3.375,-11 3.5625,-11.296875 4.125,-11.3125 v -0.453125 c -0.546875,0.04687 -1.390625,0.04687 -1.953125,0.04687 -0.453125,0 -1.3125,0 -1.71875,-0.04687 v 0.453125 c 0.9375,0 1.25,0.03125 1.625,0.5625 l 3.328125,4.859375 -3,4.359375 c -0.734375,1.0625 -1.859375,1.078125 -2.1875,1.078125 V 0 c 0.40625,-0.03125 1.0625,-0.03125 1.46875,-0.03125 0.46875,0 1.28125,0 1.703125,0.03125 V -0.453125 C 2.859375,-0.5 2.703125,-0.84375 2.703125,-1.125 c 0,-0.21875 0.09375,-0.34375 0.171875,-0.453125 l 2.75,-4 3,4.375 c 0.140625,0.1875 0.140625,0.234375 0.140625,0.296875 0,0.125 -0.15625,0.421875 -0.765625,0.453125 V 0 c 0.5625,-0.03125 1.40625,-0.03125 1.96875,-0.03125 0.453125,0 1.3125,0 1.71875,0.03125 v -0.453125 c -1.09375,0 -1.265625,-0.078125 -1.609375,-0.5625 z m 0,0"
                   id="path353" />
              </g>
            </g>
          </g>
        </g>
      </g>
      <g
         id="g363"
         transform="translate(-61.771195,133.45025)">
        <rect
           style="fill:none;fill-opacity:0.434037;stroke:#000000;stroke-width:0.264999"
           id="rect358"
           width="8.871088"
           height="8.0501518"
           x="143.73001"
           y="85.861" />
        <g
           inkscape:label=""
           transform="translate(146.14259,87.810748)"
           id="g362">
          <g
             id="g361"
             transform="matrix(0.352778,0,0,0.352778,-0.780256,-0.701454)">
            <g
               style="fill:#000000;fill-opacity:1"
               id="g360">
              <g
                 id="g359"
                 transform="translate(1.993,13.754)">
                <path
                   style="stroke:none"
                   d="m 6.28125,-6.53125 2.546875,-3.65625 c 0.265625,-0.375 0.78125,-1.109375 2.1875,-1.125 v -0.453125 c -0.390625,0.04687 -1.046875,0.04687 -1.453125,0.04687 -0.578125,0 -1.28125,0 -1.703125,-0.04687 v 0.453125 c 0.546875,0.04687 0.6875,0.390625 0.6875,0.671875 0,0.203125 -0.09375,0.34375 -0.21875,0.515625 L 6.0625,-6.828125 3.515625,-10.5625 C 3.390625,-10.75 3.375,-10.796875 3.375,-10.84375 3.375,-11 3.5625,-11.296875 4.125,-11.3125 v -0.453125 c -0.546875,0.04687 -1.390625,0.04687 -1.953125,0.04687 -0.453125,0 -1.3125,0 -1.71875,-0.04687 v 0.453125 c 0.9375,0 1.25,0.03125 1.625,0.5625 l 3.328125,4.859375 -3,4.359375 c -0.734375,1.0625 -1.859375,1.078125 -2.1875,1.078125 V 0 c 0.40625,-0.03125 1.0625,-0.03125 1.46875,-0.03125 0.46875,0 1.28125,0 1.703125,0.03125 V -0.453125 C 2.859375,-0.5 2.703125,-0.84375 2.703125,-1.125 c 0,-0.21875 0.09375,-0.34375 0.171875,-0.453125 l 2.75,-4 3,4.375 c 0.140625,0.1875 0.140625,0.234375 0.140625,0.296875 0,0.125 -0.15625,0.421875 -0.765625,0.453125 V 0 c 0.5625,-0.03125 1.40625,-0.03125 1.96875,-0.03125 0.453125,0 1.3125,0 1.71875,0.03125 v -0.453125 c -1.09375,0 -1.265625,-0.078125 -1.609375,-0.5625 z m 0,0"
                   id="path358" />
              </g>
            </g>
          </g>
        </g>
      </g>
      <g
         id="g368"
         transform="translate(-61.771195,143.50442)">
        <rect
           style="fill:none;fill-opacity:0.434037;stroke:#000000;stroke-width:0.264999"
           id="rect363"
           width="8.871088"
           height="8.0501518"
           x="143.73001"
           y="85.861" />
        <g
           inkscape:label=""
           transform="translate(146.14259,87.810748)"
           id="g367">
          <g
             id="g366"
             transform="matrix(0.352778,0,0,0.352778,-0.780256,-0.701454)">
            <g
               style="fill:#000000;fill-opacity:1"
               id="g365">
              <g
                 id="g364"
                 transform="translate(1.993,13.754)">
                <path
                   style="stroke:none"
                   d="m 6.28125,-6.53125 2.546875,-3.65625 c 0.265625,-0.375 0.78125,-1.109375 2.1875,-1.125 v -0.453125 c -0.390625,0.04687 -1.046875,0.04687 -1.453125,0.04687 -0.578125,0 -1.28125,0 -1.703125,-0.04687 v 0.453125 c 0.546875,0.04687 0.6875,0.390625 0.6875,0.671875 0,0.203125 -0.09375,0.34375 -0.21875,0.515625 L 6.0625,-6.828125 3.515625,-10.5625 C 3.390625,-10.75 3.375,-10.796875 3.375,-10.84375 3.375,-11 3.5625,-11.296875 4.125,-11.3125 v -0.453125 c -0.546875,0.04687 -1.390625,0.04687 -1.953125,0.04687 -0.453125,0 -1.3125,0 -1.71875,-0.04687 v 0.453125 c 0.9375,0 1.25,0.03125 1.625,0.5625 l 3.328125,4.859375 -3,4.359375 c -0.734375,1.0625 -1.859375,1.078125 -2.1875,1.078125 V 0 c 0.40625,-0.03125 1.0625,-0.03125 1.46875,-0.03125 0.46875,0 1.28125,0 1.703125,0.03125 V -0.453125 C 2.859375,-0.5 2.703125,-0.84375 2.703125,-1.125 c 0,-0.21875 0.09375,-0.34375 0.171875,-0.453125 l 2.75,-4 3,4.375 c 0.140625,0.1875 0.140625,0.234375 0.140625,0.296875 0,0.125 -0.15625,0.421875 -0.765625,0.453125 V 0 c 0.5625,-0.03125 1.40625,-0.03125 1.96875,-0.03125 0.453125,0 1.3125,0 1.71875,0.03125 v -0.453125 c -1.09375,0 -1.265625,-0.078125 -1.609375,-0.5625 z m 0,0"
                   id="path363" />
              </g>
            </g>
          </g>
        </g>
      </g>
      <g
         id="g373"
         transform="translate(-92.462872,104.34607)">
        <rect
           style="fill:none;fill-opacity:0.434037;stroke:#000000;stroke-width:0.264999"
           id="rect368"
           width="8.871088"
           height="8.0501518"
           x="143.73001"
           y="85.861" />
        <g
           inkscape:label=""
           transform="translate(146.14259,87.810748)"
           id="g372">
          <g
             id="g371"
             transform="matrix(0.352778,0,0,0.352778,-0.780256,-0.701454)">
            <g
               style="fill:#000000;fill-opacity:1"
               id="g370">
              <g
                 id="g369"
                 transform="translate(1.993,13.754)">
                <path
                   style="stroke:none"
                   d="m 6.28125,-6.53125 2.546875,-3.65625 c 0.265625,-0.375 0.78125,-1.109375 2.1875,-1.125 v -0.453125 c -0.390625,0.04687 -1.046875,0.04687 -1.453125,0.04687 -0.578125,0 -1.28125,0 -1.703125,-0.04687 v 0.453125 c 0.546875,0.04687 0.6875,0.390625 0.6875,0.671875 0,0.203125 -0.09375,0.34375 -0.21875,0.515625 L 6.0625,-6.828125 3.515625,-10.5625 C 3.390625,-10.75 3.375,-10.796875 3.375,-10.84375 3.375,-11 3.5625,-11.296875 4.125,-11.3125 v -0.453125 c -0.546875,0.04687 -1.390625,0.04687 -1.953125,0.04687 -0.453125,0 -1.3125,0 -1.71875,-0.04687 v 0.453125 c 0.9375,0 1.25,0.03125 1.625,0.5625 l 3.328125,4.859375 -3,4.359375 c -0.734375,1.0625 -1.859375,1.078125 -2.1875,1.078125 V 0 c 0.40625,-0.03125 1.0625,-0.03125 1.46875,-0.03125 0.46875,0 1.28125,0 1.703125,0.03125 V -0.453125 C 2.859375,-0.5 2.703125,-0.84375 2.703125,-1.125 c 0,-0.21875 0.09375,-0.34375 0.171875,-0.453125 l 2.75,-4 3,4.375 c 0.140625,0.1875 0.140625,0.234375 0.140625,0.296875 0,0.125 -0.15625,0.421875 -0.765625,0.453125 V 0 c 0.5625,-0.03125 1.40625,-0.03125 1.96875,-0.03125 0.453125,0 1.3125,0 1.71875,0.03125 v -0.453125 c -1.09375,0 -1.265625,-0.078125 -1.609375,-0.5625 z m 0,0"
                   id="path368" />
              </g>
            </g>
          </g>
        </g>
      </g>
      <g
         id="g378"
         transform="translate(-92.462872,114.40024)">
        <rect
           style="fill:none;fill-opacity:0.434037;stroke:#000000;stroke-width:0.264999"
           id="rect373"
           width="8.871088"
           height="8.0501518"
           x="143.73001"
           y="85.861" />
        <g
           inkscape:label=""
           transform="translate(146.14259,87.810748)"
           id="g377">
          <g
             id="g376"
             transform="matrix(0.352778,0,0,0.352778,-0.780256,-0.701454)">
            <g
               style="fill:#000000;fill-opacity:1"
               id="g375">
              <g
                 id="g374"
                 transform="translate(1.993,13.754)">
                <path
                   style="stroke:none"
                   d="m 6.28125,-6.53125 2.546875,-3.65625 c 0.265625,-0.375 0.78125,-1.109375 2.1875,-1.125 v -0.453125 c -0.390625,0.04687 -1.046875,0.04687 -1.453125,0.04687 -0.578125,0 -1.28125,0 -1.703125,-0.04687 v 0.453125 c 0.546875,0.04687 0.6875,0.390625 0.6875,0.671875 0,0.203125 -0.09375,0.34375 -0.21875,0.515625 L 6.0625,-6.828125 3.515625,-10.5625 C 3.390625,-10.75 3.375,-10.796875 3.375,-10.84375 3.375,-11 3.5625,-11.296875 4.125,-11.3125 v -0.453125 c -0.546875,0.04687 -1.390625,0.04687 -1.953125,0.04687 -0.453125,0 -1.3125,0 -1.71875,-0.04687 v 0.453125 c 0.9375,0 1.25,0.03125 1.625,0.5625 l 3.328125,4.859375 -3,4.359375 c -0.734375,1.0625 -1.859375,1.078125 -2.1875,1.078125 V 0 c 0.40625,-0.03125 1.0625,-0.03125 1.46875,-0.03125 0.46875,0 1.28125,0 1.703125,0.03125 V -0.453125 C 2.859375,-0.5 2.703125,-0.84375 2.703125,-1.125 c 0,-0.21875 0.09375,-0.34375 0.171875,-0.453125 l 2.75,-4 3,4.375 c 0.140625,0.1875 0.140625,0.234375 0.140625,0.296875 0,0.125 -0.15625,0.421875 -0.765625,0.453125 V 0 c 0.5625,-0.03125 1.40625,-0.03125 1.96875,-0.03125 0.453125,0 1.3125,0 1.71875,0.03125 v -0.453125 c -1.09375,0 -1.265625,-0.078125 -1.609375,-0.5625 z m 0,0"
                   id="path373" />
              </g>
            </g>
          </g>
        </g>
      </g>
      <g
         id="g383"
         transform="translate(-92.462872,133.45025)">
        <rect
           style="fill:none;fill-opacity:0.434037;stroke:#000000;stroke-width:0.264999"
           id="rect378"
           width="8.871088"
           height="8.0501518"
           x="143.73001"
           y="85.861" />
        <g
           inkscape:label=""
           transform="translate(146.14259,87.810748)"
           id="g382">
          <g
             id="g381"
             transform="matrix(0.352778,0,0,0.352778,-0.780256,-0.701454)">
            <g
               style="fill:#000000;fill-opacity:1"
               id="g380">
              <g
                 id="g379"
                 transform="translate(1.993,13.754)">
                <path
                   style="stroke:none"
                   d="m 6.28125,-6.53125 2.546875,-3.65625 c 0.265625,-0.375 0.78125,-1.109375 2.1875,-1.125 v -0.453125 c -0.390625,0.04687 -1.046875,0.04687 -1.453125,0.04687 -0.578125,0 -1.28125,0 -1.703125,-0.04687 v 0.453125 c 0.546875,0.04687 0.6875,0.390625 0.6875,0.671875 0,0.203125 -0.09375,0.34375 -0.21875,0.515625 L 6.0625,-6.828125 3.515625,-10.5625 C 3.390625,-10.75 3.375,-10.796875 3.375,-10.84375 3.375,-11 3.5625,-11.296875 4.125,-11.3125 v -0.453125 c -0.546875,0.04687 -1.390625,0.04687 -1.953125,0.04687 -0.453125,0 -1.3125,0 -1.71875,-0.04687 v 0.453125 c 0.9375,0 1.25,0.03125 1.625,0.5625 l 3.328125,4.859375 -3,4.359375 c -0.734375,1.0625 -1.859375,1.078125 -2.1875,1.078125 V 0 c 0.40625,-0.03125 1.0625,-0.03125 1.46875,-0.03125 0.46875,0 1.28125,0 1.703125,0.03125 V -0.453125 C 2.859375,-0.5 2.703125,-0.84375 2.703125,-1.125 c 0,-0.21875 0.09375,-0.34375 0.171875,-0.453125 l 2.75,-4 3,4.375 c 0.140625,0.1875 0.140625,0.234375 0.140625,0.296875 0,0.125 -0.15625,0.421875 -0.765625,0.453125 V 0 c 0.5625,-0.03125 1.40625,-0.03125 1.96875,-0.03125 0.453125,0 1.3125,0 1.71875,0.03125 v -0.453125 c -1.09375,0 -1.265625,-0.078125 -1.609375,-0.5625 z m 0,0"
                   id="path378" />
              </g>
            </g>
          </g>
        </g>
      </g>
      <g
         id="g388"
         transform="translate(-92.462872,143.50442)">
        <rect
           style="fill:none;fill-opacity:0.434037;stroke:#000000;stroke-width:0.264999"
           id="rect383"
           width="8.871088"
           height="8.0501518"
           x="143.73001"
           y="85.861" />
        <g
           inkscape:label=""
           transform="translate(146.14259,87.810748)"
           id="g387">
          <g
             id="g386"
             transform="matrix(0.352778,0,0,0.352778,-0.780256,-0.701454)">
            <g
               style="fill:#000000;fill-opacity:1"
               id="g385">
              <g
                 id="g384"
                 transform="translate(1.993,13.754)">
                <path
                   style="stroke:none"
                   d="m 6.28125,-6.53125 2.546875,-3.65625 c 0.265625,-0.375 0.78125,-1.109375 2.1875,-1.125 v -0.453125 c -0.390625,0.04687 -1.046875,0.04687 -1.453125,0.04687 -0.578125,0 -1.28125,0 -1.703125,-0.04687 v 0.453125 c 0.546875,0.04687 0.6875,0.390625 0.6875,0.671875 0,0.203125 -0.09375,0.34375 -0.21875,0.515625 L 6.0625,-6.828125 3.515625,-10.5625 C 3.390625,-10.75 3.375,-10.796875 3.375,-10.84375 3.375,-11 3.5625,-11.296875 4.125,-11.3125 v -0.453125 c -0.546875,0.04687 -1.390625,0.04687 -1.953125,0.04687 -0.453125,0 -1.3125,0 -1.71875,-0.04687 v 0.453125 c 0.9375,0 1.25,0.03125 1.625,0.5625 l 3.328125,4.859375 -3,4.359375 c -0.734375,1.0625 -1.859375,1.078125 -2.1875,1.078125 V 0 c 0.40625,-0.03125 1.0625,-0.03125 1.46875,-0.03125 0.46875,0 1.28125,0 1.703125,0.03125 V -0.453125 C 2.859375,-0.5 2.703125,-0.84375 2.703125,-1.125 c 0,-0.21875 0.09375,-0.34375 0.171875,-0.453125 l 2.75,-4 3,4.375 c 0.140625,0.1875 0.140625,0.234375 0.140625,0.296875 0,0.125 -0.15625,0.421875 -0.765625,0.453125 V 0 c 0.5625,-0.03125 1.40625,-0.03125 1.96875,-0.03125 0.453125,0 1.3125,0 1.71875,0.03125 v -0.453125 c -1.09375,0 -1.265625,-0.078125 -1.609375,-0.5625 z m 0,0"
                   id="path383" />
              </g>
            </g>
          </g>
        </g>
      </g>
      <path
         style="fill:none;stroke:#000000;stroke-width:0.465;stroke-linecap:butt;stroke-linejoin:miter;stroke-dasharray:0.465, 1.395;stroke-dashoffset:0;stroke-opacity:1"
         d="m 73.651657,44.207988 v 6.344547"
         id="path388"
         inkscape:path-effect="#path-effect439"
         inkscape:original-d="m 73.651657,44.207988 c 0,2.147845 0,4.229698 0,6.344547"
         transform="translate(12.841346,166.2586)" />
      <path
         style="fill:none;stroke:#000000;stroke-width:0.465;stroke-linecap:butt;stroke-linejoin:miter;stroke-dasharray:0.465, 1.395;stroke-dashoffset:0;stroke-opacity:1"
         d="m 73.651657,44.207988 v 6.344547"
         id="path389"
         inkscape:path-effect="#path-effect443"
         inkscape:original-d="m 73.651657,44.207988 c 0,2.147845 0,4.229698 0,6.344547"
         transform="translate(-17.850339,166.2586)" />
      <g
         id="g399"
         transform="translate(40.25865,103.4695)">
        <rect
           style="fill:none;fill-opacity:0.434037;stroke:#000000;stroke-width:0.264999"
           id="rect394"
           width="8.871088"
           height="8.0501518"
           x="54.400387"
           y="125.89592" />
        <g
           inkscape:label=""
           transform="translate(57.602116,127.8997)"
           id="g398">
          <g
             id="g397"
             transform="matrix(0.352778,0,0,0.352778,-0.984206,-0.701454)">
            <g
               style="fill:#000000;fill-opacity:1"
               id="g396">
              <g
                 id="g395"
                 transform="translate(1.993,13.754)">
                <path
                   style="stroke:none"
                   d="M 8.890625,-11.421875 C 8.890625,-11.75 8.875,-11.765625 8.5,-11.765625 H 1.1875 l -0.171875,3.8125 h 0.3125 c 0.09375,-1.96875 0.625,-3.359375 3.40625,-3.359375 h 2.84375 L 0.90625,-0.546875 C 0.796875,-0.359375 0.796875,-0.34375 0.796875,-0.21875 0.796875,0 0.828125,0 1.171875,0 h 7.5625 L 8.96875,-4.5 H 8.65625 C 8.5,-2.234375 8.390625,-0.484375 5.09375,-0.484375 h -3 z m 0,0"
                   id="path394" />
              </g>
            </g>
          </g>
        </g>
      </g>
      <path
         style="fill:none;stroke:#000000;stroke-width:0.264583px;stroke-linecap:butt;stroke-linejoin:miter;stroke-opacity:1"
         d="m 78.650366,169.30393 h 3.79017"
         id="path400"
         inkscape:path-effect="#path-effect449"
         inkscape:original-d="m 78.650366,169.30393 h 3.79017"
         sodipodi:nodetypes="cc"
         transform="translate(12.212799,64.311151)" />
      <g
         id="g405"
         transform="translate(-36.371179,143.50442)">
        <rect
           style="fill:none;fill-opacity:0.434037;stroke:#000000;stroke-width:0.264999"
           id="rect400"
           width="8.871088"
           height="8.0501518"
           x="143.73001"
           y="85.861" />
        <g
           inkscape:label=""
           transform="translate(146.14259,87.810748)"
           id="g404">
          <g
             id="g403"
             transform="matrix(0.352778,0,0,0.352778,-0.780256,-0.701454)">
            <g
               style="fill:#000000;fill-opacity:1"
               id="g402">
              <g
                 id="g401"
                 transform="translate(1.993,13.754)">
                <path
                   style="stroke:none"
                   d="m 6.28125,-6.53125 2.546875,-3.65625 c 0.265625,-0.375 0.78125,-1.109375 2.1875,-1.125 v -0.453125 c -0.390625,0.04687 -1.046875,0.04687 -1.453125,0.04687 -0.578125,0 -1.28125,0 -1.703125,-0.04687 v 0.453125 c 0.546875,0.04687 0.6875,0.390625 0.6875,0.671875 0,0.203125 -0.09375,0.34375 -0.21875,0.515625 L 6.0625,-6.828125 3.515625,-10.5625 C 3.390625,-10.75 3.375,-10.796875 3.375,-10.84375 3.375,-11 3.5625,-11.296875 4.125,-11.3125 v -0.453125 c -0.546875,0.04687 -1.390625,0.04687 -1.953125,0.04687 -0.453125,0 -1.3125,0 -1.71875,-0.04687 v 0.453125 c 0.9375,0 1.25,0.03125 1.625,0.5625 l 3.328125,4.859375 -3,4.359375 c -0.734375,1.0625 -1.859375,1.078125 -2.1875,1.078125 V 0 c 0.40625,-0.03125 1.0625,-0.03125 1.46875,-0.03125 0.46875,0 1.28125,0 1.703125,0.03125 V -0.453125 C 2.859375,-0.5 2.703125,-0.84375 2.703125,-1.125 c 0,-0.21875 0.09375,-0.34375 0.171875,-0.453125 l 2.75,-4 3,4.375 c 0.140625,0.1875 0.140625,0.234375 0.140625,0.296875 0,0.125 -0.15625,0.421875 -0.765625,0.453125 V 0 c 0.5625,-0.03125 1.40625,-0.03125 1.96875,-0.03125 0.453125,0 1.3125,0 1.71875,0.03125 v -0.453125 c -1.09375,0 -1.265625,-0.078125 -1.609375,-0.5625 z m 0,0"
                   id="path401" />
              </g>
            </g>
          </g>
        </g>
      </g>
      <g
         id="g410"
         transform="translate(65.658666,103.4695)">
        <rect
           style="fill:none;fill-opacity:0.434037;stroke:#000000;stroke-width:0.264999"
           id="rect405"
           width="8.871088"
           height="8.0501518"
           x="54.400387"
           y="125.89592" />
        <g
           inkscape:label=""
           transform="translate(57.602116,127.8997)"
           id="g409">
          <g
             id="g408"
             transform="matrix(0.352778,0,0,0.352778,-0.984206,-0.701454)">
            <g
               style="fill:#000000;fill-opacity:1"
               id="g407">
              <g
                 id="g406"
                 transform="translate(1.993,13.754)">
                <path
                   style="stroke:none"
                   d="M 8.890625,-11.421875 C 8.890625,-11.75 8.875,-11.765625 8.5,-11.765625 H 1.1875 l -0.171875,3.8125 h 0.3125 c 0.09375,-1.96875 0.625,-3.359375 3.40625,-3.359375 h 2.84375 L 0.90625,-0.546875 C 0.796875,-0.359375 0.796875,-0.34375 0.796875,-0.21875 0.796875,0 0.828125,0 1.171875,0 h 7.5625 L 8.96875,-4.5 H 8.65625 C 8.5,-2.234375 8.390625,-0.484375 5.09375,-0.484375 h -3 z m 0,0"
                   id="path405" />
              </g>
            </g>
          </g>
        </g>
      </g>
      <path
         style="fill:none;stroke:#000000;stroke-width:0.264583px;stroke-linecap:butt;stroke-linejoin:miter;stroke-opacity:1"
         d="m 78.650366,169.30393 h 3.79017"
         id="path410"
         inkscape:path-effect="#path-effect451"
         inkscape:original-d="m 78.650366,169.30393 h 3.79017"
         sodipodi:nodetypes="cc"
         transform="translate(24.912807,64.311151)" />
      <path
         style="fill:none;stroke:#000000;stroke-width:0.264583px;stroke-linecap:butt;stroke-linejoin:miter;stroke-opacity:1"
         d="m 78.650366,169.30393 h 3.79017"
         id="path411"
         inkscape:path-effect="#path-effect453"
         inkscape:original-d="m 78.650366,169.30393 h 3.79017"
         sodipodi:nodetypes="cc"
         transform="translate(37.612815,64.311151)" />
    </g>
  </g>
</svg>
